<ttFont>
    <TTGlyph name=".notdef" xMin="32" yMin="0" xMax="440" yMax="780">
      <contour>
        <pt x="32" y="0" on="1"/>
        <pt x="32" y="780" on="1"/>
        <pt x="440" y="780" on="1"/>
        <pt x="440" y="0" on="1"/>
      </contour>
      <contour>
        <pt x="75" y="43" on="1"/>
        <pt x="397" y="43" on="1"/>
        <pt x="397" y="737" on="1"/>
        <pt x="75" y="737" on="1"/>
      </contour>
    </TTGlyph>
    <TTGlyph name="A" xMin="-21" yMin="0" xMax="536" yMax="698">
      <contour>
        <pt x="477" y="0" on="1"/>
        <pt x="443" y="217" on="1"/>
        <pt x="154" y="217" on="1"/>
        <pt x="41" y="0" on="1"/>
        <pt x="-21" y="0" on="1"/>
        <pt x="349" y="698" on="1"/>
        <pt x="426" y="698" on="1"/>
        <pt x="536" y="0" on="1"/>
      </contour>
      <contour>
        <pt x="379" y="641" on="1"/>
        <pt x="375" y="641" on="1"/>
        <pt x="181" y="268" on="1"/>
        <pt x="437" y="268" on="1"/>
      </contour>
    </TTGlyph>
    <TTGlyph name="AE" xMin="-34" yMin="0" xMax="908" yMax="698">
      <contour>
        <pt x="413" y="216" on="1"/>
        <pt x="185" y="216" on="1"/>
        <pt x="32" y="0" on="1"/>
        <pt x="-34" y="0" on="1"/>
        <pt x="464" y="698" on="1"/>
        <pt x="908" y="698" on="1"/>
        <pt x="897" y="646" on="1"/>
        <pt x="558" y="646" on="1"/>
        <pt x="504" y="380" on="1"/>
        <pt x="819" y="380" on="1"/>
        <pt x="809" y="329" on="1"/>
        <pt x="494" y="329" on="1"/>
        <pt x="439" y="52" on="1"/>
        <pt x="788" y="52" on="1"/>
        <pt x="778" y="0" on="1"/>
        <pt x="370" y="0" on="1"/>
      </contour>
      <contour>
        <pt x="490" y="649" on="1"/>
        <pt x="221" y="267" on="1"/>
        <pt x="424" y="267" on="1"/>
        <pt x="500" y="649" on="1"/>
      </contour>
    </TTGlyph>
    <TTGlyph name="AEacute" xMin="-34" yMin="0" xMax="908" yMax="943">
      <component glyphName="AE" x="0" y="0" flags="0x204"/>
      <component glyphName="acute.case" x="356" y="0" flags="0x4"/>
    </TTGlyph>
    <TTGlyph name="Aacute" xMin="-21" yMin="0" xMax="536" yMax="943">
      <component glyphName="A" x="0" y="0" flags="0x204"/>
      <component glyphName="acute.case" x="91" y="0" flags="0x4"/>
    </TTGlyph>
    <TTGlyph name="Abreve" xMin="-21" yMin="0" xMax="564" yMax="916">
      <component glyphName="A" x="0" y="0" flags="0x204"/>
      <component glyphName="breve.case" x="91" y="0" flags="0x4"/>
    </TTGlyph>
    <TTGlyph name="Acircumflex" xMin="-21" yMin="0" xMax="554" yMax="930">
      <component glyphName="A" x="0" y="0" flags="0x204"/>
      <component glyphName="circumflex.case" x="91" y="0" flags="0x4"/>
    </TTGlyph>
    <TTGlyph name="Adieresis" xMin="-21" yMin="0" xMax="543" yMax="882">
      <component glyphName="A" x="0" y="0" flags="0x204"/>
      <component glyphName="dieresis.case" x="91" y="0" flags="0x4"/>
    </TTGlyph>
    <TTGlyph name="Agrave" xMin="-21" yMin="0" xMax="536" yMax="942">
      <component glyphName="A" x="0" y="0" flags="0x204"/>
      <component glyphName="grave.case" x="91" y="0" flags="0x4"/>
    </TTGlyph>
    <TTGlyph name="Alpha" xMin="-21" yMin="0" xMax="536" yMax="698">
      <component glyphName="A" x="0" y="0" flags="0x204"/>
    </TTGlyph>
    <TTGlyph name="Alphatonos" xMin="-21" yMin="0" xMax="536" yMax="769">
      <component glyphName="A" x="0" y="0" flags="0x204"/>
      <component glyphName="tonos.case" x="-185" y="0" flags="0x4"/>
    </TTGlyph>
    <TTGlyph name="Amacron" xMin="-21" yMin="0" xMax="551" yMax="868">
      <component glyphName="A" x="0" y="0" flags="0x204"/>
      <component glyphName="macron.case" x="91" y="0" flags="0x4"/>
    </TTGlyph>
    <TTGlyph name="Aogonek" xMin="-21" yMin="-205" xMax="536" yMax="698">
      <contour>
        <pt x="349" y="698" on="1"/>
        <pt x="426" y="698" on="1"/>
        <pt x="536" y="0" on="1"/>
        <pt x="497" y="-24" on="0"/>
        <pt x="446" y="-61" on="0"/>
        <pt x="417" y="-91" on="0"/>
        <pt x="406" y="-115" on="0"/>
        <pt x="406" y="-127" on="1"/>
        <pt x="406" y="-147" on="0"/>
        <pt x="429" y="-165" on="0"/>
        <pt x="446" y="-165" on="1"/>
        <pt x="463" y="-165" on="0"/>
        <pt x="493" y="-151" on="0"/>
        <pt x="505" y="-139" on="1"/>
        <pt x="532" y="-170" on="1"/>
        <pt x="520" y="-184" on="0"/>
        <pt x="475" y="-205" on="0"/>
        <pt x="443" y="-205" on="1"/>
        <pt x="408" y="-205" on="0"/>
        <pt x="357" y="-172" on="0"/>
        <pt x="357" y="-134" on="1"/>
        <pt x="357" y="-96" on="0"/>
        <pt x="413" y="-34" on="0"/>
        <pt x="476" y="0" on="1"/>
        <pt x="443" y="217" on="1"/>
        <pt x="154" y="217" on="1"/>
        <pt x="41" y="0" on="1"/>
        <pt x="-21" y="0" on="1"/>
      </contour>
      <contour>
        <pt x="379" y="641" on="1"/>
        <pt x="375" y="641" on="1"/>
        <pt x="181" y="268" on="1"/>
        <pt x="437" y="268" on="1"/>
      </contour>
    </TTGlyph>
    <TTGlyph name="Aring" xMin="-21" yMin="0" xMax="536" yMax="966">
      <component glyphName="A" x="0" y="0" flags="0x204"/>
      <component glyphName="ring.case" x="91" y="0" flags="0x4"/>
    </TTGlyph>
    <TTGlyph name="Aringacute" xMin="-21" yMin="0" xMax="542" yMax="1108">
      <component glyphName="A" x="0" y="0" flags="0x204"/>
      <component glyphName="ringacute.case" x="91" y="0" flags="0x4"/>
    </TTGlyph>
    <TTGlyph name="Atilde" xMin="-21" yMin="0" xMax="568" yMax="891">
      <component glyphName="A" x="0" y="0" flags="0x204"/>
      <component glyphName="tilde.case" x="91" y="0" flags="0x4"/>
    </TTGlyph>
    <TTGlyph name="B" xMin="45" yMin="0" xMax="586" yMax="698">
      <contour>
        <pt x="184" y="698" on="1"/>
        <pt x="427" y="698" on="1"/>
        <pt x="505" y="698" on="0"/>
        <pt x="586" y="622" on="0"/>
        <pt x="586" y="554" on="1"/>
        <pt x="586" y="522" on="0"/>
        <pt x="570" y="462" on="0"/>
        <pt x="537" y="412" on="0"/>
        <pt x="485" y="376" on="0"/>
        <pt x="449" y="368" on="1"/>
        <pt x="448" y="364" on="1"/>
        <pt x="496" y="353" on="0"/>
        <pt x="549" y="287" on="0"/>
        <pt x="549" y="234" on="1"/>
        <pt x="549" y="183" on="0"/>
        <pt x="516" y="98" on="0"/>
        <pt x="458" y="35" on="0"/>
        <pt x="377" y="0" on="0"/>
        <pt x="328" y="0" on="1"/>
        <pt x="45" y="0" on="1"/>
      </contour>
      <contour>
        <pt x="328" y="52" on="1"/>
        <pt x="391" y="52" on="0"/>
        <pt x="468" y="116" on="0"/>
        <pt x="480" y="174" on="1"/>
        <pt x="485" y="202" on="0"/>
        <pt x="489" y="229" on="0"/>
        <pt x="489" y="237" on="1"/>
        <pt x="489" y="282" on="0"/>
        <pt x="432" y="337" on="0"/>
        <pt x="375" y="337" on="1"/>
        <pt x="170" y="337" on="1"/>
        <pt x="113" y="52" on="1"/>
      </contour>
      <contour>
        <pt x="367" y="388" on="1"/>
        <pt x="429" y="388" on="0"/>
        <pt x="507" y="440" on="0"/>
        <pt x="518" y="494" on="1"/>
        <pt x="523" y="520" on="0"/>
        <pt x="526" y="546" on="0"/>
        <pt x="526" y="554" on="1"/>
        <pt x="526" y="597" on="0"/>
        <pt x="474" y="646" on="0"/>
        <pt x="420" y="646" on="1"/>
        <pt x="231" y="646" on="1"/>
        <pt x="180" y="388" on="1"/>
      </contour>
    </TTGlyph>
    <TTGlyph name="Beta" xMin="45" yMin="0" xMax="586" yMax="698">
      <component glyphName="B" x="0" y="0" flags="0x204"/>
    </TTGlyph>
    <TTGlyph name="C" xMin="60" yMin="-12" xMax="605" yMax="710">
      <contour>
        <pt x="290" y="-12" on="1"/>
        <pt x="240" y="-12" on="0"/>
        <pt x="155" y="22" on="0"/>
        <pt x="94" y="88" on="0"/>
        <pt x="60" y="185" on="0"/>
        <pt x="60" y="248" on="1"/>
        <pt x="60" y="332" on="0"/>
        <pt x="103" y="498" on="0"/>
        <pt x="188" y="629" on="0"/>
        <pt x="313" y="710" on="0"/>
        <pt x="394" y="710" on="1"/>
        <pt x="561" y="710" on="0"/>
        <pt x="605" y="558" on="1"/>
        <pt x="552" y="536" on="1"/>
        <pt x="535" y="594" on="0"/>
        <pt x="459" y="658" on="0"/>
        <pt x="388" y="658" on="1"/>
        <pt x="343" y="658" on="0"/>
        <pt x="264" y="623" on="0"/>
        <pt x="201" y="558" on="0"/>
        <pt x="155" y="466" on="0"/>
        <pt x="144" y="410" on="1"/>
        <pt x="126" y="319" on="1"/>
        <pt x="121" y="295" on="0"/>
        <pt x="118" y="253" on="0"/>
        <pt x="118" y="236" on="1"/>
        <pt x="118" y="147" on="0"/>
        <pt x="209" y="40" on="0"/>
        <pt x="293" y="40" on="1"/>
        <pt x="365" y="40" on="0"/>
        <pt x="456" y="110" on="0"/>
        <pt x="492" y="175" on="1"/>
        <pt x="541" y="151" on="1"/>
        <pt x="495" y="65" on="0"/>
        <pt x="376" y="-12" on="0"/>
      </contour>
    </TTGlyph>
    <TTGlyph name="Cacute" xMin="60" yMin="-12" xMax="605" yMax="943">
      <component glyphName="C" x="0" y="0" flags="0x204"/>
      <component glyphName="acute.case" x="100" y="0" flags="0x4"/>
    </TTGlyph>
    <TTGlyph name="Ccaron" xMin="60" yMin="-12" xMax="605" yMax="937">
      <component glyphName="C" x="0" y="0" flags="0x204"/>
      <component glyphName="caron.case" x="100" y="0" flags="0x4"/>
    </TTGlyph>
    <TTGlyph name="Ccedilla" xMin="60" yMin="-205" xMax="605" yMax="710">
      <contour>
        <pt x="388" y="658" on="1"/>
        <pt x="343" y="658" on="0"/>
        <pt x="264" y="623" on="0"/>
        <pt x="201" y="558" on="0"/>
        <pt x="155" y="466" on="0"/>
        <pt x="144" y="410" on="1"/>
        <pt x="126" y="319" on="1"/>
        <pt x="121" y="295" on="0"/>
        <pt x="118" y="253" on="0"/>
        <pt x="118" y="236" on="1"/>
        <pt x="118" y="147" on="0"/>
        <pt x="209" y="40" on="0"/>
        <pt x="293" y="40" on="1"/>
        <pt x="365" y="40" on="0"/>
        <pt x="456" y="110" on="0"/>
        <pt x="492" y="175" on="1"/>
        <pt x="541" y="151" on="1"/>
        <pt x="496" y="68" on="0"/>
        <pt x="381" y="-10" on="0"/>
        <pt x="300" y="-12" on="1"/>
        <pt x="279" y="-66" on="1"/>
        <pt x="281" y="-68" on="1"/>
        <pt x="287" y="-67" on="0"/>
        <pt x="302" y="-65" on="0"/>
        <pt x="312" y="-65" on="1"/>
        <pt x="338" y="-65" on="0"/>
        <pt x="370" y="-91" on="0"/>
        <pt x="370" y="-120" on="1"/>
        <pt x="370" y="-157" on="0"/>
        <pt x="314" y="-205" on="0"/>
        <pt x="267" y="-205" on="1"/>
        <pt x="233" y="-205" on="0"/>
        <pt x="187" y="-184" on="0"/>
        <pt x="176" y="-170" on="1"/>
        <pt x="206" y="-140" on="1"/>
        <pt x="214" y="-151" on="0"/>
        <pt x="244" y="-166" on="0"/>
        <pt x="266" y="-166" on="1"/>
        <pt x="292" y="-166" on="0"/>
        <pt x="323" y="-141" on="0"/>
        <pt x="323" y="-121" on="1"/>
        <pt x="323" y="-104" on="0"/>
        <pt x="300" y="-85" on="0"/>
        <pt x="269" y="-82" on="1"/>
        <pt x="238" y="-79" on="1"/>
        <pt x="263" y="-11" on="1"/>
        <pt x="218" y="-6" on="0"/>
        <pt x="143" y="32" on="0"/>
        <pt x="90" y="98" on="0"/>
        <pt x="60" y="189" on="0"/>
        <pt x="60" y="248" on="1"/>
        <pt x="60" y="332" on="0"/>
        <pt x="103" y="498" on="0"/>
        <pt x="188" y="629" on="0"/>
        <pt x="313" y="710" on="0"/>
        <pt x="394" y="710" on="1"/>
        <pt x="561" y="710" on="0"/>
        <pt x="605" y="558" on="1"/>
        <pt x="552" y="536" on="1"/>
        <pt x="535" y="594" on="0"/>
        <pt x="459" y="658" on="0"/>
      </contour>
    </TTGlyph>
    <TTGlyph name="Ccircumflex" xMin="60" yMin="-12" xMax="605" yMax="930">
      <component glyphName="C" x="0" y="0" flags="0x204"/>
      <component glyphName="circumflex.case" x="100" y="0" flags="0x4"/>
    </TTGlyph>
    <TTGlyph name="Cdotaccent" xMin="60" yMin="-12" xMax="605" yMax="881">
      <component glyphName="C" x="0" y="0" flags="0x204"/>
      <component glyphName="dotaccent.case" x="100" y="0" flags="0x4"/>
    </TTGlyph>
    <TTGlyph name="Chi" xMin="-27" yMin="0" xMax="633" yMax="698">
      <component glyphName="X" x="0" y="0" flags="0x204"/>
    </TTGlyph>
    <TTGlyph name="D" xMin="45" yMin="0" xMax="618" yMax="698">
      <contour>
        <pt x="184" y="698" on="1"/>
        <pt x="382" y="698" on="1"/>
        <pt x="495" y="698" on="0"/>
        <pt x="618" y="568" on="0"/>
        <pt x="618" y="443" on="1"/>
        <pt x="618" y="360" on="0"/>
        <pt x="575" y="201" on="0"/>
        <pt x="489" y="77" on="0"/>
        <pt x="362" y="0" on="0"/>
        <pt x="278" y="0" on="1"/>
        <pt x="45" y="0" on="1"/>
      </contour>
      <contour>
        <pt x="279" y="52" on="1"/>
        <pt x="329" y="52" on="0"/>
        <pt x="413" y="87" on="0"/>
        <pt x="478" y="150" on="0"/>
        <pt x="522" y="240" on="0"/>
        <pt x="533" y="294" on="1"/>
        <pt x="551" y="380" on="1"/>
        <pt x="555" y="402" on="0"/>
        <pt x="558" y="443" on="0"/>
        <pt x="558" y="460" on="1"/>
        <pt x="558" y="549" on="0"/>
        <pt x="465" y="646" on="0"/>
        <pt x="378" y="646" on="1"/>
        <pt x="232" y="646" on="1"/>
        <pt x="114" y="52" on="1"/>
      </contour>
    </TTGlyph>
    <TTGlyph name="Dcaron" xMin="45" yMin="0" xMax="618" yMax="937">
      <component glyphName="D" x="0" y="0" flags="0x204"/>
      <component glyphName="caron.case" x="79" y="0" flags="0x4"/>
    </TTGlyph>
    <TTGlyph name="Dcroat" xMin="38" yMin="0" xMax="621" yMax="698">
      <contour>
        <pt x="117" y="346" on="1"/>
        <pt x="38" y="346" on="1"/>
        <pt x="47" y="391" on="1"/>
        <pt x="127" y="391" on="1"/>
        <pt x="187" y="698" on="1"/>
        <pt x="385" y="698" on="1"/>
        <pt x="498" y="698" on="0"/>
        <pt x="621" y="568" on="0"/>
        <pt x="621" y="443" on="1"/>
        <pt x="621" y="360" on="0"/>
        <pt x="578" y="201" on="0"/>
        <pt x="492" y="77" on="0"/>
        <pt x="365" y="0" on="0"/>
        <pt x="281" y="0" on="1"/>
        <pt x="48" y="0" on="1"/>
      </contour>
      <contour>
        <pt x="282" y="52" on="1"/>
        <pt x="332" y="52" on="0"/>
        <pt x="416" y="87" on="0"/>
        <pt x="481" y="151" on="0"/>
        <pt x="525" y="240" on="0"/>
        <pt x="536" y="294" on="1"/>
        <pt x="554" y="380" on="1"/>
        <pt x="558" y="402" on="0"/>
        <pt x="561" y="443" on="0"/>
        <pt x="561" y="460" on="1"/>
        <pt x="561" y="549" on="0"/>
        <pt x="468" y="646" on="0"/>
        <pt x="381" y="646" on="1"/>
        <pt x="235" y="646" on="1"/>
        <pt x="185" y="391" on="1"/>
        <pt x="331" y="391" on="1"/>
        <pt x="321" y="346" on="1"/>
        <pt x="175" y="346" on="1"/>
        <pt x="117" y="52" on="1"/>
      </contour>
    </TTGlyph>
    <TTGlyph name="Delta" xMin="-8" yMin="0" xMax="533" yMax="698">
      <contour>
        <pt x="3" y="55" on="1"/>
        <pt x="349" y="698" on="1"/>
        <pt x="426" y="698" on="1"/>
        <pt x="533" y="56" on="1"/>
        <pt x="523" y="0" on="1"/>
        <pt x="-8" y="0" on="1"/>
      </contour>
      <contour>
        <pt x="379" y="641" on="1"/>
        <pt x="375" y="641" on="1"/>
        <pt x="63" y="52" on="1"/>
        <pt x="475" y="52" on="1"/>
      </contour>
    </TTGlyph>
    <TTGlyph name="E" xMin="45" yMin="0" xMax="583" yMax="698">
      <contour>
        <pt x="45" y="0" on="1"/>
        <pt x="185" y="698" on="1"/>
        <pt x="583" y="698" on="1"/>
        <pt x="572" y="646" on="1"/>
        <pt x="233" y="646" on="1"/>
        <pt x="179" y="380" on="1"/>
        <pt x="494" y="380" on="1"/>
        <pt x="484" y="329" on="1"/>
        <pt x="169" y="329" on="1"/>
        <pt x="114" y="52" on="1"/>
        <pt x="463" y="52" on="1"/>
        <pt x="453" y="0" on="1"/>
      </contour>
    </TTGlyph>
    <TTGlyph name="Eacute" xMin="45" yMin="0" xMax="583" yMax="943">
      <component glyphName="E" x="0" y="0" flags="0x204"/>
      <component glyphName="acute.case" x="84" y="0" flags="0x4"/>
    </TTGlyph>
    <TTGlyph name="Ebreve" xMin="45" yMin="0" xMax="583" yMax="916">
      <component glyphName="E" x="0" y="0" flags="0x204"/>
      <component glyphName="breve.case" x="84" y="0" flags="0x4"/>
    </TTGlyph>
    <TTGlyph name="Ecaron" xMin="45" yMin="0" xMax="583" yMax="937">
      <component glyphName="E" x="0" y="0" flags="0x204"/>
      <component glyphName="caron.case" x="84" y="0" flags="0x4"/>
    </TTGlyph>
    <TTGlyph name="Ecircumflex" xMin="45" yMin="0" xMax="583" yMax="930">
      <component glyphName="E" x="0" y="0" flags="0x204"/>
      <component glyphName="circumflex.case" x="84" y="0" flags="0x4"/>
    </TTGlyph>
    <TTGlyph name="Edieresis" xMin="45" yMin="0" xMax="583" yMax="882">
      <component glyphName="E" x="0" y="0" flags="0x204"/>
      <component glyphName="dieresis.case" x="84" y="0" flags="0x4"/>
    </TTGlyph>
    <TTGlyph name="Edotaccent" xMin="45" yMin="0" xMax="583" yMax="881">
      <component glyphName="E" x="0" y="0" flags="0x204"/>
      <component glyphName="dotaccent.case" x="84" y="0" flags="0x4"/>
    </TTGlyph>
    <TTGlyph name="Egrave" xMin="45" yMin="0" xMax="583" yMax="942">
      <component glyphName="E" x="0" y="0" flags="0x204"/>
      <component glyphName="grave.case" x="84" y="0" flags="0x4"/>
    </TTGlyph>
    <TTGlyph name="Emacron" xMin="45" yMin="0" xMax="583" yMax="868">
      <component glyphName="E" x="0" y="0" flags="0x204"/>
      <component glyphName="macron.case" x="84" y="0" flags="0x4"/>
    </TTGlyph>
    <TTGlyph name="Eng" xMin="45" yMin="-200" xMax="674" yMax="698">
      <contour>
        <pt x="45" y="0" on="1"/>
        <pt x="185" y="698" on="1"/>
        <pt x="254" y="698" on="1"/>
        <pt x="491" y="82" on="1"/>
        <pt x="495" y="82" on="1"/>
        <pt x="618" y="698" on="1"/>
        <pt x="674" y="698" on="1"/>
        <pt x="509" y="-126" on="1"/>
        <pt x="501" y="-164" on="0"/>
        <pt x="464" y="-200" on="0"/>
        <pt x="426" y="-200" on="1"/>
        <pt x="355" y="-200" on="1"/>
        <pt x="365" y="-150" on="1"/>
        <pt x="448" y="-150" on="1"/>
        <pt x="478" y="0" on="1"/>
        <pt x="465" y="0" on="1"/>
        <pt x="228" y="616" on="1"/>
        <pt x="224" y="616" on="1"/>
        <pt x="101" y="0" on="1"/>
      </contour>
    </TTGlyph>
    <TTGlyph name="Eogonek" xMin="45" yMin="-205" xMax="583" yMax="698">
      <contour>
        <pt x="185" y="698" on="1"/>
        <pt x="583" y="698" on="1"/>
        <pt x="572" y="646" on="1"/>
        <pt x="233" y="646" on="1"/>
        <pt x="179" y="380" on="1"/>
        <pt x="494" y="380" on="1"/>
        <pt x="484" y="329" on="1"/>
        <pt x="169" y="329" on="1"/>
        <pt x="114" y="52" on="1"/>
        <pt x="463" y="52" on="1"/>
        <pt x="453" y="0" on="1"/>
        <pt x="414" y="-24" on="0"/>
        <pt x="364" y="-61" on="0"/>
        <pt x="335" y="-91" on="0"/>
        <pt x="324" y="-115" on="0"/>
        <pt x="324" y="-127" on="1"/>
        <pt x="324" y="-147" on="0"/>
        <pt x="347" y="-165" on="0"/>
        <pt x="364" y="-165" on="1"/>
        <pt x="381" y="-165" on="0"/>
        <pt x="410" y="-151" on="0"/>
        <pt x="422" y="-139" on="1"/>
        <pt x="450" y="-170" on="1"/>
        <pt x="437" y="-184" on="0"/>
        <pt x="392" y="-205" on="0"/>
        <pt x="361" y="-205" on="1"/>
        <pt x="326" y="-205" on="0"/>
        <pt x="274" y="-172" on="0"/>
        <pt x="274" y="-134" on="1"/>
        <pt x="274" y="-98" on="0"/>
        <pt x="336" y="-36" on="0"/>
        <pt x="404" y="-4" on="1"/>
        <pt x="403" y="0" on="1"/>
        <pt x="45" y="0" on="1"/>
      </contour>
    </TTGlyph>
    <TTGlyph name="Epsilon" xMin="45" yMin="0" xMax="583" yMax="698">
      <component glyphName="E" x="0" y="0" flags="0x204"/>
    </TTGlyph>
    <TTGlyph name="Epsilontonos" xMin="56" yMin="0" xMax="615" yMax="769">
      <component glyphName="E" x="32" y="0" flags="0x4"/>
      <component glyphName="tonos.case" x="-252" y="0" flags="0x4"/>
    </TTGlyph>
    <TTGlyph name="Eta" xMin="45" yMin="0" xMax="674" yMax="698">
      <component glyphName="H" x="0" y="0" flags="0x204"/>
    </TTGlyph>
    <TTGlyph name="Etatonos" xMin="56" yMin="0" xMax="706" yMax="769">
      <component glyphName="H" x="32" y="0" flags="0x4"/>
      <component glyphName="tonos.case" x="-252" y="0" flags="0x4"/>
    </TTGlyph>
    <TTGlyph name="Eth" xMin="38" yMin="0" xMax="621" yMax="698">
      <component glyphName="Dcroat" x="0" y="0" flags="0x204"/>
    </TTGlyph>
    <TTGlyph name="Euro" xMin="60" yMin="-12" xMax="604" yMax="710">
      <contour>
        <pt x="286" y="-12" on="1"/>
        <pt x="238" y="-12" on="0"/>
        <pt x="155" y="22" on="0"/>
        <pt x="94" y="88" on="0"/>
        <pt x="60" y="185" on="0"/>
        <pt x="60" y="248" on="1"/>
        <pt x="60" y="333" on="0"/>
        <pt x="103" y="498" on="0"/>
        <pt x="188" y="629" on="0"/>
        <pt x="312" y="710" on="0"/>
        <pt x="393" y="710" on="1"/>
        <pt x="478" y="710" on="0"/>
        <pt x="582" y="634" on="0"/>
        <pt x="604" y="562" on="1"/>
        <pt x="552" y="535" on="1"/>
        <pt x="535" y="595" on="0"/>
        <pt x="458" y="658" on="0"/>
        <pt x="389" y="658" on="1"/>
        <pt x="348" y="658" on="0"/>
        <pt x="275" y="629" on="0"/>
        <pt x="215" y="575" on="0"/>
        <pt x="169" y="499" on="0"/>
        <pt x="155" y="452" on="1"/>
        <pt x="411" y="452" on="1"/>
        <pt x="402" y="405" on="1"/>
        <pt x="143" y="405" on="1"/>
        <pt x="135" y="376" on="0"/>
        <pt x="126" y="322" on="0"/>
        <pt x="122" y="293" on="1"/>
        <pt x="380" y="293" on="1"/>
        <pt x="370" y="246" on="1"/>
        <pt x="118" y="246" on="1"/>
        <pt x="118" y="236" on="1"/>
        <pt x="118" y="145" on="0"/>
        <pt x="211" y="40" on="0"/>
        <pt x="292" y="40" on="1"/>
        <pt x="328" y="40" on="0"/>
        <pt x="386" y="57" on="0"/>
        <pt x="433" y="92" on="0"/>
        <pt x="473" y="143" on="0"/>
        <pt x="492" y="176" on="1"/>
        <pt x="535" y="144" on="1"/>
        <pt x="511" y="103" on="0"/>
        <pt x="461" y="45" on="0"/>
        <pt x="402" y="6" on="0"/>
        <pt x="331" y="-12" on="0"/>
      </contour>
    </TTGlyph>
    <TTGlyph name="F" xMin="45" yMin="0" xMax="573" yMax="698">
      <contour>
        <pt x="45" y="0" on="1"/>
        <pt x="185" y="698" on="1"/>
        <pt x="573" y="698" on="1"/>
        <pt x="562" y="646" on="1"/>
        <pt x="232" y="646" on="1"/>
        <pt x="179" y="380" on="1"/>
        <pt x="488" y="380" on="1"/>
        <pt x="478" y="329" on="1"/>
        <pt x="169" y="329" on="1"/>
        <pt x="103" y="0" on="1"/>
      </contour>
    </TTGlyph>
    <TTGlyph name="G" xMin="60" yMin="-12" xMax="628" yMax="710">
      <contour>
        <pt x="499" y="107" on="1"/>
        <pt x="496" y="107" on="1"/>
        <pt x="467" y="53" on="0"/>
        <pt x="361" y="-12" on="0"/>
        <pt x="286" y="-12" on="1"/>
        <pt x="236" y="-12" on="0"/>
        <pt x="153" y="21" on="0"/>
        <pt x="93" y="87" on="0"/>
        <pt x="60" y="184" on="0"/>
        <pt x="60" y="248" on="1"/>
        <pt x="60" y="303" on="0"/>
        <pt x="79" y="414" on="0"/>
        <pt x="116" y="517" on="0"/>
        <pt x="173" y="606" on="0"/>
        <pt x="249" y="672" on="0"/>
        <pt x="346" y="710" on="0"/>
        <pt x="404" y="710" on="1"/>
        <pt x="495" y="710" on="0"/>
        <pt x="608" y="629" on="0"/>
        <pt x="628" y="558" on="1"/>
        <pt x="576" y="536" on="1"/>
        <pt x="556" y="593" on="0"/>
        <pt x="473" y="658" on="0"/>
        <pt x="397" y="658" on="1"/>
        <pt x="349" y="658" on="0"/>
        <pt x="266" y="622" on="0"/>
        <pt x="201" y="556" on="0"/>
        <pt x="155" y="462" on="0"/>
        <pt x="143" y="404" on="1"/>
        <pt x="126" y="319" on="1"/>
        <pt x="121" y="298" on="0"/>
        <pt x="118" y="257" on="0"/>
        <pt x="118" y="240" on="1"/>
        <pt x="118" y="146" on="0"/>
        <pt x="212" y="40" on="0"/>
        <pt x="300" y="40" on="1"/>
        <pt x="337" y="40" on="0"/>
        <pt x="409" y="62" on="0"/>
        <pt x="468" y="107" on="0"/>
        <pt x="511" y="175" on="0"/>
        <pt x="520" y="221" on="1"/>
        <pt x="535" y="296" on="1"/>
        <pt x="375" y="296" on="1"/>
        <pt x="387" y="349" on="1"/>
        <pt x="602" y="349" on="1"/>
        <pt x="533" y="0" on="1"/>
        <pt x="478" y="0" on="1"/>
      </contour>
    </TTGlyph>
    <TTGlyph name="Gamma" xMin="45" yMin="0" xMax="539" yMax="698">
      <component glyphName="uni0413" x="0" y="0" flags="0x204"/>
    </TTGlyph>
    <TTGlyph name="Gbreve" xMin="60" yMin="-12" xMax="628" yMax="916">
      <component glyphName="G" x="0" y="0" flags="0x204"/>
      <component glyphName="breve.case" x="113" y="0" flags="0x4"/>
    </TTGlyph>
    <TTGlyph name="Gcircumflex" xMin="60" yMin="-12" xMax="628" yMax="930">
      <component glyphName="G" x="0" y="0" flags="0x204"/>
      <component glyphName="circumflex.case" x="113" y="0" flags="0x4"/>
    </TTGlyph>
    <TTGlyph name="Gcommaaccent" xMin="60" yMin="-232" xMax="628" yMax="710">
      <component glyphName="G" x="0" y="0" flags="0x204"/>
      <component glyphName="uni0326" x="285" y="0" flags="0x4"/>
    </TTGlyph>
    <TTGlyph name="Gdotaccent" xMin="60" yMin="-12" xMax="628" yMax="881">
      <component glyphName="G" x="0" y="0" flags="0x204"/>
      <component glyphName="dotaccent.case" x="113" y="0" flags="0x4"/>
    </TTGlyph>
    <TTGlyph name="H" xMin="45" yMin="0" xMax="674" yMax="698">
      <contour>
        <pt x="542" y="329" on="1"/>
        <pt x="169" y="329" on="1"/>
        <pt x="103" y="0" on="1"/>
        <pt x="45" y="0" on="1"/>
        <pt x="185" y="698" on="1"/>
        <pt x="243" y="698" on="1"/>
        <pt x="179" y="380" on="1"/>
        <pt x="552" y="380" on="1"/>
        <pt x="616" y="698" on="1"/>
        <pt x="674" y="698" on="1"/>
        <pt x="534" y="0" on="1"/>
        <pt x="476" y="0" on="1"/>
      </contour>
    </TTGlyph>
    <TTGlyph name="Hbar" xMin="48" yMin="0" xMax="725" yMax="698">
      <contour>
        <pt x="545" y="329" on="1"/>
        <pt x="172" y="329" on="1"/>
        <pt x="106" y="0" on="1"/>
        <pt x="48" y="0" on="1"/>
        <pt x="153" y="527" on="1"/>
        <pt x="81" y="527" on="1"/>
        <pt x="90" y="572" on="1"/>
        <pt x="163" y="572" on="1"/>
        <pt x="188" y="698" on="1"/>
        <pt x="246" y="698" on="1"/>
        <pt x="221" y="572" on="1"/>
        <pt x="594" y="572" on="1"/>
        <pt x="619" y="698" on="1"/>
        <pt x="677" y="698" on="1"/>
        <pt x="652" y="572" on="1"/>
        <pt x="725" y="572" on="1"/>
        <pt x="716" y="527" on="1"/>
        <pt x="643" y="527" on="1"/>
        <pt x="537" y="0" on="1"/>
        <pt x="479" y="0" on="1"/>
      </contour>
      <contour>
        <pt x="555" y="380" on="1"/>
        <pt x="585" y="527" on="1"/>
        <pt x="211" y="527" on="1"/>
        <pt x="182" y="380" on="1"/>
      </contour>
    </TTGlyph>
    <TTGlyph name="Hcircumflex" xMin="45" yMin="0" xMax="674" yMax="930">
      <component glyphName="H" x="0" y="0" flags="0x204"/>
      <component glyphName="circumflex.case" x="136" y="0" flags="0x4"/>
    </TTGlyph>
    <TTGlyph name="I" xMin="11" yMin="0" xMax="406" yMax="698">
      <contour>
        <pt x="11" y="0" on="1"/>
        <pt x="21" y="50" on="1"/>
        <pt x="120" y="50" on="1"/>
        <pt x="239" y="648" on="1"/>
        <pt x="141" y="648" on="1"/>
        <pt x="151" y="698" on="1"/>
        <pt x="406" y="698" on="1"/>
        <pt x="396" y="648" on="1"/>
        <pt x="297" y="648" on="1"/>
        <pt x="178" y="50" on="1"/>
        <pt x="276" y="50" on="1"/>
        <pt x="266" y="0" on="1"/>
      </contour>
    </TTGlyph>
    <TTGlyph name="IJ" xMin="73" yMin="-12" xMax="631" yMax="698">
      <contour>
        <pt x="631" y="698" on="1"/>
        <pt x="533" y="214" on="1"/>
        <pt x="511" y="104" on="0"/>
        <pt x="378" y="-12" on="0"/>
        <pt x="271" y="-12" on="1"/>
        <pt x="226" y="-12" on="0"/>
        <pt x="154" y="11" on="0"/>
        <pt x="103" y="53" on="0"/>
        <pt x="74" y="111" on="0"/>
        <pt x="73" y="146" on="1"/>
        <pt x="126" y="160" on="1"/>
        <pt x="131" y="100" on="0"/>
        <pt x="208" y="40" on="0"/>
        <pt x="276" y="40" on="1"/>
        <pt x="356" y="40" on="0"/>
        <pt x="459" y="131" on="0"/>
        <pt x="476" y="217" on="1"/>
        <pt x="562" y="646" on="1"/>
        <pt x="390" y="646" on="1"/>
        <pt x="401" y="698" on="1"/>
      </contour>
      <contour>
        <pt x="181" y="698" on="1"/>
        <pt x="239" y="698" on="1"/>
        <pt x="157" y="290" on="1"/>
        <pt x="99" y="290" on="1"/>
      </contour>
    </TTGlyph>
    <TTGlyph name="IJacute" xMin="73" yMin="-12" xMax="676" yMax="943">
      <component glyphName="IJ" x="0" y="0" flags="0x204"/>
      <component glyphName="acute.case" x="-75" y="0" flags="0x4"/>
      <component glyphName="acute.case" x="233" y="0" flags="0x4"/>
    </TTGlyph>
    <TTGlyph name="Iacute" xMin="11" yMin="0" xMax="424" yMax="943">
      <component glyphName="I" x="0" y="0" flags="0x204"/>
      <component glyphName="acute.case" x="-19" y="0" flags="0x4"/>
    </TTGlyph>
    <TTGlyph name="Ibreve" xMin="11" yMin="0" xMax="454" yMax="916">
      <component glyphName="I" x="0" y="0" flags="0x204"/>
      <component glyphName="breve.case" x="-19" y="0" flags="0x4"/>
    </TTGlyph>
    <TTGlyph name="Icircumflex" xMin="11" yMin="0" xMax="444" yMax="930">
      <component glyphName="I" x="0" y="0" flags="0x204"/>
      <component glyphName="circumflex.case" x="-19" y="0" flags="0x4"/>
    </TTGlyph>
    <TTGlyph name="Idieresis" xMin="11" yMin="0" xMax="433" yMax="882">
      <component glyphName="I" x="0" y="0" flags="0x204"/>
      <component glyphName="dieresis.case" x="-19" y="0" flags="0x4"/>
    </TTGlyph>
    <TTGlyph name="Idotaccent" xMin="11" yMin="0" xMax="406" yMax="881">
      <component glyphName="I" x="0" y="0" flags="0x204"/>
      <component glyphName="dotaccent.case" x="-19" y="0" flags="0x4"/>
    </TTGlyph>
    <TTGlyph name="Igrave" xMin="11" yMin="0" xMax="406" yMax="942">
      <component glyphName="I" x="0" y="0" flags="0x204"/>
      <component glyphName="grave.case" x="-19" y="0" flags="0x4"/>
    </TTGlyph>
    <TTGlyph name="Imacron" xMin="11" yMin="0" xMax="441" yMax="868">
      <component glyphName="I" x="0" y="0" flags="0x204"/>
      <component glyphName="macron.case" x="-19" y="0" flags="0x4"/>
    </TTGlyph>
    <TTGlyph name="Iogonek" xMin="11" yMin="-205" xMax="406" yMax="698">
      <contour>
        <pt x="21" y="50" on="1"/>
        <pt x="120" y="50" on="1"/>
        <pt x="239" y="648" on="1"/>
        <pt x="141" y="648" on="1"/>
        <pt x="151" y="698" on="1"/>
        <pt x="406" y="698" on="1"/>
        <pt x="396" y="648" on="1"/>
        <pt x="297" y="648" on="1"/>
        <pt x="178" y="50" on="1"/>
        <pt x="276" y="50" on="1"/>
        <pt x="266" y="0" on="1"/>
        <pt x="227" y="-24" on="0"/>
        <pt x="177" y="-61" on="0"/>
        <pt x="148" y="-91" on="0"/>
        <pt x="137" y="-115" on="0"/>
        <pt x="137" y="-127" on="1"/>
        <pt x="137" y="-147" on="0"/>
        <pt x="160" y="-165" on="0"/>
        <pt x="177" y="-165" on="1"/>
        <pt x="209" y="-165" on="0"/>
        <pt x="235" y="-139" on="1"/>
        <pt x="263" y="-170" on="1"/>
        <pt x="250" y="-184" on="0"/>
        <pt x="205" y="-205" on="0"/>
        <pt x="174" y="-205" on="1"/>
        <pt x="139" y="-205" on="0"/>
        <pt x="87" y="-172" on="0"/>
        <pt x="87" y="-134" on="1"/>
        <pt x="87" y="-98" on="0"/>
        <pt x="149" y="-36" on="0"/>
        <pt x="217" y="-4" on="1"/>
        <pt x="216" y="0" on="1"/>
        <pt x="11" y="0" on="1"/>
      </contour>
    </TTGlyph>
    <TTGlyph name="Iota" xMin="11" yMin="0" xMax="406" yMax="698">
      <component glyphName="I" x="0" y="0" flags="0x204"/>
    </TTGlyph>
    <TTGlyph name="Iotadieresis" xMin="11" yMin="0" xMax="434" yMax="882">
      <component glyphName="I" x="0" y="0" flags="0x204"/>
      <component glyphName="dieresis.case" x="-18" y="0" flags="0x4"/>
    </TTGlyph>
    <TTGlyph name="Iotatonos" xMin="56" yMin="0" xMax="469" yMax="769">
      <component glyphName="I" x="63" y="0" flags="0x4"/>
      <component glyphName="tonos.case" x="-252" y="0" flags="0x4"/>
    </TTGlyph>
    <TTGlyph name="Itilde" xMin="11" yMin="0" xMax="458" yMax="891">
      <component glyphName="I" x="0" y="0" flags="0x204"/>
      <component glyphName="tilde.case" x="-19" y="0" flags="0x4"/>
    </TTGlyph>
    <TTGlyph name="J" xMin="-4" yMin="-12" xMax="476" yMax="698">
      <contour>
        <pt x="476" y="698" on="1"/>
        <pt x="373" y="183" on="1"/>
        <pt x="354" y="89" on="0"/>
        <pt x="245" y="-12" on="0"/>
        <pt x="160" y="-12" on="1"/>
        <pt x="87" y="-12" on="0"/>
        <pt x="0" y="68" on="0"/>
        <pt x="-4" y="139" on="1"/>
        <pt x="49" y="150" on="1"/>
        <pt x="53" y="99" on="0"/>
        <pt x="110" y="40" on="0"/>
        <pt x="162" y="40" on="1"/>
        <pt x="225" y="40" on="0"/>
        <pt x="302" y="118" on="0"/>
        <pt x="317" y="193" on="1"/>
        <pt x="408" y="646" on="1"/>
        <pt x="169" y="646" on="1"/>
        <pt x="179" y="698" on="1"/>
      </contour>
    </TTGlyph>
    <TTGlyph name="Jacute" xMin="-4" yMin="-12" xMax="476" yMax="943">
      <component glyphName="J" x="0" y="0" flags="0x204"/>
      <component glyphName="acute.case" x="19" y="0" flags="0x4"/>
    </TTGlyph>
    <TTGlyph name="Jcircumflex" xMin="-4" yMin="-12" xMax="482" yMax="930">
      <component glyphName="J" x="0" y="0" flags="0x204"/>
      <component glyphName="circumflex.case" x="19" y="0" flags="0x4"/>
    </TTGlyph>
    <TTGlyph name="K" xMin="45" yMin="0" xMax="653" yMax="698">
      <contour>
        <pt x="290" y="361" on="1"/>
        <pt x="149" y="230" on="1"/>
        <pt x="103" y="0" on="1"/>
        <pt x="45" y="0" on="1"/>
        <pt x="185" y="698" on="1"/>
        <pt x="243" y="698" on="1"/>
        <pt x="166" y="314" on="1"/>
        <pt x="171" y="314" on="1"/>
        <pt x="308" y="444" on="1"/>
        <pt x="578" y="698" on="1"/>
        <pt x="653" y="698" on="1"/>
        <pt x="334" y="398" on="1"/>
        <pt x="529" y="0" on="1"/>
        <pt x="466" y="0" on="1"/>
      </contour>
    </TTGlyph>
    <TTGlyph name="Kappa" xMin="45" yMin="0" xMax="653" yMax="698">
      <component glyphName="K" x="0" y="0" flags="0x204"/>
    </TTGlyph>
    <TTGlyph name="Kcommaaccent" xMin="45" yMin="-232" xMax="653" yMax="698">
      <component glyphName="K" x="0" y="0" flags="0x204"/>
      <component glyphName="uni0326" x="261" y="0" flags="0x4"/>
    </TTGlyph>
    <TTGlyph name="L" xMin="45" yMin="0" xMax="415" yMax="698">
      <contour>
        <pt x="45" y="0" on="1"/>
        <pt x="185" y="698" on="1"/>
        <pt x="243" y="698" on="1"/>
        <pt x="114" y="52" on="1"/>
        <pt x="415" y="52" on="1"/>
        <pt x="405" y="0" on="1"/>
      </contour>
    </TTGlyph>
    <TTGlyph name="Lacute" xMin="45" yMin="0" xMax="415" yMax="943">
      <component glyphName="L" x="0" y="0" flags="0x204"/>
      <component glyphName="acute.case" x="-76" y="0" flags="0x4"/>
    </TTGlyph>
    <TTGlyph name="Lambda" xMin="-21" yMin="0" xMax="530" yMax="698">
      <contour>
        <pt x="423" y="698" on="1"/>
        <pt x="530" y="0" on="1"/>
        <pt x="471" y="0" on="1"/>
        <pt x="376" y="641" on="1"/>
        <pt x="372" y="641" on="1"/>
        <pt x="41" y="0" on="1"/>
        <pt x="-21" y="0" on="1"/>
        <pt x="346" y="698" on="1"/>
      </contour>
    </TTGlyph>
    <TTGlyph name="Lcaron" xMin="45" yMin="0" xMax="415" yMax="740">
      <component glyphName="L" x="0" y="0" flags="0x204"/>
      <component glyphName="uni02BC" x="43" y="0" flags="0x4"/>
    </TTGlyph>
    <TTGlyph name="Lcommaaccent" xMin="45" yMin="-232" xMax="415" yMax="698">
      <component glyphName="L" x="0" y="0" flags="0x204"/>
      <component glyphName="uni0326" x="227" y="0" flags="0x4"/>
    </TTGlyph>
    <TTGlyph name="Ldot" xMin="45" yMin="0" xMax="415" yMax="698">
      <component glyphName="L" x="0" y="0" flags="0x204"/>
      <component glyphName="dotaccent" x="49" y="-342" flags="0x4"/>
    </TTGlyph>
    <TTGlyph name="Lslash" xMin="3" yMin="0" xMax="420" yMax="698">
      <contour>
        <pt x="409" y="0" on="1"/>
        <pt x="48" y="0" on="1"/>
        <pt x="105" y="282" on="1"/>
        <pt x="3" y="250" on="1"/>
        <pt x="11" y="301" on="1"/>
        <pt x="115" y="334" on="1"/>
        <pt x="188" y="698" on="1"/>
        <pt x="246" y="698" on="1"/>
        <pt x="177" y="354" on="1"/>
        <pt x="370" y="415" on="1"/>
        <pt x="361" y="362" on="1"/>
        <pt x="167" y="301" on="1"/>
        <pt x="117" y="52" on="1"/>
        <pt x="420" y="52" on="1"/>
      </contour>
    </TTGlyph>
    <TTGlyph name="M" xMin="45" yMin="0" xMax="774" yMax="698">
      <contour>
        <pt x="703" y="620" on="1"/>
        <pt x="698" y="620" on="1"/>
        <pt x="381" y="193" on="1"/>
        <pt x="230" y="619" on="1"/>
        <pt x="226" y="619" on="1"/>
        <pt x="102" y="0" on="1"/>
        <pt x="45" y="0" on="1"/>
        <pt x="185" y="698" on="1"/>
        <pt x="261" y="698" on="1"/>
        <pt x="398" y="303" on="1"/>
        <pt x="401" y="303" on="1"/>
        <pt x="692" y="698" on="1"/>
        <pt x="774" y="698" on="1"/>
        <pt x="634" y="0" on="1"/>
        <pt x="577" y="0" on="1"/>
      </contour>
    </TTGlyph>
    <TTGlyph name="Mu" xMin="45" yMin="0" xMax="774" yMax="698">
      <component glyphName="M" x="0" y="0" flags="0x204"/>
    </TTGlyph>
    <TTGlyph name="N" xMin="45" yMin="0" xMax="674" yMax="698">
      <contour>
        <pt x="228" y="615" on="1"/>
        <pt x="224" y="615" on="1"/>
        <pt x="101" y="0" on="1"/>
        <pt x="45" y="0" on="1"/>
        <pt x="185" y="698" on="1"/>
        <pt x="254" y="698" on="1"/>
        <pt x="491" y="83" on="1"/>
        <pt x="495" y="83" on="1"/>
        <pt x="618" y="698" on="1"/>
        <pt x="674" y="698" on="1"/>
        <pt x="534" y="0" on="1"/>
        <pt x="465" y="0" on="1"/>
      </contour>
    </TTGlyph>
    <TTGlyph name="Nacute" xMin="45" yMin="0" xMax="674" yMax="943">
      <component glyphName="N" x="0" y="0" flags="0x204"/>
      <component glyphName="acute.case" x="139" y="0" flags="0x4"/>
    </TTGlyph>
    <TTGlyph name="Ncaron" xMin="45" yMin="0" xMax="674" yMax="937">
      <component glyphName="N" x="0" y="0" flags="0x204"/>
      <component glyphName="caron.case" x="139" y="0" flags="0x4"/>
    </TTGlyph>
    <TTGlyph name="Ncommaaccent" xMin="45" yMin="-232" xMax="674" yMax="698">
      <component glyphName="N" x="0" y="0" flags="0x204"/>
      <component glyphName="uni0326" x="293" y="0" flags="0x4"/>
    </TTGlyph>
    <TTGlyph name="Ntilde" xMin="45" yMin="0" xMax="674" yMax="891">
      <component glyphName="N" x="0" y="0" flags="0x204"/>
      <component glyphName="tilde.case" x="139" y="0" flags="0x4"/>
    </TTGlyph>
    <TTGlyph name="Nu" xMin="45" yMin="0" xMax="674" yMax="698">
      <component glyphName="N" x="0" y="0" flags="0x204"/>
    </TTGlyph>
    <TTGlyph name="O" xMin="60" yMin="-12" xMax="641" yMax="710">
      <contour>
        <pt x="295" y="-12" on="1"/>
        <pt x="244" y="-12" on="0"/>
        <pt x="158" y="21" on="0"/>
        <pt x="95" y="86" on="0"/>
        <pt x="60" y="182" on="0"/>
        <pt x="60" y="244" on="1"/>
        <pt x="60" y="326" on="0"/>
        <pt x="103" y="492" on="0"/>
        <pt x="190" y="626" on="0"/>
        <pt x="320" y="710" on="0"/>
        <pt x="406" y="710" on="1"/>
        <pt x="457" y="710" on="0"/>
        <pt x="543" y="677" on="0"/>
        <pt x="606" y="612" on="0"/>
        <pt x="641" y="516" on="0"/>
        <pt x="641" y="454" on="1"/>
        <pt x="641" y="372" on="0"/>
        <pt x="598" y="206" on="0"/>
        <pt x="511" y="72" on="0"/>
        <pt x="381" y="-12" on="0"/>
      </contour>
      <contour>
        <pt x="300" y="40" on="1"/>
        <pt x="400" y="40" on="0"/>
        <pt x="533" y="180" on="0"/>
        <pt x="558" y="301" on="1"/>
        <pt x="575" y="384" on="1"/>
        <pt x="580" y="407" on="0"/>
        <pt x="583" y="451" on="0"/>
        <pt x="583" y="468" on="1"/>
        <pt x="583" y="556" on="0"/>
        <pt x="489" y="658" on="0"/>
        <pt x="401" y="658" on="1"/>
        <pt x="301" y="658" on="0"/>
        <pt x="168" y="518" on="0"/>
        <pt x="143" y="397" on="1"/>
        <pt x="126" y="314" on="1"/>
        <pt x="121" y="291" on="0"/>
        <pt x="118" y="247" on="0"/>
        <pt x="118" y="230" on="1"/>
        <pt x="118" y="142" on="0"/>
        <pt x="212" y="40" on="0"/>
      </contour>
    </TTGlyph>
    <TTGlyph name="OE" xMin="60" yMin="-12" xMax="957" yMax="710">
      <contour>
        <pt x="420" y="0" on="1"/>
        <pt x="391" y="-6" on="0"/>
        <pt x="329" y="-12" on="0"/>
        <pt x="304" y="-12" on="1"/>
        <pt x="251" y="-12" on="0"/>
        <pt x="161" y="21" on="0"/>
        <pt x="96" y="85" on="0"/>
        <pt x="60" y="180" on="0"/>
        <pt x="60" y="243" on="1"/>
        <pt x="60" y="288" on="0"/>
        <pt x="76" y="393" on="0"/>
        <pt x="111" y="497" on="0"/>
        <pt x="167" y="593" on="0"/>
        <pt x="247" y="666" on="0"/>
        <pt x="354" y="710" on="0"/>
        <pt x="422" y="710" on="1"/>
        <pt x="437" y="710" on="0"/>
        <pt x="472" y="708" on="0"/>
        <pt x="509" y="705" on="0"/>
        <pt x="545" y="701" on="0"/>
        <pt x="559" y="698" on="1"/>
        <pt x="957" y="698" on="1"/>
        <pt x="946" y="646" on="1"/>
        <pt x="607" y="646" on="1"/>
        <pt x="553" y="380" on="1"/>
        <pt x="868" y="380" on="1"/>
        <pt x="858" y="329" on="1"/>
        <pt x="543" y="329" on="1"/>
        <pt x="488" y="52" on="1"/>
        <pt x="837" y="52" on="1"/>
        <pt x="827" y="0" on="1"/>
      </contour>
      <contour>
        <pt x="315" y="40" on="1"/>
        <pt x="341" y="40" on="0"/>
        <pt x="404" y="46" on="0"/>
        <pt x="430" y="55" on="1"/>
        <pt x="548" y="646" on="1"/>
        <pt x="536" y="649" on="0"/>
        <pt x="504" y="653" on="0"/>
        <pt x="469" y="656" on="0"/>
        <pt x="434" y="658" on="0"/>
        <pt x="419" y="658" on="1"/>
        <pt x="306" y="658" on="0"/>
        <pt x="168" y="520" on="0"/>
        <pt x="144" y="403" on="1"/>
        <pt x="127" y="320" on="1"/>
        <pt x="118" y="267" on="0"/>
        <pt x="118" y="229" on="1"/>
        <pt x="118" y="140" on="0"/>
        <pt x="216" y="40" on="0"/>
      </contour>
    </TTGlyph>
    <TTGlyph name="Oacute" xMin="60" yMin="-12" xMax="641" yMax="943">
      <component glyphName="O" x="0" y="0" flags="0x204"/>
      <component glyphName="acute.case" x="117" y="0" flags="0x4"/>
    </TTGlyph>
    <TTGlyph name="Obreve" xMin="60" yMin="-12" xMax="641" yMax="916">
      <component glyphName="O" x="0" y="0" flags="0x204"/>
      <component glyphName="breve.case" x="117" y="0" flags="0x4"/>
    </TTGlyph>
    <TTGlyph name="Ocircumflex" xMin="60" yMin="-12" xMax="641" yMax="930">
      <component glyphName="O" x="0" y="0" flags="0x204"/>
      <component glyphName="circumflex.case" x="117" y="0" flags="0x4"/>
    </TTGlyph>
    <TTGlyph name="Odieresis" xMin="60" yMin="-12" xMax="641" yMax="882">
      <component glyphName="O" x="0" y="0" flags="0x204"/>
      <component glyphName="dieresis.case" x="117" y="0" flags="0x4"/>
    </TTGlyph>
    <TTGlyph name="Ograve" xMin="60" yMin="-12" xMax="641" yMax="942">
      <component glyphName="O" x="0" y="0" flags="0x204"/>
      <component glyphName="grave.case" x="117" y="0" flags="0x4"/>
    </TTGlyph>
    <TTGlyph name="Ohorn" xMin="60" yMin="-12" xMax="703" yMax="811">
      <contour>
        <pt x="703" y="811" on="1"/>
        <pt x="683" y="709" on="1"/>
        <pt x="678" y="686" on="0"/>
        <pt x="655" y="659" on="0"/>
        <pt x="627" y="659" on="1"/>
        <pt x="559" y="659" on="1"/>
        <pt x="597" y="627" on="0"/>
        <pt x="641" y="523" on="0"/>
        <pt x="641" y="454" on="1"/>
        <pt x="641" y="372" on="0"/>
        <pt x="598" y="206" on="0"/>
        <pt x="511" y="72" on="0"/>
        <pt x="381" y="-12" on="0"/>
        <pt x="295" y="-12" on="1"/>
        <pt x="244" y="-12" on="0"/>
        <pt x="158" y="21" on="0"/>
        <pt x="95" y="86" on="0"/>
        <pt x="60" y="182" on="0"/>
        <pt x="60" y="244" on="1"/>
        <pt x="60" y="326" on="0"/>
        <pt x="103" y="492" on="0"/>
        <pt x="190" y="626" on="0"/>
        <pt x="320" y="710" on="0"/>
        <pt x="406" y="710" on="1"/>
        <pt x="429" y="710" on="0"/>
        <pt x="469" y="705" on="0"/>
        <pt x="489" y="698" on="1"/>
        <pt x="631" y="698" on="1"/>
        <pt x="653" y="811" on="1"/>
      </contour>
      <contour>
        <pt x="300" y="40" on="1"/>
        <pt x="400" y="40" on="0"/>
        <pt x="533" y="180" on="0"/>
        <pt x="558" y="301" on="1"/>
        <pt x="575" y="384" on="1"/>
        <pt x="580" y="407" on="0"/>
        <pt x="583" y="451" on="0"/>
        <pt x="583" y="468" on="1"/>
        <pt x="583" y="556" on="0"/>
        <pt x="489" y="658" on="0"/>
        <pt x="401" y="658" on="1"/>
        <pt x="301" y="658" on="0"/>
        <pt x="168" y="518" on="0"/>
        <pt x="143" y="397" on="1"/>
        <pt x="126" y="314" on="1"/>
        <pt x="121" y="291" on="0"/>
        <pt x="118" y="247" on="0"/>
        <pt x="118" y="230" on="1"/>
        <pt x="118" y="142" on="0"/>
        <pt x="212" y="40" on="0"/>
      </contour>
    </TTGlyph>
    <TTGlyph name="Ohungarumlaut" xMin="60" yMin="-12" xMax="641" yMax="941">
      <component glyphName="O" x="0" y="0" flags="0x204"/>
      <component glyphName="hungarumlaut.case" x="117" y="0" flags="0x4"/>
    </TTGlyph>
    <TTGlyph name="Omacron" xMin="60" yMin="-12" xMax="641" yMax="868">
      <component glyphName="O" x="0" y="0" flags="0x204"/>
      <component glyphName="macron.case" x="117" y="0" flags="0x4"/>
    </TTGlyph>
    <TTGlyph name="Omega" xMin="0" yMin="0" xMax="641" yMax="710">
      <contour>
        <pt x="10" y="52" on="1"/>
        <pt x="173" y="52" on="1"/>
        <pt x="176" y="67" on="1"/>
        <pt x="130" y="99" on="0"/>
        <pt x="75" y="211" on="0"/>
        <pt x="75" y="291" on="1"/>
        <pt x="75" y="367" on="0"/>
        <pt x="119" y="517" on="0"/>
        <pt x="204" y="636" on="0"/>
        <pt x="330" y="710" on="0"/>
        <pt x="412" y="710" on="1"/>
        <pt x="463" y="710" on="0"/>
        <pt x="548" y="678" on="0"/>
        <pt x="608" y="615" on="0"/>
        <pt x="641" y="524" on="0"/>
        <pt x="641" y="466" on="1"/>
        <pt x="641" y="401" on="0"/>
        <pt x="615" y="277" on="0"/>
        <pt x="560" y="172" on="0"/>
        <pt x="477" y="91" on="0"/>
        <pt x="420" y="67" on="1"/>
        <pt x="416" y="52" on="1"/>
        <pt x="578" y="52" on="1"/>
        <pt x="568" y="0" on="1"/>
        <pt x="356" y="0" on="1"/>
        <pt x="373" y="87" on="1"/>
        <pt x="441" y="115" on="0"/>
        <pt x="542" y="227" on="0"/>
        <pt x="558" y="308" on="1"/>
        <pt x="576" y="399" on="1"/>
        <pt x="581" y="419" on="0"/>
        <pt x="583" y="458" on="0"/>
        <pt x="583" y="481" on="1"/>
        <pt x="583" y="562" on="0"/>
        <pt x="492" y="658" on="0"/>
        <pt x="407" y="658" on="1"/>
        <pt x="310" y="658" on="0"/>
        <pt x="176" y="530" on="0"/>
        <pt x="153" y="414" on="1"/>
        <pt x="137" y="332" on="1"/>
        <pt x="134" y="318" on="0"/>
        <pt x="133" y="285" on="0"/>
        <pt x="133" y="270" on="1"/>
        <pt x="133" y="200" on="0"/>
        <pt x="188" y="110" on="0"/>
        <pt x="230" y="87" on="1"/>
        <pt x="212" y="0" on="1"/>
        <pt x="0" y="0" on="1"/>
      </contour>
    </TTGlyph>
    <TTGlyph name="Omegatonos" xMin="23" yMin="0" xMax="664" yMax="769">
      <component glyphName="Omega" x="23" y="0" flags="0x4"/>
      <component glyphName="tonos.case" x="-252" y="0" flags="0x4"/>
    </TTGlyph>
    <TTGlyph name="Omicron" xMin="60" yMin="-12" xMax="641" yMax="710">
      <component glyphName="O" x="0" y="0" flags="0x204"/>
    </TTGlyph>
    <TTGlyph name="Omicrontonos" xMin="56" yMin="-12" xMax="667" yMax="769">
      <component glyphName="O" x="26" y="0" flags="0x4"/>
      <component glyphName="tonos.case" x="-252" y="0" flags="0x4"/>
    </TTGlyph>
    <TTGlyph name="Oslash" xMin="3" yMin="-41" xMax="698" yMax="739">
      <contour>
        <pt x="295" y="-12" on="1"/>
        <pt x="189" y="-12" on="0"/>
        <pt x="126" y="56" on="1"/>
        <pt x="40" y="-41" on="1"/>
        <pt x="3" y="-9" on="1"/>
        <pt x="96" y="97" on="1"/>
        <pt x="79" y="126" on="0"/>
        <pt x="60" y="199" on="0"/>
        <pt x="60" y="244" on="1"/>
        <pt x="60" y="326" on="0"/>
        <pt x="103" y="492" on="0"/>
        <pt x="190" y="626" on="0"/>
        <pt x="320" y="710" on="0"/>
        <pt x="406" y="710" on="1"/>
        <pt x="512" y="710" on="0"/>
        <pt x="575" y="642" on="1"/>
        <pt x="661" y="739" on="1"/>
        <pt x="698" y="707" on="1"/>
        <pt x="605" y="601" on="1"/>
        <pt x="622" y="572" on="0"/>
        <pt x="641" y="499" on="0"/>
        <pt x="641" y="454" on="1"/>
        <pt x="641" y="372" on="0"/>
        <pt x="598" y="206" on="0"/>
        <pt x="511" y="72" on="0"/>
        <pt x="381" y="-12" on="0"/>
      </contour>
      <contour>
        <pt x="126" y="314" on="1"/>
        <pt x="121" y="291" on="0"/>
        <pt x="118" y="247" on="0"/>
        <pt x="118" y="230" on="1"/>
        <pt x="118" y="180" on="0"/>
        <pt x="135" y="140" on="1"/>
        <pt x="540" y="599" on="1"/>
        <pt x="517" y="627" on="0"/>
        <pt x="447" y="658" on="0"/>
        <pt x="401" y="658" on="1"/>
        <pt x="301" y="658" on="0"/>
        <pt x="168" y="518" on="0"/>
        <pt x="143" y="397" on="1"/>
      </contour>
      <contour>
        <pt x="575" y="384" on="1"/>
        <pt x="580" y="407" on="0"/>
        <pt x="583" y="451" on="0"/>
        <pt x="583" y="468" on="1"/>
        <pt x="583" y="518" on="0"/>
        <pt x="566" y="558" on="1"/>
        <pt x="161" y="99" on="1"/>
        <pt x="184" y="71" on="0"/>
        <pt x="254" y="40" on="0"/>
        <pt x="300" y="40" on="1"/>
        <pt x="400" y="40" on="0"/>
        <pt x="533" y="180" on="0"/>
        <pt x="558" y="301" on="1"/>
      </contour>
    </TTGlyph>
    <TTGlyph name="Oslashacute" xMin="3" yMin="-41" xMax="698" yMax="943">
      <component glyphName="Oslash" x="0" y="0" flags="0x204"/>
      <component glyphName="acute.case" x="114" y="0" flags="0x4"/>
    </TTGlyph>
    <TTGlyph name="Otilde" xMin="60" yMin="-12" xMax="641" yMax="891">
      <component glyphName="O" x="0" y="0" flags="0x204"/>
      <component glyphName="tilde.case" x="117" y="0" flags="0x4"/>
    </TTGlyph>
    <TTGlyph name="P" xMin="45" yMin="0" xMax="599" yMax="698">
      <contour>
        <pt x="45" y="0" on="1"/>
        <pt x="185" y="698" on="1"/>
        <pt x="435" y="698" on="1"/>
        <pt x="519" y="698" on="0"/>
        <pt x="599" y="607" on="0"/>
        <pt x="599" y="538" on="1"/>
        <pt x="599" y="487" on="0"/>
        <pt x="568" y="403" on="0"/>
        <pt x="509" y="341" on="0"/>
        <pt x="426" y="307" on="0"/>
        <pt x="374" y="307" on="1"/>
        <pt x="165" y="307" on="1"/>
        <pt x="103" y="0" on="1"/>
      </contour>
      <contour>
        <pt x="176" y="359" on="1"/>
        <pt x="383" y="359" on="1"/>
        <pt x="443" y="359" on="0"/>
        <pt x="517" y="421" on="0"/>
        <pt x="528" y="475" on="1"/>
        <pt x="535" y="507" on="0"/>
        <pt x="539" y="536" on="0"/>
        <pt x="539" y="547" on="1"/>
        <pt x="539" y="590" on="0"/>
        <pt x="489" y="646" on="0"/>
        <pt x="430" y="646" on="1"/>
        <pt x="232" y="646" on="1"/>
      </contour>
    </TTGlyph>
    <TTGlyph name="Phi" xMin="59" yMin="-29" xMax="772" yMax="725">
      <contour>
        <pt x="322" y="33" on="1"/>
        <pt x="303" y="33" on="1"/>
        <pt x="242" y="33" on="0"/>
        <pt x="151" y="69" on="0"/>
        <pt x="90" y="134" on="0"/>
        <pt x="59" y="226" on="0"/>
        <pt x="59" y="282" on="1"/>
        <pt x="59" y="361" on="0"/>
        <pt x="109" y="504" on="0"/>
        <pt x="203" y="612" on="0"/>
        <pt x="341" y="675" on="0"/>
        <pt x="430" y="675" on="1"/>
        <pt x="451" y="675" on="1"/>
        <pt x="461" y="725" on="1"/>
        <pt x="519" y="725" on="1"/>
        <pt x="509" y="675" on="1"/>
        <pt x="528" y="675" on="1"/>
        <pt x="589" y="675" on="0"/>
        <pt x="680" y="639" on="0"/>
        <pt x="741" y="574" on="0"/>
        <pt x="772" y="482" on="0"/>
        <pt x="772" y="426" on="1"/>
        <pt x="772" y="346" on="0"/>
        <pt x="722" y="204" on="0"/>
        <pt x="628" y="96" on="0"/>
        <pt x="489" y="33" on="0"/>
        <pt x="401" y="33" on="1"/>
        <pt x="380" y="33" on="1"/>
        <pt x="368" y="-29" on="1"/>
        <pt x="310" y="-29" on="1"/>
      </contour>
      <contour>
        <pt x="443" y="625" on="1"/>
        <pt x="423" y="625" on="1"/>
        <pt x="361" y="625" on="0"/>
        <pt x="262" y="588" on="0"/>
        <pt x="189" y="524" on="0"/>
        <pt x="142" y="439" on="0"/>
        <pt x="133" y="391" on="1"/>
        <pt x="123" y="341" on="1"/>
        <pt x="119" y="321" on="0"/>
        <pt x="117" y="294" on="0"/>
        <pt x="117" y="277" on="1"/>
        <pt x="117" y="185" on="0"/>
        <pt x="212" y="83" on="0"/>
        <pt x="315" y="83" on="1"/>
        <pt x="334" y="83" on="1"/>
      </contour>
      <contour>
        <pt x="408" y="83" on="1"/>
        <pt x="470" y="83" on="0"/>
        <pt x="569" y="120" on="0"/>
        <pt x="642" y="184" on="0"/>
        <pt x="689" y="269" on="0"/>
        <pt x="698" y="317" on="1"/>
        <pt x="708" y="367" on="1"/>
        <pt x="712" y="387" on="0"/>
        <pt x="714" y="414" on="0"/>
        <pt x="714" y="431" on="1"/>
        <pt x="714" y="523" on="0"/>
        <pt x="619" y="625" on="0"/>
        <pt x="516" y="625" on="1"/>
        <pt x="497" y="625" on="1"/>
        <pt x="388" y="83" on="1"/>
      </contour>
    </TTGlyph>
    <TTGlyph name="Pi" xMin="45" yMin="0" xMax="660" yMax="698">
      <component glyphName="uni041F" x="0" y="0" flags="0x204"/>
    </TTGlyph>
    <TTGlyph name="Psi" xMin="108" yMin="0" xMax="760" yMax="698">
      <contour>
        <pt x="332" y="206" on="1"/>
        <pt x="275" y="206" on="0"/>
        <pt x="190" y="234" on="0"/>
        <pt x="135" y="284" on="0"/>
        <pt x="108" y="352" on="0"/>
        <pt x="108" y="392" on="1"/>
        <pt x="108" y="422" on="0"/>
        <pt x="115" y="485" on="0"/>
        <pt x="123" y="523" on="1"/>
        <pt x="158" y="698" on="1"/>
        <pt x="216" y="698" on="1"/>
        <pt x="179" y="512" on="1"/>
        <pt x="171" y="475" on="0"/>
        <pt x="165" y="420" on="0"/>
        <pt x="165" y="397" on="1"/>
        <pt x="165" y="327" on="0"/>
        <pt x="249" y="255" on="0"/>
        <pt x="341" y="255" on="1"/>
        <pt x="430" y="698" on="1"/>
        <pt x="488" y="698" on="1"/>
        <pt x="399" y="255" on="1"/>
        <pt x="457" y="255" on="0"/>
        <pt x="544" y="281" on="0"/>
        <pt x="607" y="339" on="0"/>
        <pt x="649" y="432" on="0"/>
        <pt x="662" y="498" on="1"/>
        <pt x="702" y="698" on="1"/>
        <pt x="760" y="698" on="1"/>
        <pt x="717" y="483" on="1"/>
        <pt x="702" y="409" on="0"/>
        <pt x="648" y="304" on="0"/>
        <pt x="567" y="237" on="0"/>
        <pt x="459" y="206" on="0"/>
        <pt x="390" y="206" on="1"/>
        <pt x="349" y="0" on="1"/>
        <pt x="291" y="0" on="1"/>
      </contour>
    </TTGlyph>
    <TTGlyph name="Q" xMin="60" yMin="-158" xMax="641" yMax="710">
      <contour>
        <pt x="235" y="-113" on="1"/>
        <pt x="235" y="-108" on="0"/>
        <pt x="237" y="-92" on="0"/>
        <pt x="239" y="-86" on="1"/>
        <pt x="256" y="-9" on="1"/>
        <pt x="213" y="-3" on="0"/>
        <pt x="141" y="35" on="0"/>
        <pt x="89" y="99" on="0"/>
        <pt x="60" y="188" on="0"/>
        <pt x="60" y="244" on="1"/>
        <pt x="60" y="326" on="0"/>
        <pt x="103" y="492" on="0"/>
        <pt x="190" y="626" on="0"/>
        <pt x="320" y="710" on="0"/>
        <pt x="406" y="710" on="1"/>
        <pt x="457" y="710" on="0"/>
        <pt x="543" y="677" on="0"/>
        <pt x="606" y="612" on="0"/>
        <pt x="641" y="516" on="0"/>
        <pt x="641" y="454" on="1"/>
        <pt x="641" y="374" on="0"/>
        <pt x="599" y="211" on="0"/>
        <pt x="517" y="79" on="0"/>
        <pt x="393" y="-7" on="0"/>
        <pt x="311" y="-11" on="1"/>
        <pt x="290" y="-105" on="1"/>
        <pt x="393" y="-105" on="1"/>
        <pt x="381" y="-158" on="1"/>
        <pt x="290" y="-158" on="1"/>
        <pt x="260" y="-158" on="0"/>
        <pt x="235" y="-133" on="0"/>
      </contour>
      <contour>
        <pt x="300" y="40" on="1"/>
        <pt x="400" y="40" on="0"/>
        <pt x="533" y="180" on="0"/>
        <pt x="558" y="301" on="1"/>
        <pt x="575" y="384" on="1"/>
        <pt x="580" y="407" on="0"/>
        <pt x="583" y="451" on="0"/>
        <pt x="583" y="468" on="1"/>
        <pt x="583" y="556" on="0"/>
        <pt x="489" y="658" on="0"/>
        <pt x="401" y="658" on="1"/>
        <pt x="301" y="658" on="0"/>
        <pt x="168" y="518" on="0"/>
        <pt x="143" y="397" on="1"/>
        <pt x="126" y="314" on="1"/>
        <pt x="121" y="291" on="0"/>
        <pt x="118" y="247" on="0"/>
        <pt x="118" y="230" on="1"/>
        <pt x="118" y="142" on="0"/>
        <pt x="212" y="40" on="0"/>
      </contour>
    </TTGlyph>
    <TTGlyph name="R" xMin="45" yMin="0" xMax="599" yMax="698">
      <contour>
        <pt x="103" y="0" on="1"/>
        <pt x="45" y="0" on="1"/>
        <pt x="185" y="698" on="1"/>
        <pt x="435" y="698" on="1"/>
        <pt x="519" y="698" on="0"/>
        <pt x="599" y="607" on="0"/>
        <pt x="599" y="538" on="1"/>
        <pt x="599" y="493" on="0"/>
        <pt x="573" y="414" on="0"/>
        <pt x="524" y="354" on="0"/>
        <pt x="451" y="316" on="0"/>
        <pt x="404" y="312" on="1"/>
        <pt x="515" y="0" on="1"/>
        <pt x="453" y="0" on="1"/>
        <pt x="346" y="309" on="1"/>
        <pt x="165" y="309" on="1"/>
      </contour>
      <contour>
        <pt x="383" y="360" on="1"/>
        <pt x="443" y="360" on="0"/>
        <pt x="517" y="421" on="0"/>
        <pt x="528" y="475" on="1"/>
        <pt x="535" y="507" on="0"/>
        <pt x="539" y="536" on="0"/>
        <pt x="539" y="547" on="1"/>
        <pt x="539" y="590" on="0"/>
        <pt x="489" y="646" on="0"/>
        <pt x="430" y="646" on="1"/>
        <pt x="232" y="646" on="1"/>
        <pt x="176" y="360" on="1"/>
      </contour>
    </TTGlyph>
    <TTGlyph name="Racute" xMin="45" yMin="0" xMax="599" yMax="943">
      <component glyphName="R" x="0" y="0" flags="0x204"/>
      <component glyphName="acute.case" x="89" y="0" flags="0x4"/>
    </TTGlyph>
    <TTGlyph name="Rcaron" xMin="45" yMin="0" xMax="599" yMax="937">
      <component glyphName="R" x="0" y="0" flags="0x204"/>
      <component glyphName="caron.case" x="89" y="0" flags="0x4"/>
    </TTGlyph>
    <TTGlyph name="Rcommaaccent" xMin="45" yMin="-232" xMax="599" yMax="698">
      <component glyphName="R" x="0" y="0" flags="0x204"/>
      <component glyphName="uni0326" x="271" y="0" flags="0x4"/>
    </TTGlyph>
    <TTGlyph name="Rho" xMin="45" yMin="0" xMax="599" yMax="698">
      <component glyphName="P" x="0" y="0" flags="0x204"/>
    </TTGlyph>
    <TTGlyph name="S" xMin="12" yMin="-12" xMax="554" yMax="710">
      <contour>
        <pt x="244" y="-12" on="1"/>
        <pt x="161" y="-12" on="0"/>
        <pt x="44" y="48" on="0"/>
        <pt x="12" y="108" on="1"/>
        <pt x="57" y="140" on="1"/>
        <pt x="87" y="89" on="0"/>
        <pt x="177" y="40" on="0"/>
        <pt x="245" y="40" on="1"/>
        <pt x="294" y="40" on="0"/>
        <pt x="366" y="67" on="0"/>
        <pt x="413" y="112" on="0"/>
        <pt x="436" y="173" on="0"/>
        <pt x="436" y="208" on="1"/>
        <pt x="436" y="256" on="0"/>
        <pt x="383" y="314" on="0"/>
        <pt x="324" y="327" on="1"/>
        <pt x="249" y="343" on="1"/>
        <pt x="106" y="375" on="0"/>
        <pt x="106" y="508" on="1"/>
        <pt x="106" y="549" on="0"/>
        <pt x="136" y="623" on="0"/>
        <pt x="194" y="678" on="0"/>
        <pt x="281" y="710" on="0"/>
        <pt x="337" y="710" on="1"/>
        <pt x="420" y="710" on="0"/>
        <pt x="523" y="654" on="0"/>
        <pt x="554" y="606" on="1"/>
        <pt x="511" y="572" on="1"/>
        <pt x="483" y="615" on="0"/>
        <pt x="400" y="658" on="0"/>
        <pt x="334" y="658" on="1"/>
        <pt x="251" y="658" on="0"/>
        <pt x="164" y="577" on="0"/>
        <pt x="164" y="511" on="1"/>
        <pt x="164" y="462" on="0"/>
        <pt x="216" y="405" on="0"/>
        <pt x="273" y="392" on="1"/>
        <pt x="347" y="376" on="1"/>
        <pt x="419" y="360" on="0"/>
        <pt x="494" y="277" on="0"/>
        <pt x="494" y="210" on="1"/>
        <pt x="494" y="164" on="0"/>
        <pt x="462" y="83" on="0"/>
        <pt x="399" y="23" on="0"/>
        <pt x="306" y="-12" on="0"/>
      </contour>
    </TTGlyph>
    <TTGlyph name="Sacute" xMin="12" yMin="-12" xMax="554" yMax="943">
      <component glyphName="S" x="0" y="0" flags="0x204"/>
      <component glyphName="acute.case" x="46" y="0" flags="0x4"/>
    </TTGlyph>
    <TTGlyph name="Scaron" xMin="12" yMin="-12" xMax="554" yMax="937">
      <component glyphName="S" x="0" y="0" flags="0x204"/>
      <component glyphName="caron.case" x="46" y="0" flags="0x4"/>
    </TTGlyph>
    <TTGlyph name="Scedilla" xMin="12" yMin="-205" xMax="554" yMax="710">
      <contour>
        <pt x="217" y="-205" on="1"/>
        <pt x="183" y="-205" on="0"/>
        <pt x="136" y="-184" on="0"/>
        <pt x="126" y="-170" on="1"/>
        <pt x="156" y="-140" on="1"/>
        <pt x="164" y="-151" on="0"/>
        <pt x="194" y="-166" on="0"/>
        <pt x="215" y="-166" on="1"/>
        <pt x="241" y="-166" on="0"/>
        <pt x="272" y="-141" on="0"/>
        <pt x="272" y="-121" on="1"/>
        <pt x="272" y="-104" on="0"/>
        <pt x="249" y="-85" on="0"/>
        <pt x="218" y="-82" on="1"/>
        <pt x="188" y="-79" on="1"/>
        <pt x="212" y="-11" on="1"/>
        <pt x="142" y="-5" on="0"/>
        <pt x="41" y="54" on="0"/>
        <pt x="12" y="108" on="1"/>
        <pt x="57" y="140" on="1"/>
        <pt x="87" y="89" on="0"/>
        <pt x="177" y="40" on="0"/>
        <pt x="245" y="40" on="1"/>
        <pt x="294" y="40" on="0"/>
        <pt x="366" y="67" on="0"/>
        <pt x="413" y="112" on="0"/>
        <pt x="436" y="173" on="0"/>
        <pt x="436" y="208" on="1"/>
        <pt x="436" y="256" on="0"/>
        <pt x="383" y="314" on="0"/>
        <pt x="324" y="327" on="1"/>
        <pt x="249" y="343" on="1"/>
        <pt x="106" y="375" on="0"/>
        <pt x="106" y="508" on="1"/>
        <pt x="106" y="549" on="0"/>
        <pt x="136" y="623" on="0"/>
        <pt x="194" y="678" on="0"/>
        <pt x="281" y="710" on="0"/>
        <pt x="337" y="710" on="1"/>
        <pt x="420" y="710" on="0"/>
        <pt x="523" y="654" on="0"/>
        <pt x="554" y="606" on="1"/>
        <pt x="511" y="572" on="1"/>
        <pt x="483" y="615" on="0"/>
        <pt x="400" y="658" on="0"/>
        <pt x="334" y="658" on="1"/>
        <pt x="251" y="658" on="0"/>
        <pt x="164" y="577" on="0"/>
        <pt x="164" y="511" on="1"/>
        <pt x="164" y="462" on="0"/>
        <pt x="216" y="405" on="0"/>
        <pt x="273" y="392" on="1"/>
        <pt x="347" y="376" on="1"/>
        <pt x="419" y="360" on="0"/>
        <pt x="494" y="277" on="0"/>
        <pt x="494" y="210" on="1"/>
        <pt x="494" y="165" on="0"/>
        <pt x="463" y="84" on="0"/>
        <pt x="401" y="24" on="0"/>
        <pt x="309" y="-11" on="0"/>
        <pt x="249" y="-12" on="1"/>
        <pt x="229" y="-66" on="1"/>
        <pt x="231" y="-68" on="1"/>
        <pt x="237" y="-67" on="0"/>
        <pt x="252" y="-65" on="0"/>
        <pt x="261" y="-65" on="1"/>
        <pt x="287" y="-65" on="0"/>
        <pt x="319" y="-91" on="0"/>
        <pt x="319" y="-120" on="1"/>
        <pt x="319" y="-157" on="0"/>
        <pt x="263" y="-205" on="0"/>
      </contour>
    </TTGlyph>
    <TTGlyph name="Scircumflex" xMin="12" yMin="-12" xMax="554" yMax="930">
      <component glyphName="S" x="0" y="0" flags="0x204"/>
      <component glyphName="circumflex.case" x="46" y="0" flags="0x4"/>
    </TTGlyph>
    <TTGlyph name="Scommaaccent" xMin="12" yMin="-232" xMax="554" yMax="710">
      <component glyphName="S" x="0" y="0" flags="0x204"/>
      <component glyphName="uni0326" x="234" y="0" flags="0x4"/>
    </TTGlyph>
    <TTGlyph name="Sigma" xMin="-4" yMin="0" xMax="572" yMax="698">
      <contour>
        <pt x="-4" y="0" on="1"/>
        <pt x="7" y="56" on="1"/>
        <pt x="312" y="354" on="1"/>
        <pt x="130" y="642" on="1"/>
        <pt x="142" y="698" on="1"/>
        <pt x="572" y="698" on="1"/>
        <pt x="562" y="646" on="1"/>
        <pt x="193" y="646" on="1"/>
        <pt x="380" y="350" on="1"/>
        <pt x="75" y="52" on="1"/>
        <pt x="453" y="52" on="1"/>
        <pt x="443" y="0" on="1"/>
      </contour>
    </TTGlyph>
    <TTGlyph name="T" xMin="98" yMin="0" xMax="621" yMax="698">
      <contour>
        <pt x="383" y="646" on="1"/>
        <pt x="254" y="0" on="1"/>
        <pt x="196" y="0" on="1"/>
        <pt x="325" y="646" on="1"/>
        <pt x="98" y="646" on="1"/>
        <pt x="108" y="698" on="1"/>
        <pt x="621" y="698" on="1"/>
        <pt x="610" y="646" on="1"/>
      </contour>
    </TTGlyph>
    <TTGlyph name="Tau" xMin="98" yMin="0" xMax="621" yMax="698">
      <component glyphName="T" x="0" y="0" flags="0x204"/>
    </TTGlyph>
    <TTGlyph name="Tbar" xMin="95" yMin="0" xMax="621" yMax="698">
      <contour>
        <pt x="323" y="347" on="1"/>
        <pt x="254" y="0" on="1"/>
        <pt x="196" y="0" on="1"/>
        <pt x="265" y="347" on="1"/>
        <pt x="95" y="347" on="1"/>
        <pt x="105" y="394" on="1"/>
        <pt x="275" y="394" on="1"/>
        <pt x="325" y="646" on="1"/>
        <pt x="98" y="646" on="1"/>
        <pt x="108" y="698" on="1"/>
        <pt x="621" y="698" on="1"/>
        <pt x="610" y="646" on="1"/>
        <pt x="383" y="646" on="1"/>
        <pt x="333" y="394" on="1"/>
        <pt x="502" y="394" on="1"/>
        <pt x="493" y="347" on="1"/>
      </contour>
    </TTGlyph>
    <TTGlyph name="Tcaron" xMin="98" yMin="0" xMax="621" yMax="937">
      <component glyphName="T" x="0" y="0" flags="0x204"/>
      <component glyphName="caron.case" x="70" y="0" flags="0x4"/>
    </TTGlyph>
    <TTGlyph name="Theta" xMin="60" yMin="-12" xMax="641" yMax="710">
      <contour>
        <pt x="295" y="-12" on="1"/>
        <pt x="244" y="-12" on="0"/>
        <pt x="158" y="21" on="0"/>
        <pt x="95" y="86" on="0"/>
        <pt x="60" y="182" on="0"/>
        <pt x="60" y="244" on="1"/>
        <pt x="60" y="326" on="0"/>
        <pt x="103" y="492" on="0"/>
        <pt x="190" y="626" on="0"/>
        <pt x="320" y="710" on="0"/>
        <pt x="406" y="710" on="1"/>
        <pt x="457" y="710" on="0"/>
        <pt x="543" y="677" on="0"/>
        <pt x="606" y="612" on="0"/>
        <pt x="641" y="516" on="0"/>
        <pt x="641" y="454" on="1"/>
        <pt x="641" y="372" on="0"/>
        <pt x="598" y="206" on="0"/>
        <pt x="511" y="72" on="0"/>
        <pt x="381" y="-12" on="0"/>
      </contour>
      <contour>
        <pt x="300" y="40" on="1"/>
        <pt x="400" y="40" on="0"/>
        <pt x="533" y="180" on="0"/>
        <pt x="558" y="301" on="1"/>
        <pt x="575" y="384" on="1"/>
        <pt x="580" y="407" on="0"/>
        <pt x="583" y="451" on="0"/>
        <pt x="583" y="468" on="1"/>
        <pt x="583" y="556" on="0"/>
        <pt x="489" y="658" on="0"/>
        <pt x="401" y="658" on="1"/>
        <pt x="301" y="658" on="0"/>
        <pt x="168" y="518" on="0"/>
        <pt x="143" y="397" on="1"/>
        <pt x="126" y="314" on="1"/>
        <pt x="121" y="291" on="0"/>
        <pt x="118" y="247" on="0"/>
        <pt x="118" y="230" on="1"/>
        <pt x="118" y="142" on="0"/>
        <pt x="212" y="40" on="0"/>
      </contour>
      <contour>
        <pt x="196" y="328" on="1"/>
        <pt x="207" y="380" on="1"/>
        <pt x="507" y="380" on="1"/>
        <pt x="496" y="328" on="1"/>
      </contour>
    </TTGlyph>
    <TTGlyph name="Thorn" xMin="44" yMin="0" xMax="569" yMax="698">
      <contour>
        <pt x="44" y="0" on="1"/>
        <pt x="185" y="698" on="1"/>
        <pt x="242" y="698" on="1"/>
        <pt x="213" y="549" on="1"/>
        <pt x="405" y="549" on="1"/>
        <pt x="447" y="549" on="0"/>
        <pt x="509" y="525" on="0"/>
        <pt x="550" y="483" on="0"/>
        <pt x="569" y="424" on="0"/>
        <pt x="569" y="390" on="1"/>
        <pt x="569" y="339" on="0"/>
        <pt x="538" y="255" on="0"/>
        <pt x="480" y="193" on="0"/>
        <pt x="397" y="159" on="0"/>
        <pt x="345" y="159" on="1"/>
        <pt x="134" y="159" on="1"/>
        <pt x="102" y="0" on="1"/>
      </contour>
      <contour>
        <pt x="145" y="210" on="1"/>
        <pt x="353" y="210" on="1"/>
        <pt x="413" y="210" on="0"/>
        <pt x="488" y="273" on="0"/>
        <pt x="499" y="327" on="1"/>
        <pt x="505" y="359" on="0"/>
        <pt x="509" y="388" on="0"/>
        <pt x="509" y="399" on="1"/>
        <pt x="509" y="441" on="0"/>
        <pt x="459" y="498" on="0"/>
        <pt x="400" y="498" on="1"/>
        <pt x="202" y="498" on="1"/>
      </contour>
    </TTGlyph>
    <TTGlyph name="U" xMin="83" yMin="-12" xMax="648" yMax="698">
      <contour>
        <pt x="237" y="698" on="1"/>
        <pt x="152" y="270" on="1"/>
        <pt x="145" y="238" on="0"/>
        <pt x="140" y="197" on="0"/>
        <pt x="140" y="178" on="1"/>
        <pt x="140" y="113" on="0"/>
        <pt x="213" y="40" on="0"/>
        <pt x="284" y="40" on="1"/>
        <pt x="332" y="40" on="0"/>
        <pt x="403" y="65" on="0"/>
        <pt x="456" y="122" on="0"/>
        <pt x="493" y="213" on="0"/>
        <pt x="506" y="279" on="1"/>
        <pt x="590" y="698" on="1"/>
        <pt x="648" y="698" on="1"/>
        <pt x="563" y="275" on="1"/>
        <pt x="547" y="195" on="0"/>
        <pt x="500" y="85" on="0"/>
        <pt x="433" y="17" on="0"/>
        <pt x="340" y="-12" on="0"/>
        <pt x="278" y="-12" on="1"/>
        <pt x="186" y="-12" on="0"/>
        <pt x="83" y="83" on="0"/>
        <pt x="83" y="173" on="1"/>
        <pt x="83" y="198" on="0"/>
        <pt x="90" y="252" on="0"/>
        <pt x="97" y="287" on="1"/>
        <pt x="179" y="698" on="1"/>
      </contour>
    </TTGlyph>
    <TTGlyph name="Uacute" xMin="83" yMin="-12" xMax="648" yMax="943">
      <component glyphName="U" x="0" y="0" flags="0x204"/>
      <component glyphName="acute.case" x="115" y="0" flags="0x4"/>
    </TTGlyph>
    <TTGlyph name="Ubreve" xMin="83" yMin="-12" xMax="648" yMax="916">
      <component glyphName="U" x="0" y="0" flags="0x204"/>
      <component glyphName="breve.case" x="115" y="0" flags="0x4"/>
    </TTGlyph>
    <TTGlyph name="Ucircumflex" xMin="83" yMin="-12" xMax="648" yMax="930">
      <component glyphName="U" x="0" y="0" flags="0x204"/>
      <component glyphName="circumflex.case" x="115" y="0" flags="0x4"/>
    </TTGlyph>
    <TTGlyph name="Udieresis" xMin="83" yMin="-12" xMax="648" yMax="882">
      <component glyphName="U" x="0" y="0" flags="0x204"/>
      <component glyphName="dieresis.case" x="115" y="0" flags="0x4"/>
    </TTGlyph>
    <TTGlyph name="Ugrave" xMin="83" yMin="-12" xMax="648" yMax="942">
      <component glyphName="U" x="0" y="0" flags="0x204"/>
      <component glyphName="grave.case" x="115" y="0" flags="0x4"/>
    </TTGlyph>
    <TTGlyph name="Uhorn" xMin="83" yMin="-12" xMax="747" yMax="810">
      <contour>
        <pt x="237" y="698" on="1"/>
        <pt x="152" y="270" on="1"/>
        <pt x="145" y="238" on="0"/>
        <pt x="140" y="197" on="0"/>
        <pt x="140" y="178" on="1"/>
        <pt x="140" y="113" on="0"/>
        <pt x="213" y="40" on="0"/>
        <pt x="284" y="40" on="1"/>
        <pt x="332" y="40" on="0"/>
        <pt x="403" y="65" on="0"/>
        <pt x="456" y="122" on="0"/>
        <pt x="493" y="213" on="0"/>
        <pt x="506" y="279" on="1"/>
        <pt x="590" y="698" on="1"/>
        <pt x="676" y="698" on="1"/>
        <pt x="698" y="810" on="1"/>
        <pt x="747" y="810" on="1"/>
        <pt x="728" y="708" on="1"/>
        <pt x="723" y="686" on="0"/>
        <pt x="700" y="659" on="0"/>
        <pt x="672" y="659" on="1"/>
        <pt x="640" y="659" on="1"/>
        <pt x="563" y="275" on="1"/>
        <pt x="547" y="195" on="0"/>
        <pt x="500" y="85" on="0"/>
        <pt x="432" y="17" on="0"/>
        <pt x="339" y="-12" on="0"/>
        <pt x="277" y="-12" on="1"/>
        <pt x="185" y="-12" on="0"/>
        <pt x="83" y="83" on="0"/>
        <pt x="83" y="173" on="1"/>
        <pt x="83" y="198" on="0"/>
        <pt x="90" y="252" on="0"/>
        <pt x="97" y="287" on="1"/>
        <pt x="179" y="698" on="1"/>
      </contour>
    </TTGlyph>
    <TTGlyph name="Uhungarumlaut" xMin="83" yMin="-12" xMax="648" yMax="941">
      <component glyphName="U" x="0" y="0" flags="0x204"/>
      <component glyphName="hungarumlaut.case" x="115" y="0" flags="0x4"/>
    </TTGlyph>
    <TTGlyph name="Umacron" xMin="83" yMin="-12" xMax="648" yMax="868">
      <component glyphName="U" x="0" y="0" flags="0x204"/>
      <component glyphName="macron.case" x="115" y="0" flags="0x4"/>
    </TTGlyph>
    <TTGlyph name="Uogonek" xMin="83" yMin="-205" xMax="648" yMax="698">
      <contour>
        <pt x="237" y="698" on="1"/>
        <pt x="152" y="270" on="1"/>
        <pt x="146" y="238" on="0"/>
        <pt x="140" y="197" on="0"/>
        <pt x="140" y="178" on="1"/>
        <pt x="140" y="113" on="0"/>
        <pt x="213" y="40" on="0"/>
        <pt x="284" y="40" on="1"/>
        <pt x="332" y="40" on="0"/>
        <pt x="404" y="65" on="0"/>
        <pt x="456" y="122" on="0"/>
        <pt x="493" y="213" on="0"/>
        <pt x="506" y="279" on="1"/>
        <pt x="590" y="698" on="1"/>
        <pt x="648" y="698" on="1"/>
        <pt x="563" y="275" on="1"/>
        <pt x="548" y="200" on="0"/>
        <pt x="508" y="104" on="0"/>
        <pt x="459" y="44" on="0"/>
        <pt x="402" y="9" on="0"/>
        <pt x="371" y="-6" on="1"/>
        <pt x="300" y="-39" on="0"/>
        <pt x="242" y="-103" on="0"/>
        <pt x="242" y="-127" on="1"/>
        <pt x="242" y="-147" on="0"/>
        <pt x="265" y="-165" on="0"/>
        <pt x="282" y="-165" on="1"/>
        <pt x="316" y="-165" on="0"/>
        <pt x="340" y="-139" on="1"/>
        <pt x="368" y="-170" on="1"/>
        <pt x="355" y="-184" on="0"/>
        <pt x="310" y="-205" on="0"/>
        <pt x="279" y="-205" on="1"/>
        <pt x="244" y="-205" on="0"/>
        <pt x="192" y="-172" on="0"/>
        <pt x="192" y="-134" on="1"/>
        <pt x="192" y="-101" on="0"/>
        <pt x="245" y="-40" on="0"/>
        <pt x="306" y="-14" on="1"/>
        <pt x="305" y="-11" on="1"/>
        <pt x="300" y="-12" on="0"/>
        <pt x="289" y="-12" on="0"/>
        <pt x="283" y="-12" on="1"/>
        <pt x="183" y="-12" on="0"/>
        <pt x="83" y="84" on="0"/>
        <pt x="83" y="173" on="1"/>
        <pt x="83" y="198" on="0"/>
        <pt x="90" y="252" on="0"/>
        <pt x="97" y="287" on="1"/>
        <pt x="179" y="698" on="1"/>
      </contour>
    </TTGlyph>
    <TTGlyph name="Upsilon" xMin="107" yMin="0" xMax="635" yMax="698">
      <component glyphName="Y" x="0" y="0" flags="0x204"/>
    </TTGlyph>
    <TTGlyph name="Upsilondieresis" xMin="107" yMin="0" xMax="635" yMax="882">
      <component glyphName="Y" x="0" y="0" flags="0x204"/>
      <component glyphName="dieresis.case" x="66" y="0" flags="0x4"/>
    </TTGlyph>
    <TTGlyph name="Upsilontonos" xMin="56" yMin="0" xMax="721" yMax="769">
      <component glyphName="Y" x="86" y="0" flags="0x4"/>
      <component glyphName="tonos.case" x="-252" y="0" flags="0x4"/>
    </TTGlyph>
    <TTGlyph name="Uring" xMin="83" yMin="-12" xMax="648" yMax="966">
      <component glyphName="U" x="0" y="0" flags="0x204"/>
      <component glyphName="ring.case" x="115" y="0" flags="0x4"/>
    </TTGlyph>
    <TTGlyph name="Utilde" xMin="83" yMin="-12" xMax="648" yMax="891">
      <component glyphName="U" x="0" y="0" flags="0x204"/>
      <component glyphName="tilde.case" x="115" y="0" flags="0x4"/>
    </TTGlyph>
    <TTGlyph name="V" xMin="113" yMin="0" xMax="648" yMax="698">
      <contour>
        <pt x="203" y="0" on="1"/>
        <pt x="113" y="698" on="1"/>
        <pt x="171" y="698" on="1"/>
        <pt x="248" y="62" on="1"/>
        <pt x="251" y="62" on="1"/>
        <pt x="586" y="698" on="1"/>
        <pt x="648" y="698" on="1"/>
        <pt x="276" y="0" on="1"/>
      </contour>
    </TTGlyph>
    <TTGlyph name="W" xMin="110" yMin="0" xMax="933" yMax="698">
      <contour>
        <pt x="143" y="0" on="1"/>
        <pt x="110" y="698" on="1"/>
        <pt x="168" y="698" on="1"/>
        <pt x="193" y="76" on="1"/>
        <pt x="196" y="76" on="1"/>
        <pt x="482" y="698" on="1"/>
        <pt x="553" y="698" on="1"/>
        <pt x="591" y="76" on="1"/>
        <pt x="594" y="76" on="1"/>
        <pt x="872" y="698" on="1"/>
        <pt x="933" y="698" on="1"/>
        <pt x="613" y="0" on="1"/>
        <pt x="545" y="0" on="1"/>
        <pt x="507" y="628" on="1"/>
        <pt x="503" y="628" on="1"/>
        <pt x="213" y="0" on="1"/>
      </contour>
    </TTGlyph>
    <TTGlyph name="Wacute" xMin="110" yMin="0" xMax="933" yMax="943">
      <component glyphName="W" x="0" y="0" flags="0x204"/>
      <component glyphName="acute.case" x="220" y="0" flags="0x4"/>
    </TTGlyph>
    <TTGlyph name="Wcircumflex" xMin="110" yMin="0" xMax="933" yMax="930">
      <component glyphName="W" x="0" y="0" flags="0x204"/>
      <component glyphName="circumflex.case" x="220" y="0" flags="0x4"/>
    </TTGlyph>
    <TTGlyph name="Wdieresis" xMin="110" yMin="0" xMax="933" yMax="882">
      <component glyphName="W" x="0" y="0" flags="0x204"/>
      <component glyphName="dieresis.case" x="220" y="0" flags="0x4"/>
    </TTGlyph>
    <TTGlyph name="Wgrave" xMin="110" yMin="0" xMax="933" yMax="942">
      <component glyphName="W" x="0" y="0" flags="0x204"/>
      <component glyphName="grave.case" x="220" y="0" flags="0x4"/>
    </TTGlyph>
    <TTGlyph name="X" xMin="-27" yMin="0" xMax="633" yMax="698">
      <contour>
        <pt x="494" y="0" on="1"/>
        <pt x="433" y="0" on="1"/>
        <pt x="299" y="306" on="1"/>
        <pt x="295" y="306" on="1"/>
        <pt x="42" y="0" on="1"/>
        <pt x="-27" y="0" on="1"/>
        <pt x="269" y="357" on="1"/>
        <pt x="119" y="698" on="1"/>
        <pt x="180" y="698" on="1"/>
        <pt x="312" y="397" on="1"/>
        <pt x="316" y="397" on="1"/>
        <pt x="565" y="698" on="1"/>
        <pt x="633" y="698" on="1"/>
        <pt x="339" y="348" on="1"/>
      </contour>
    </TTGlyph>
    <TTGlyph name="Xi" xMin="14" yMin="0" xMax="593" yMax="698">
      <contour>
        <pt x="154" y="698" on="1"/>
        <pt x="593" y="698" on="1"/>
        <pt x="582" y="646" on="1"/>
        <pt x="143" y="646" on="1"/>
      </contour>
      <contour>
        <pt x="136" y="380" on="1"/>
        <pt x="484" y="380" on="1"/>
        <pt x="473" y="329" on="1"/>
        <pt x="125" y="329" on="1"/>
      </contour>
      <contour>
        <pt x="25" y="52" on="1"/>
        <pt x="464" y="52" on="1"/>
        <pt x="453" y="0" on="1"/>
        <pt x="14" y="0" on="1"/>
      </contour>
    </TTGlyph>
    <TTGlyph name="Y" xMin="107" yMin="0" xMax="635" yMax="698">
      <contour>
        <pt x="201" y="0" on="1"/>
        <pt x="257" y="281" on="1"/>
        <pt x="107" y="698" on="1"/>
        <pt x="166" y="698" on="1"/>
        <pt x="294" y="343" on="1"/>
        <pt x="298" y="343" on="1"/>
        <pt x="568" y="698" on="1"/>
        <pt x="635" y="698" on="1"/>
        <pt x="315" y="281" on="1"/>
        <pt x="259" y="0" on="1"/>
      </contour>
    </TTGlyph>
    <TTGlyph name="Yacute" xMin="107" yMin="0" xMax="635" yMax="943">
      <component glyphName="Y" x="0" y="0" flags="0x204"/>
      <component glyphName="acute.case" x="66" y="0" flags="0x4"/>
    </TTGlyph>
    <TTGlyph name="Ycircumflex" xMin="107" yMin="0" xMax="635" yMax="930">
      <component glyphName="Y" x="0" y="0" flags="0x204"/>
      <component glyphName="circumflex.case" x="66" y="0" flags="0x4"/>
    </TTGlyph>
    <TTGlyph name="Ydieresis" xMin="107" yMin="0" xMax="635" yMax="882">
      <component glyphName="Y" x="0" y="0" flags="0x204"/>
      <component glyphName="dieresis.case" x="66" y="0" flags="0x4"/>
    </TTGlyph>
    <TTGlyph name="Ygrave" xMin="107" yMin="0" xMax="635" yMax="942">
      <component glyphName="Y" x="0" y="0" flags="0x204"/>
      <component glyphName="grave.case" x="66" y="0" flags="0x4"/>
    </TTGlyph>
    <TTGlyph name="Z" xMin="-18" yMin="0" xMax="594" yMax="698">
      <contour>
        <pt x="468" y="0" on="1"/>
        <pt x="-18" y="0" on="1"/>
        <pt x="-6" y="56" on="1"/>
        <pt x="515" y="646" on="1"/>
        <pt x="126" y="646" on="1"/>
        <pt x="137" y="698" on="1"/>
        <pt x="594" y="698" on="1"/>
        <pt x="583" y="642" on="1"/>
        <pt x="61" y="52" on="1"/>
        <pt x="479" y="52" on="1"/>
      </contour>
    </TTGlyph>
    <TTGlyph name="Zacute" xMin="-18" yMin="0" xMax="594" yMax="943">
      <component glyphName="Z" x="0" y="0" flags="0x204"/>
      <component glyphName="acute.case" x="61" y="0" flags="0x4"/>
    </TTGlyph>
    <TTGlyph name="Zcaron" xMin="-18" yMin="0" xMax="594" yMax="937">
      <component glyphName="Z" x="0" y="0" flags="0x204"/>
      <component glyphName="caron.case" x="61" y="0" flags="0x4"/>
    </TTGlyph>
    <TTGlyph name="Zdotaccent" xMin="-18" yMin="0" xMax="594" yMax="881">
      <component glyphName="Z" x="0" y="0" flags="0x204"/>
      <component glyphName="dotaccent.case" x="61" y="0" flags="0x4"/>
    </TTGlyph>
    <TTGlyph name="Zeta" xMin="-18" yMin="0" xMax="594" yMax="698">
      <component glyphName="Z" x="0" y="0" flags="0x204"/>
    </TTGlyph>
    <TTGlyph name="a" xMin="55" yMin="-12" xMax="524" yMax="524">
      <contour>
        <pt x="428" y="0" on="1"/>
        <pt x="402" y="0" on="0"/>
        <pt x="378" y="25" on="0"/>
        <pt x="378" y="45" on="1"/>
        <pt x="378" y="56" on="0"/>
        <pt x="381" y="70" on="1"/>
        <pt x="389" y="112" on="1"/>
        <pt x="386" y="112" on="1"/>
        <pt x="354" y="50" on="0"/>
        <pt x="274" y="-12" on="0"/>
        <pt x="214" y="-12" on="1"/>
        <pt x="177" y="-12" on="0"/>
        <pt x="118" y="16" on="0"/>
        <pt x="77" y="66" on="0"/>
        <pt x="55" y="137" on="0"/>
        <pt x="55" y="181" on="1"/>
        <pt x="55" y="243" on="0"/>
        <pt x="86" y="366" on="0"/>
        <pt x="149" y="463" on="0"/>
        <pt x="243" y="524" on="0"/>
        <pt x="305" y="524" on="1"/>
        <pt x="359" y="524" on="0"/>
        <pt x="436" y="473" on="0"/>
        <pt x="449" y="425" on="1"/>
        <pt x="452" y="425" on="1"/>
        <pt x="469" y="512" on="1"/>
        <pt x="524" y="512" on="1"/>
        <pt x="432" y="49" on="1"/>
        <pt x="510" y="49" on="1"/>
        <pt x="500" y="0" on="1"/>
      </contour>
      <contour>
        <pt x="227" y="38" on="1"/>
        <pt x="259" y="38" on="0"/>
        <pt x="311" y="62" on="0"/>
        <pt x="335" y="85" on="1"/>
        <pt x="362" y="109" on="0"/>
        <pt x="403" y="177" on="0"/>
        <pt x="411" y="222" on="1"/>
        <pt x="435" y="341" on="1"/>
        <pt x="440" y="365" on="0"/>
        <pt x="431" y="413" on="0"/>
        <pt x="401" y="451" on="0"/>
        <pt x="348" y="474" on="0"/>
        <pt x="310" y="474" on="1"/>
        <pt x="238" y="474" on="0"/>
        <pt x="145" y="379" on="0"/>
        <pt x="128" y="294" on="1"/>
        <pt x="116" y="234" on="1"/>
        <pt x="114" y="220" on="0"/>
        <pt x="111" y="192" on="0"/>
        <pt x="111" y="175" on="1"/>
        <pt x="111" y="146" on="0"/>
        <pt x="124" y="96" on="0"/>
        <pt x="153" y="59" on="0"/>
        <pt x="197" y="38" on="0"/>
      </contour>
    </TTGlyph>
    <TTGlyph name="a.alt01" xMin="32" yMin="-12" xMax="472" yMax="524">
      <contour>
        <pt x="178" y="-12" on="1"/>
        <pt x="110" y="-12" on="0"/>
        <pt x="32" y="53" on="0"/>
        <pt x="32" y="109" on="1"/>
        <pt x="32" y="194" on="0"/>
        <pt x="144" y="285" on="0"/>
        <pt x="260" y="285" on="1"/>
        <pt x="387" y="285" on="1"/>
        <pt x="397" y="339" on="1"/>
        <pt x="401" y="356" on="0"/>
        <pt x="401" y="376" on="1"/>
        <pt x="401" y="421" on="0"/>
        <pt x="346" y="475" on="0"/>
        <pt x="286" y="475" on="1"/>
        <pt x="230" y="475" on="0"/>
        <pt x="162" y="435" on="0"/>
        <pt x="133" y="392" on="1"/>
        <pt x="98" y="423" on="1"/>
        <pt x="126" y="468" on="0"/>
        <pt x="221" y="524" on="0"/>
        <pt x="293" y="524" on="1"/>
        <pt x="335" y="524" on="0"/>
        <pt x="397" y="502" on="0"/>
        <pt x="438" y="463" on="0"/>
        <pt x="457" y="412" on="0"/>
        <pt x="457" y="383" on="1"/>
        <pt x="457" y="360" on="0"/>
        <pt x="453" y="337" on="1"/>
        <pt x="395" y="49" on="1"/>
        <pt x="472" y="49" on="1"/>
        <pt x="463" y="0" on="1"/>
        <pt x="394" y="0" on="1"/>
        <pt x="344" y="0" on="0"/>
        <pt x="344" y="44" on="1"/>
        <pt x="344" y="48" on="0"/>
        <pt x="345" y="56" on="0"/>
        <pt x="346" y="61" on="1"/>
        <pt x="349" y="80" on="1"/>
        <pt x="345" y="80" on="1"/>
        <pt x="319" y="38" on="0"/>
        <pt x="237" y="-12" on="0"/>
      </contour>
      <contour>
        <pt x="191" y="36" on="1"/>
        <pt x="221" y="36" on="0"/>
        <pt x="278" y="52" on="0"/>
        <pt x="323" y="81" on="0"/>
        <pt x="354" y="123" on="0"/>
        <pt x="360" y="149" on="1"/>
        <pt x="378" y="244" on="1"/>
        <pt x="256" y="244" on="1"/>
        <pt x="181" y="244" on="0"/>
        <pt x="102" y="197" on="0"/>
        <pt x="94" y="155" on="1"/>
        <pt x="90" y="136" on="0"/>
        <pt x="88" y="119" on="0"/>
        <pt x="88" y="112" on="1"/>
        <pt x="88" y="76" on="0"/>
        <pt x="142" y="36" on="0"/>
      </contour>
    </TTGlyph>
    <TTGlyph name="aacute" xMin="55" yMin="-12" xMax="524" yMax="769">
      <component glyphName="a" x="0" y="0" flags="0x204"/>
      <component glyphName="acute" x="37" y="0" flags="0x4"/>
    </TTGlyph>
    <TTGlyph name="aacute.alt01" xMin="32" yMin="-12" xMax="472" yMax="769">
      <component glyphName="a.alt01" x="0" y="0" flags="0x204"/>
      <component glyphName="acute" x="2" y="0" flags="0x4"/>
    </TTGlyph>
    <TTGlyph name="abreve" xMin="55" yMin="-12" xMax="524" yMax="742">
      <component glyphName="a" x="0" y="0" flags="0x204"/>
      <component glyphName="breve" x="37" y="0" flags="0x4"/>
    </TTGlyph>
    <TTGlyph name="abreve.alt01" xMin="32" yMin="-12" xMax="472" yMax="742">
      <component glyphName="a.alt01" x="0" y="0" flags="0x204"/>
      <component glyphName="breve" x="2" y="0" flags="0x4"/>
    </TTGlyph>
    <TTGlyph name="acircumflex" xMin="55" yMin="-12" xMax="524" yMax="756">
      <component glyphName="a" x="0" y="0" flags="0x204"/>
      <component glyphName="circumflex" x="37" y="0" flags="0x4"/>
    </TTGlyph>
    <TTGlyph name="acircumflex.alt01" xMin="32" yMin="-12" xMax="472" yMax="756">
      <component glyphName="a.alt01" x="0" y="0" flags="0x204"/>
      <component glyphName="circumflex" x="2" y="0" flags="0x4"/>
    </TTGlyph>
    <TTGlyph name="acute" xMin="271" yMin="586" xMax="439" yMax="769">
      <contour>
        <pt x="306" y="586" on="1"/>
        <pt x="271" y="605" on="1"/>
        <pt x="391" y="769" on="1"/>
        <pt x="439" y="742" on="1"/>
      </contour>
    </TTGlyph>
    <TTGlyph name="acute.case" xMin="276" yMin="760" xMax="443" yMax="943">
      <contour>
        <pt x="310" y="760" on="1"/>
        <pt x="276" y="780" on="1"/>
        <pt x="395" y="943" on="1"/>
        <pt x="443" y="916" on="1"/>
      </contour>
    </TTGlyph>
    <TTGlyph name="adieresis" xMin="55" yMin="-12" xMax="524" yMax="708">
      <component glyphName="a" x="0" y="0" flags="0x204"/>
      <component glyphName="dieresis" x="37" y="0" flags="0x4"/>
    </TTGlyph>
    <TTGlyph name="adieresis.alt01" xMin="32" yMin="-12" xMax="472" yMax="708">
      <component glyphName="a.alt01" x="0" y="0" flags="0x204"/>
      <component glyphName="dieresis" x="2" y="0" flags="0x4"/>
    </TTGlyph>
    <TTGlyph name="ae" xMin="32" yMin="-12" xMax="796" yMax="524">
      <contour>
        <pt x="192" y="37" on="1"/>
        <pt x="222" y="37" on="0"/>
        <pt x="278" y="53" on="0"/>
        <pt x="324" y="83" on="0"/>
        <pt x="356" y="127" on="0"/>
        <pt x="361" y="155" on="1"/>
        <pt x="377" y="234" on="1"/>
        <pt x="246" y="229" on="1"/>
        <pt x="178" y="225" on="0"/>
        <pt x="101" y="191" on="0"/>
        <pt x="93" y="152" on="1"/>
        <pt x="89" y="134" on="0"/>
        <pt x="88" y="118" on="0"/>
        <pt x="88" y="112" on="1"/>
        <pt x="88" y="77" on="0"/>
        <pt x="141" y="37" on="0"/>
      </contour>
      <contour>
        <pt x="631" y="476" on="1"/>
        <pt x="594" y="476" on="0"/>
        <pt x="532" y="450" on="0"/>
        <pt x="483" y="402" on="0"/>
        <pt x="450" y="336" on="0"/>
        <pt x="442" y="296" on="1"/>
        <pt x="439" y="277" on="1"/>
        <pt x="533" y="279" on="0"/>
        <pt x="650" y="298" on="0"/>
        <pt x="716" y="327" on="0"/>
        <pt x="739" y="367" on="0"/>
        <pt x="739" y="390" on="1"/>
        <pt x="739" y="437" on="0"/>
        <pt x="679" y="476" on="0"/>
      </contour>
      <contour>
        <pt x="181" y="-12" on="1"/>
        <pt x="110" y="-12" on="0"/>
        <pt x="32" y="53" on="0"/>
        <pt x="32" y="115" on="1"/>
        <pt x="32" y="190" on="0"/>
        <pt x="137" y="265" on="0"/>
        <pt x="249" y="270" on="1"/>
        <pt x="386" y="276" on="1"/>
        <pt x="397" y="339" on="1"/>
        <pt x="401" y="356" on="0"/>
        <pt x="401" y="376" on="1"/>
        <pt x="401" y="420" on="0"/>
        <pt x="346" y="474" on="0"/>
        <pt x="284" y="474" on="1"/>
        <pt x="230" y="474" on="0"/>
        <pt x="162" y="433" on="0"/>
        <pt x="134" y="392" on="1"/>
        <pt x="98" y="423" on="1"/>
        <pt x="126" y="468" on="0"/>
        <pt x="221" y="524" on="0"/>
        <pt x="292" y="524" on="1"/>
        <pt x="361" y="524" on="0"/>
        <pt x="432" y="463" on="0"/>
        <pt x="441" y="415" on="1"/>
        <pt x="446" y="415" on="1"/>
        <pt x="478" y="466" on="0"/>
        <pt x="573" y="524" on="0"/>
        <pt x="634" y="524" on="1"/>
        <pt x="667" y="524" on="0"/>
        <pt x="725" y="508" on="0"/>
        <pt x="770" y="475" on="0"/>
        <pt x="796" y="426" on="0"/>
        <pt x="796" y="394" on="1"/>
        <pt x="796" y="357" on="0"/>
        <pt x="758" y="299" on="0"/>
        <pt x="672" y="258" on="0"/>
        <pt x="533" y="235" on="0"/>
        <pt x="432" y="234" on="1"/>
        <pt x="430" y="222" on="0"/>
        <pt x="427" y="194" on="0"/>
        <pt x="427" y="180" on="1"/>
        <pt x="427" y="117" on="0"/>
        <pt x="496" y="37" on="0"/>
        <pt x="563" y="37" on="1"/>
        <pt x="617" y="37" on="0"/>
        <pt x="702" y="91" on="0"/>
        <pt x="733" y="136" on="1"/>
        <pt x="771" y="106" on="1"/>
        <pt x="726" y="42" on="0"/>
        <pt x="619" y="-12" on="0"/>
        <pt x="559" y="-12" on="1"/>
        <pt x="491" y="-12" on="0"/>
        <pt x="402" y="52" on="0"/>
        <pt x="386" y="111" on="1"/>
        <pt x="380" y="111" on="1"/>
        <pt x="356" y="52" on="0"/>
        <pt x="249" y="-12" on="0"/>
      </contour>
    </TTGlyph>
    <TTGlyph name="aeacute" xMin="32" yMin="-12" xMax="796" yMax="769">
      <component glyphName="ae" x="0" y="0" flags="0x204"/>
      <component glyphName="acute" x="172" y="0" flags="0x4"/>
    </TTGlyph>
    <TTGlyph name="agrave" xMin="55" yMin="-12" xMax="524" yMax="766">
      <component glyphName="a" x="0" y="0" flags="0x204"/>
      <component glyphName="grave" x="37" y="0" flags="0x4"/>
    </TTGlyph>
    <TTGlyph name="agrave.alt01" xMin="32" yMin="-12" xMax="472" yMax="766">
      <component glyphName="a.alt01" x="0" y="0" flags="0x204"/>
      <component glyphName="grave" x="2" y="0" flags="0x4"/>
    </TTGlyph>
    <TTGlyph name="alpha" xMin="55" yMin="-12" xMax="625" yMax="524">
      <contour>
        <pt x="547" y="0" on="1"/>
        <pt x="493" y="0" on="1"/>
        <pt x="440" y="0" on="0"/>
        <pt x="441" y="53" on="1"/>
        <pt x="438" y="200" on="1"/>
        <pt x="434" y="200" on="1"/>
        <pt x="403" y="135" on="0"/>
        <pt x="348" y="52" on="0"/>
        <pt x="295" y="5" on="0"/>
        <pt x="240" y="-12" on="0"/>
        <pt x="209" y="-12" on="1"/>
        <pt x="136" y="-12" on="0"/>
        <pt x="55" y="88" on="0"/>
        <pt x="55" y="181" on="1"/>
        <pt x="55" y="246" on="0"/>
        <pt x="88" y="370" on="0"/>
        <pt x="152" y="466" on="0"/>
        <pt x="243" y="524" on="0"/>
        <pt x="302" y="524" on="1"/>
        <pt x="339" y="524" on="0"/>
        <pt x="395" y="502" on="0"/>
        <pt x="434" y="452" on="0"/>
        <pt x="455" y="371" on="0"/>
        <pt x="457" y="312" on="1"/>
        <pt x="460" y="312" on="1"/>
        <pt x="506" y="407" on="1"/>
        <pt x="563" y="512" on="1"/>
        <pt x="625" y="512" on="1"/>
        <pt x="474" y="255" on="1"/>
        <pt x="495" y="49" on="1"/>
        <pt x="556" y="49" on="1"/>
      </contour>
      <contour>
        <pt x="217" y="38" on="1"/>
        <pt x="237" y="38" on="0"/>
        <pt x="273" y="49" on="0"/>
        <pt x="311" y="81" on="0"/>
        <pt x="353" y="138" on="0"/>
        <pt x="379" y="184" on="1"/>
        <pt x="421" y="256" on="1"/>
        <pt x="411" y="329" on="1"/>
        <pt x="406" y="371" on="0"/>
        <pt x="389" y="427" on="0"/>
        <pt x="362" y="460" on="0"/>
        <pt x="326" y="474" on="0"/>
        <pt x="302" y="474" on="1"/>
        <pt x="239" y="474" on="0"/>
        <pt x="145" y="379" on="0"/>
        <pt x="128" y="294" on="1"/>
        <pt x="116" y="234" on="1"/>
        <pt x="114" y="220" on="0"/>
        <pt x="111" y="191" on="0"/>
        <pt x="111" y="175" on="1"/>
        <pt x="111" y="103" on="0"/>
        <pt x="169" y="38" on="0"/>
      </contour>
    </TTGlyph>
    <TTGlyph name="alpha.alt01" xMin="55" yMin="-12" xMax="524" yMax="524">
      <component glyphName="a" x="0" y="0" flags="0x204"/>
    </TTGlyph>
    <TTGlyph name="alphatonos" xMin="55" yMin="-12" xMax="625" yMax="769">
      <component glyphName="alpha" x="0" y="0" flags="0x204"/>
      <component glyphName="tonos" x="12" y="0" flags="0x4"/>
    </TTGlyph>
    <TTGlyph name="alphatonos.alt01" xMin="55" yMin="-12" xMax="524" yMax="769">
      <component glyphName="a" x="0" y="0" flags="0x204"/>
      <component glyphName="tonos" x="12" y="0" flags="0x4"/>
    </TTGlyph>
    <TTGlyph name="amacron" xMin="55" yMin="-12" xMax="524" yMax="694">
      <component glyphName="a" x="0" y="0" flags="0x204"/>
      <component glyphName="macron" x="37" y="0" flags="0x4"/>
    </TTGlyph>
    <TTGlyph name="amacron.alt01" xMin="32" yMin="-12" xMax="472" yMax="694">
      <component glyphName="a.alt01" x="0" y="0" flags="0x204"/>
      <component glyphName="macron" x="2" y="0" flags="0x4"/>
    </TTGlyph>
    <TTGlyph name="ampersand" xMin="42" yMin="-12" xMax="641" yMax="710">
      <contour>
        <pt x="448" y="97" on="1"/>
        <pt x="403" y="46" on="0"/>
        <pt x="287" y="-12" on="0"/>
        <pt x="220" y="-12" on="1"/>
        <pt x="135" y="-12" on="0"/>
        <pt x="42" y="72" on="0"/>
        <pt x="42" y="145" on="1"/>
        <pt x="42" y="184" on="0"/>
        <pt x="69" y="250" on="0"/>
        <pt x="120" y="306" on="0"/>
        <pt x="193" y="355" on="0"/>
        <pt x="238" y="377" on="1"/>
        <pt x="211" y="413" on="0"/>
        <pt x="183" y="482" on="0"/>
        <pt x="183" y="517" on="1"/>
        <pt x="183" y="554" on="0"/>
        <pt x="209" y="624" on="0"/>
        <pt x="259" y="678" on="0"/>
        <pt x="331" y="710" on="0"/>
        <pt x="376" y="710" on="1"/>
        <pt x="407" y="710" on="0"/>
        <pt x="460" y="693" on="0"/>
        <pt x="499" y="661" on="0"/>
        <pt x="522" y="614" on="0"/>
        <pt x="522" y="584" on="1"/>
        <pt x="522" y="546" on="0"/>
        <pt x="492" y="486" on="0"/>
        <pt x="437" y="435" on="0"/>
        <pt x="359" y="388" on="0"/>
        <pt x="311" y="364" on="1"/>
        <pt x="450" y="180" on="1"/>
        <pt x="473" y="219" on="0"/>
        <pt x="506" y="313" on="0"/>
        <pt x="517" y="361" on="1"/>
        <pt x="641" y="361" on="1"/>
        <pt x="630" y="312" on="1"/>
        <pt x="553" y="312" on="1"/>
        <pt x="540" y="265" on="0"/>
        <pt x="503" y="176" on="0"/>
        <pt x="479" y="139" on="1"/>
        <pt x="584" y="0" on="1"/>
        <pt x="521" y="0" on="1"/>
      </contour>
      <contour>
        <pt x="371" y="663" on="1"/>
        <pt x="319" y="663" on="0"/>
        <pt x="250" y="602" on="0"/>
        <pt x="241" y="555" on="1"/>
        <pt x="239" y="543" on="0"/>
        <pt x="236" y="527" on="0"/>
        <pt x="236" y="520" on="1"/>
        <pt x="236" y="496" on="0"/>
        <pt x="256" y="439" on="0"/>
        <pt x="285" y="399" on="1"/>
        <pt x="373" y="441" on="0"/>
        <pt x="467" y="519" on="0"/>
        <pt x="467" y="576" on="1"/>
        <pt x="467" y="618" on="0"/>
        <pt x="416" y="663" on="0"/>
      </contour>
      <contour>
        <pt x="264" y="341" on="1"/>
        <pt x="191" y="305" on="0"/>
        <pt x="110" y="235" on="0"/>
        <pt x="100" y="182" on="1"/>
        <pt x="97" y="165" on="0"/>
        <pt x="97" y="151" on="1"/>
        <pt x="97" y="94" on="0"/>
        <pt x="168" y="37" on="0"/>
        <pt x="231" y="37" on="1"/>
        <pt x="289" y="37" on="0"/>
        <pt x="384" y="91" on="0"/>
        <pt x="419" y="135" on="1"/>
      </contour>
    </TTGlyph>
    <TTGlyph name="anoteleia" xMin="132" yMin="410" xMax="227" yMax="511">
      <component glyphName="period" x="93" y="419" flags="0x4"/>
    </TTGlyph>
    <TTGlyph name="aogonek" xMin="55" yMin="-205" xMax="524" yMax="524">
      <contour>
        <pt x="500" y="0" on="1"/>
        <pt x="461" y="-24" on="0"/>
        <pt x="411" y="-61" on="0"/>
        <pt x="381" y="-91" on="0"/>
        <pt x="370" y="-115" on="0"/>
        <pt x="370" y="-127" on="1"/>
        <pt x="370" y="-147" on="0"/>
        <pt x="393" y="-165" on="0"/>
        <pt x="410" y="-165" on="1"/>
        <pt x="427" y="-165" on="0"/>
        <pt x="457" y="-151" on="0"/>
        <pt x="469" y="-139" on="1"/>
        <pt x="496" y="-170" on="1"/>
        <pt x="484" y="-184" on="0"/>
        <pt x="439" y="-205" on="0"/>
        <pt x="407" y="-205" on="1"/>
        <pt x="372" y="-205" on="0"/>
        <pt x="321" y="-172" on="0"/>
        <pt x="321" y="-134" on="1"/>
        <pt x="321" y="-98" on="0"/>
        <pt x="383" y="-36" on="0"/>
        <pt x="451" y="-4" on="1"/>
        <pt x="450" y="0" on="1"/>
        <pt x="428" y="0" on="1"/>
        <pt x="402" y="0" on="0"/>
        <pt x="378" y="25" on="0"/>
        <pt x="378" y="45" on="1"/>
        <pt x="378" y="55" on="0"/>
        <pt x="381" y="69" on="1"/>
        <pt x="389" y="112" on="1"/>
        <pt x="386" y="112" on="1"/>
        <pt x="354" y="50" on="0"/>
        <pt x="274" y="-12" on="0"/>
        <pt x="214" y="-12" on="1"/>
        <pt x="177" y="-12" on="0"/>
        <pt x="118" y="16" on="0"/>
        <pt x="77" y="66" on="0"/>
        <pt x="55" y="137" on="0"/>
        <pt x="55" y="181" on="1"/>
        <pt x="55" y="243" on="0"/>
        <pt x="86" y="366" on="0"/>
        <pt x="149" y="463" on="0"/>
        <pt x="243" y="524" on="0"/>
        <pt x="305" y="524" on="1"/>
        <pt x="359" y="524" on="0"/>
        <pt x="436" y="473" on="0"/>
        <pt x="449" y="425" on="1"/>
        <pt x="452" y="425" on="1"/>
        <pt x="469" y="512" on="1"/>
        <pt x="524" y="512" on="1"/>
        <pt x="432" y="49" on="1"/>
        <pt x="510" y="49" on="1"/>
      </contour>
      <contour>
        <pt x="227" y="38" on="1"/>
        <pt x="259" y="38" on="0"/>
        <pt x="311" y="62" on="0"/>
        <pt x="335" y="85" on="1"/>
        <pt x="362" y="109" on="0"/>
        <pt x="403" y="177" on="0"/>
        <pt x="411" y="222" on="1"/>
        <pt x="435" y="341" on="1"/>
        <pt x="440" y="365" on="0"/>
        <pt x="431" y="413" on="0"/>
        <pt x="401" y="451" on="0"/>
        <pt x="348" y="474" on="0"/>
        <pt x="310" y="474" on="1"/>
        <pt x="238" y="474" on="0"/>
        <pt x="145" y="379" on="0"/>
        <pt x="128" y="294" on="1"/>
        <pt x="116" y="234" on="1"/>
        <pt x="114" y="220" on="0"/>
        <pt x="111" y="192" on="0"/>
        <pt x="111" y="175" on="1"/>
        <pt x="111" y="146" on="0"/>
        <pt x="124" y="96" on="0"/>
        <pt x="153" y="59" on="0"/>
        <pt x="197" y="38" on="0"/>
      </contour>
    </TTGlyph>
    <TTGlyph name="aogonek.alt01" xMin="32" yMin="-205" xMax="472" yMax="524">
      <contour>
        <pt x="191" y="36" on="1"/>
        <pt x="221" y="36" on="0"/>
        <pt x="278" y="52" on="0"/>
        <pt x="323" y="81" on="0"/>
        <pt x="354" y="123" on="0"/>
        <pt x="360" y="149" on="1"/>
        <pt x="378" y="244" on="1"/>
        <pt x="255" y="244" on="1"/>
        <pt x="180" y="244" on="0"/>
        <pt x="102" y="197" on="0"/>
        <pt x="94" y="155" on="1"/>
        <pt x="90" y="136" on="0"/>
        <pt x="88" y="119" on="0"/>
        <pt x="88" y="112" on="1"/>
        <pt x="88" y="76" on="0"/>
        <pt x="142" y="36" on="0"/>
      </contour>
      <contour>
        <pt x="463" y="0" on="1"/>
        <pt x="424" y="-24" on="0"/>
        <pt x="374" y="-61" on="0"/>
        <pt x="344" y="-91" on="0"/>
        <pt x="333" y="-115" on="0"/>
        <pt x="333" y="-127" on="1"/>
        <pt x="333" y="-147" on="0"/>
        <pt x="356" y="-165" on="0"/>
        <pt x="373" y="-165" on="1"/>
        <pt x="390" y="-165" on="0"/>
        <pt x="420" y="-151" on="0"/>
        <pt x="432" y="-139" on="1"/>
        <pt x="459" y="-170" on="1"/>
        <pt x="447" y="-184" on="0"/>
        <pt x="402" y="-205" on="0"/>
        <pt x="370" y="-205" on="1"/>
        <pt x="335" y="-205" on="0"/>
        <pt x="284" y="-172" on="0"/>
        <pt x="284" y="-134" on="1"/>
        <pt x="284" y="-98" on="0"/>
        <pt x="346" y="-36" on="0"/>
        <pt x="414" y="-4" on="1"/>
        <pt x="413" y="0" on="1"/>
        <pt x="392" y="0" on="1"/>
        <pt x="369" y="0" on="0"/>
        <pt x="344" y="24" on="0"/>
        <pt x="344" y="44" on="1"/>
        <pt x="344" y="48" on="0"/>
        <pt x="345" y="56" on="0"/>
        <pt x="346" y="61" on="1"/>
        <pt x="349" y="80" on="1"/>
        <pt x="345" y="80" on="1"/>
        <pt x="319" y="38" on="0"/>
        <pt x="237" y="-12" on="0"/>
        <pt x="178" y="-12" on="1"/>
        <pt x="110" y="-12" on="0"/>
        <pt x="32" y="53" on="0"/>
        <pt x="32" y="109" on="1"/>
        <pt x="32" y="194" on="0"/>
        <pt x="144" y="285" on="0"/>
        <pt x="260" y="285" on="1"/>
        <pt x="387" y="285" on="1"/>
        <pt x="397" y="339" on="1"/>
        <pt x="401" y="356" on="0"/>
        <pt x="401" y="376" on="1"/>
        <pt x="401" y="421" on="0"/>
        <pt x="346" y="475" on="0"/>
        <pt x="286" y="475" on="1"/>
        <pt x="230" y="475" on="0"/>
        <pt x="162" y="435" on="0"/>
        <pt x="133" y="392" on="1"/>
        <pt x="98" y="423" on="1"/>
        <pt x="126" y="468" on="0"/>
        <pt x="221" y="524" on="0"/>
        <pt x="293" y="524" on="1"/>
        <pt x="335" y="524" on="0"/>
        <pt x="397" y="502" on="0"/>
        <pt x="438" y="463" on="0"/>
        <pt x="457" y="412" on="0"/>
        <pt x="457" y="383" on="1"/>
        <pt x="457" y="360" on="0"/>
        <pt x="453" y="337" on="1"/>
        <pt x="395" y="49" on="1"/>
        <pt x="472" y="49" on="1"/>
      </contour>
    </TTGlyph>
    <TTGlyph name="approxequal" xMin="58" yMin="151" xMax="560" yMax="460">
      <component glyphName="asciitilde" x="19" y="95" flags="0x204"/>
      <component glyphName="asciitilde" x="-21" y="-93" flags="0x4"/>
    </TTGlyph>
    <TTGlyph name="aring" xMin="55" yMin="-12" xMax="524" yMax="792">
      <component glyphName="a" x="0" y="0" flags="0x204"/>
      <component glyphName="ring" x="37" y="0" flags="0x4"/>
    </TTGlyph>
    <TTGlyph name="aring.alt01" xMin="32" yMin="-12" xMax="472" yMax="792">
      <component glyphName="a.alt01" x="0" y="0" flags="0x204"/>
      <component glyphName="ring" x="2" y="0" flags="0x4"/>
    </TTGlyph>
    <TTGlyph name="aringacute" xMin="55" yMin="-12" xMax="524" yMax="939">
      <component glyphName="a" x="0" y="0" flags="0x204"/>
      <component glyphName="ringacute" x="37" y="0" flags="0x4"/>
    </TTGlyph>
    <TTGlyph name="aringacute.alt01" xMin="32" yMin="-12" xMax="472" yMax="939">
      <component glyphName="a.alt01" x="0" y="0" flags="0x204"/>
      <component glyphName="ringacute" x="2" y="0" flags="0x4"/>
    </TTGlyph>
    <TTGlyph name="asciicircum" xMin="74" yMin="306" xMax="548" yMax="698">
      <contour>
        <pt x="504" y="306" on="1"/>
        <pt x="378" y="642" on="1"/>
        <pt x="375" y="642" on="1"/>
        <pt x="115" y="306" on="1"/>
        <pt x="74" y="331" on="1"/>
        <pt x="354" y="698" on="1"/>
        <pt x="414" y="698" on="1"/>
        <pt x="548" y="328" on="1"/>
      </contour>
    </TTGlyph>
    <TTGlyph name="asciitilde" xMin="79" yMin="244" xMax="541" yMax="365">
      <contour>
        <pt x="416" y="244" on="1"/>
        <pt x="384" y="244" on="0"/>
        <pt x="333" y="263" on="0"/>
        <pt x="299" y="282" on="1"/>
        <pt x="269" y="298" on="0"/>
        <pt x="222" y="317" on="0"/>
        <pt x="193" y="317" on="1"/>
        <pt x="167" y="317" on="0"/>
        <pt x="125" y="299" on="0"/>
        <pt x="99" y="280" on="1"/>
        <pt x="79" y="314" on="1"/>
        <pt x="106" y="338" on="0"/>
        <pt x="164" y="365" on="0"/>
        <pt x="204" y="365" on="1"/>
        <pt x="220" y="365" on="0"/>
        <pt x="248" y="360" on="0"/>
        <pt x="275" y="351" on="0"/>
        <pt x="304" y="336" on="0"/>
        <pt x="321" y="327" on="1"/>
        <pt x="351" y="311" on="0"/>
        <pt x="398" y="292" on="0"/>
        <pt x="427" y="292" on="1"/>
        <pt x="453" y="292" on="0"/>
        <pt x="495" y="310" on="0"/>
        <pt x="521" y="329" on="1"/>
        <pt x="541" y="295" on="1"/>
        <pt x="514" y="271" on="0"/>
        <pt x="456" y="244" on="0"/>
      </contour>
    </TTGlyph>
    <TTGlyph name="asterisk" xMin="99" yMin="402" xMax="452" yMax="747">
      <contour>
        <pt x="154" y="402" on="1"/>
        <pt x="116" y="434" on="1"/>
        <pt x="234" y="557" on="1"/>
        <pt x="99" y="598" on="1"/>
        <pt x="121" y="645" on="1"/>
        <pt x="252" y="593" on="1"/>
        <pt x="279" y="747" on="1"/>
        <pt x="328" y="747" on="1"/>
        <pt x="295" y="593" on="1"/>
        <pt x="443" y="644" on="1"/>
        <pt x="452" y="598" on="1"/>
        <pt x="300" y="554" on="1"/>
        <pt x="368" y="433" on="1"/>
        <pt x="327" y="405" on="1"/>
        <pt x="264" y="533" on="1"/>
      </contour>
    </TTGlyph>
    <TTGlyph name="at" xMin="65" yMin="-121" xMax="824" yMax="709">
      <contour>
        <pt x="362" y="-121" on="1"/>
        <pt x="220" y="-121" on="0"/>
        <pt x="65" y="42" on="0"/>
        <pt x="65" y="191" on="1"/>
        <pt x="65" y="213" on="0"/>
        <pt x="70" y="271" on="0"/>
        <pt x="77" y="303" on="1"/>
        <pt x="95" y="392" on="0"/>
        <pt x="175" y="541" on="0"/>
        <pt x="290" y="649" on="0"/>
        <pt x="437" y="709" on="0"/>
        <pt x="522" y="709" on="1"/>
        <pt x="590" y="709" on="0"/>
        <pt x="701" y="668" on="0"/>
        <pt x="781" y="592" on="0"/>
        <pt x="824" y="480" on="0"/>
        <pt x="824" y="410" on="1"/>
        <pt x="824" y="394" on="0"/>
        <pt x="820" y="349" on="0"/>
        <pt x="815" y="320" on="1"/>
        <pt x="805" y="268" on="0"/>
        <pt x="771" y="176" on="0"/>
        <pt x="722" y="108" on="0"/>
        <pt x="656" y="69" on="0"/>
        <pt x="614" y="69" on="1"/>
        <pt x="529" y="69" on="0"/>
        <pt x="529" y="151" on="1"/>
        <pt x="529" y="163" on="1"/>
        <pt x="525" y="163" on="1"/>
        <pt x="507" y="125" on="0"/>
        <pt x="434" y="69" on="0"/>
        <pt x="383" y="69" on="1"/>
        <pt x="325" y="69" on="0"/>
        <pt x="250" y="146" on="0"/>
        <pt x="250" y="220" on="1"/>
        <pt x="250" y="236" on="0"/>
        <pt x="254" y="274" on="0"/>
        <pt x="259" y="297" on="1"/>
        <pt x="279" y="400" on="0"/>
        <pt x="382" y="509" on="0"/>
        <pt x="460" y="509" on="1"/>
        <pt x="507" y="509" on="0"/>
        <pt x="565" y="462" on="0"/>
        <pt x="574" y="422" on="1"/>
        <pt x="578" y="422" on="1"/>
        <pt x="592" y="498" on="1"/>
        <pt x="642" y="498" on="1"/>
        <pt x="580" y="185" on="1"/>
        <pt x="578" y="177" on="0"/>
        <pt x="575" y="160" on="0"/>
        <pt x="575" y="152" on="1"/>
        <pt x="575" y="112" on="0"/>
        <pt x="621" y="112" on="1"/>
        <pt x="670" y="112" on="0"/>
        <pt x="746" y="214" on="0"/>
        <pt x="763" y="301" on="1"/>
        <pt x="772" y="350" on="1"/>
        <pt x="776" y="367" on="0"/>
        <pt x="778" y="399" on="0"/>
        <pt x="778" y="414" on="1"/>
        <pt x="778" y="472" on="0"/>
        <pt x="742" y="565" on="0"/>
        <pt x="675" y="631" on="0"/>
        <pt x="578" y="666" on="0"/>
        <pt x="518" y="666" on="1"/>
        <pt x="446" y="666" on="0"/>
        <pt x="319" y="615" on="0"/>
        <pt x="218" y="525" on="0"/>
        <pt x="147" y="399" on="0"/>
        <pt x="131" y="324" on="1"/>
        <pt x="119" y="267" on="1"/>
        <pt x="115" y="247" on="0"/>
        <pt x="112" y="208" on="0"/>
        <pt x="112" y="191" on="1"/>
        <pt x="112" y="65" on="0"/>
        <pt x="243" y="-77" on="0"/>
        <pt x="365" y="-77" on="1"/>
        <pt x="597" y="-77" on="1"/>
        <pt x="588" y="-121" on="1"/>
      </contour>
      <contour>
        <pt x="399" y="115" on="1"/>
        <pt x="424" y="115" on="0"/>
        <pt x="471" y="134" on="0"/>
        <pt x="509" y="167" on="0"/>
        <pt x="534" y="209" on="0"/>
        <pt x="539" y="233" on="1"/>
        <pt x="565" y="361" on="1"/>
        <pt x="569" y="381" on="0"/>
        <pt x="558" y="418" on="0"/>
        <pt x="531" y="446" on="0"/>
        <pt x="491" y="463" on="0"/>
        <pt x="466" y="463" on="1"/>
        <pt x="409" y="463" on="0"/>
        <pt x="332" y="388" on="0"/>
        <pt x="320" y="327" on="1"/>
        <pt x="306" y="254" on="1"/>
        <pt x="302" y="235" on="0"/>
        <pt x="302" y="214" on="1"/>
        <pt x="302" y="168" on="0"/>
        <pt x="352" y="115" on="0"/>
      </contour>
    </TTGlyph>
    <TTGlyph name="atilde" xMin="55" yMin="-12" xMax="524" yMax="717">
      <component glyphName="a" x="0" y="0" flags="0x204"/>
      <component glyphName="tilde" x="37" y="0" flags="0x4"/>
    </TTGlyph>
    <TTGlyph name="atilde.alt01" xMin="32" yMin="-12" xMax="479" yMax="717">
      <component glyphName="a.alt01" x="0" y="0" flags="0x204"/>
      <component glyphName="tilde" x="2" y="0" flags="0x4"/>
    </TTGlyph>
    <TTGlyph name="b" xMin="43" yMin="-12" xMax="512" yMax="740">
      <contour>
        <pt x="191" y="740" on="1"/>
        <pt x="246" y="740" on="1"/>
        <pt x="178" y="400" on="1"/>
        <pt x="181" y="400" on="1"/>
        <pt x="213" y="462" on="0"/>
        <pt x="293" y="524" on="0"/>
        <pt x="353" y="524" on="1"/>
        <pt x="390" y="524" on="0"/>
        <pt x="449" y="496" on="0"/>
        <pt x="490" y="446" on="0"/>
        <pt x="512" y="374" on="0"/>
        <pt x="512" y="331" on="1"/>
        <pt x="512" y="269" on="0"/>
        <pt x="481" y="146" on="0"/>
        <pt x="418" y="49" on="0"/>
        <pt x="324" y="-12" on="0"/>
        <pt x="262" y="-12" on="1"/>
        <pt x="208" y="-12" on="0"/>
        <pt x="131" y="39" on="0"/>
        <pt x="118" y="87" on="1"/>
        <pt x="115" y="87" on="1"/>
        <pt x="98" y="0" on="1"/>
        <pt x="43" y="0" on="1"/>
      </contour>
      <contour>
        <pt x="257" y="38" on="1"/>
        <pt x="329" y="38" on="0"/>
        <pt x="422" y="133" on="0"/>
        <pt x="439" y="218" on="1"/>
        <pt x="451" y="278" on="1"/>
        <pt x="453" y="292" on="0"/>
        <pt x="456" y="320" on="0"/>
        <pt x="456" y="337" on="1"/>
        <pt x="456" y="366" on="0"/>
        <pt x="443" y="416" on="0"/>
        <pt x="414" y="453" on="0"/>
        <pt x="370" y="474" on="0"/>
        <pt x="340" y="474" on="1"/>
        <pt x="308" y="474" on="0"/>
        <pt x="256" y="450" on="0"/>
        <pt x="232" y="427" on="1"/>
        <pt x="205" y="403" on="0"/>
        <pt x="164" y="335" on="0"/>
        <pt x="156" y="290" on="1"/>
        <pt x="132" y="171" on="1"/>
        <pt x="127" y="147" on="0"/>
        <pt x="136" y="99" on="0"/>
        <pt x="166" y="61" on="0"/>
        <pt x="219" y="38" on="0"/>
      </contour>
    </TTGlyph>
    <TTGlyph name="backslash" xMin="136" yMin="-151" xMax="255" yMax="740">
      <contour>
        <pt x="207" y="-151" on="1"/>
        <pt x="136" y="740" on="1"/>
        <pt x="184" y="740" on="1"/>
        <pt x="255" y="-151" on="1"/>
      </contour>
    </TTGlyph>
    <TTGlyph name="bar" xMin="36" yMin="-138" xMax="264" yMax="760">
      <contour>
        <pt x="36" y="-138" on="1"/>
        <pt x="216" y="760" on="1"/>
        <pt x="264" y="760" on="1"/>
        <pt x="84" y="-138" on="1"/>
      </contour>
    </TTGlyph>
    <TTGlyph name="beta" xMin="3" yMin="-200" xMax="529" yMax="752">
      <contour>
        <pt x="147" y="519" on="1"/>
        <pt x="157" y="572" on="0"/>
        <pt x="196" y="658" on="0"/>
        <pt x="253" y="719" on="0"/>
        <pt x="328" y="752" on="0"/>
        <pt x="375" y="752" on="1"/>
        <pt x="452" y="752" on="0"/>
        <pt x="529" y="671" on="0"/>
        <pt x="529" y="608" on="1"/>
        <pt x="529" y="564" on="0"/>
        <pt x="504" y="495" on="0"/>
        <pt x="460" y="444" on="0"/>
        <pt x="403" y="413" on="0"/>
        <pt x="371" y="407" on="1"/>
        <pt x="371" y="403" on="1"/>
        <pt x="431" y="392" on="0"/>
        <pt x="493" y="310" on="0"/>
        <pt x="493" y="241" on="1"/>
        <pt x="493" y="184" on="0"/>
        <pt x="459" y="91" on="0"/>
        <pt x="398" y="25" on="0"/>
        <pt x="313" y="-12" on="0"/>
        <pt x="263" y="-12" on="1"/>
        <pt x="209" y="-12" on="0"/>
        <pt x="132" y="40" on="0"/>
        <pt x="120" y="88" on="1"/>
        <pt x="116" y="88" on="1"/>
        <pt x="58" y="-200" on="1"/>
        <pt x="3" y="-200" on="1"/>
      </contour>
      <contour>
        <pt x="259" y="428" on="1"/>
        <pt x="313" y="428" on="1"/>
        <pt x="382" y="428" on="0"/>
        <pt x="452" y="498" on="0"/>
        <pt x="465" y="551" on="1"/>
        <pt x="469" y="565" on="0"/>
        <pt x="473" y="596" on="0"/>
        <pt x="473" y="608" on="1"/>
        <pt x="473" y="651" on="0"/>
        <pt x="424" y="702" on="0"/>
        <pt x="368" y="702" on="1"/>
        <pt x="312" y="702" on="0"/>
        <pt x="223" y="620" on="0"/>
        <pt x="203" y="525" on="1"/>
        <pt x="132" y="171" on="1"/>
        <pt x="127" y="147" on="0"/>
        <pt x="136" y="99" on="0"/>
        <pt x="167" y="61" on="0"/>
        <pt x="219" y="38" on="0"/>
        <pt x="258" y="38" on="1"/>
        <pt x="329" y="38" on="0"/>
        <pt x="419" y="119" on="0"/>
        <pt x="432" y="193" on="1"/>
        <pt x="434" y="208" on="0"/>
        <pt x="437" y="237" on="0"/>
        <pt x="437" y="253" on="1"/>
        <pt x="437" y="313" on="0"/>
        <pt x="371" y="380" on="0"/>
        <pt x="304" y="380" on="1"/>
        <pt x="249" y="380" on="1"/>
      </contour>
    </TTGlyph>
    <TTGlyph name="braceleft" xMin="30" yMin="-138" xMax="363" yMax="760">
      <contour>
        <pt x="98" y="-138" on="1"/>
        <pt x="74" y="-138" on="0"/>
        <pt x="49" y="-113" on="0"/>
        <pt x="49" y="-93" on="1"/>
        <pt x="49" y="-87" on="0"/>
        <pt x="53" y="-67" on="1"/>
        <pt x="104" y="189" on="1"/>
        <pt x="107" y="204" on="0"/>
        <pt x="107" y="215" on="1"/>
        <pt x="107" y="249" on="0"/>
        <pt x="65" y="278" on="0"/>
        <pt x="30" y="278" on="1"/>
        <pt x="43" y="344" on="1"/>
        <pt x="93" y="344" on="0"/>
        <pt x="145" y="391" on="0"/>
        <pt x="153" y="433" on="1"/>
        <pt x="206" y="699" on="1"/>
        <pt x="218" y="760" on="0"/>
        <pt x="271" y="760" on="1"/>
        <pt x="363" y="760" on="1"/>
        <pt x="355" y="715" on="1"/>
        <pt x="259" y="715" on="1"/>
        <pt x="204" y="436" on="1"/>
        <pt x="194" y="389" on="0"/>
        <pt x="139" y="321" on="0"/>
        <pt x="85" y="317" on="1"/>
        <pt x="82" y="301" on="1"/>
        <pt x="118" y="297" on="0"/>
        <pt x="158" y="255" on="0"/>
        <pt x="158" y="218" on="1"/>
        <pt x="158" y="210" on="0"/>
        <pt x="156" y="194" on="0"/>
        <pt x="154" y="186" on="1"/>
        <pt x="98" y="-93" on="1"/>
        <pt x="195" y="-93" on="1"/>
        <pt x="184" y="-138" on="1"/>
      </contour>
    </TTGlyph>
    <TTGlyph name="braceright" xMin="-17" yMin="-138" xMax="316" yMax="760">
      <contour>
        <pt x="-9" y="-93" on="1"/>
        <pt x="87" y="-93" on="1"/>
        <pt x="142" y="186" on="1"/>
        <pt x="151" y="233" on="0"/>
        <pt x="206" y="300" on="0"/>
        <pt x="260" y="304" on="1"/>
        <pt x="264" y="320" on="1"/>
        <pt x="228" y="324" on="0"/>
        <pt x="188" y="367" on="0"/>
        <pt x="188" y="404" on="1"/>
        <pt x="188" y="412" on="0"/>
        <pt x="190" y="428" on="0"/>
        <pt x="192" y="436" on="1"/>
        <pt x="248" y="715" on="1"/>
        <pt x="151" y="715" on="1"/>
        <pt x="161" y="760" on="1"/>
        <pt x="248" y="760" on="1"/>
        <pt x="272" y="760" on="0"/>
        <pt x="296" y="735" on="0"/>
        <pt x="296" y="715" on="1"/>
        <pt x="296" y="711" on="0"/>
        <pt x="295" y="700" on="0"/>
        <pt x="293" y="689" on="1"/>
        <pt x="241" y="433" on="1"/>
        <pt x="238" y="418" on="0"/>
        <pt x="238" y="407" on="1"/>
        <pt x="238" y="373" on="0"/>
        <pt x="281" y="344" on="0"/>
        <pt x="316" y="344" on="1"/>
        <pt x="302" y="278" on="1"/>
        <pt x="253" y="278" on="0"/>
        <pt x="201" y="231" on="0"/>
        <pt x="193" y="189" on="1"/>
        <pt x="139" y="-77" on="1"/>
        <pt x="127" y="-138" on="0"/>
        <pt x="75" y="-138" on="1"/>
        <pt x="-17" y="-138" on="1"/>
      </contour>
    </TTGlyph>
    <TTGlyph name="bracketleft" xMin="20" yMin="-138" xMax="345" yMax="760">
      <contour>
        <pt x="20" y="-138" on="1"/>
        <pt x="200" y="760" on="1"/>
        <pt x="345" y="760" on="1"/>
        <pt x="336" y="716" on="1"/>
        <pt x="241" y="716" on="1"/>
        <pt x="79" y="-94" on="1"/>
        <pt x="173" y="-94" on="1"/>
        <pt x="165" y="-138" on="1"/>
      </contour>
    </TTGlyph>
    <TTGlyph name="bracketright" xMin="-12" yMin="-138" xMax="314" yMax="760">
      <contour>
        <pt x="314" y="760" on="1"/>
        <pt x="134" y="-138" on="1"/>
        <pt x="-12" y="-138" on="1"/>
        <pt x="-2" y="-94" on="1"/>
        <pt x="93" y="-94" on="1"/>
        <pt x="255" y="716" on="1"/>
        <pt x="160" y="716" on="1"/>
        <pt x="169" y="760" on="1"/>
      </contour>
    </TTGlyph>
    <TTGlyph name="breve" xMin="184" yMin="600" xMax="469" yMax="742">
      <contour>
        <pt x="309" y="600" on="1"/>
        <pt x="277" y="600" on="0"/>
        <pt x="234" y="622" on="0"/>
        <pt x="206" y="658" on="0"/>
        <pt x="190" y="704" on="0"/>
        <pt x="184" y="727" on="1"/>
        <pt x="219" y="742" on="1"/>
        <pt x="231" y="714" on="1"/>
        <pt x="246" y="679" on="0"/>
        <pt x="281" y="645" on="0"/>
        <pt x="310" y="645" on="1"/>
        <pt x="340" y="645" on="0"/>
        <pt x="384" y="676" on="0"/>
        <pt x="413" y="715" on="1"/>
        <pt x="433" y="742" on="1"/>
        <pt x="469" y="727" on="1"/>
        <pt x="456" y="704" on="0"/>
        <pt x="428" y="659" on="0"/>
        <pt x="390" y="623" on="0"/>
        <pt x="342" y="600" on="0"/>
      </contour>
    </TTGlyph>
    <TTGlyph name="breve.case" xMin="188" yMin="774" xMax="473" yMax="916">
      <contour>
        <pt x="313" y="774" on="1"/>
        <pt x="281" y="774" on="0"/>
        <pt x="238" y="796" on="0"/>
        <pt x="210" y="832" on="0"/>
        <pt x="194" y="878" on="0"/>
        <pt x="188" y="901" on="1"/>
        <pt x="223" y="916" on="1"/>
        <pt x="235" y="888" on="1"/>
        <pt x="250" y="853" on="0"/>
        <pt x="285" y="818" on="0"/>
        <pt x="314" y="818" on="1"/>
        <pt x="344" y="818" on="0"/>
        <pt x="388" y="850" on="0"/>
        <pt x="417" y="889" on="1"/>
        <pt x="437" y="916" on="1"/>
        <pt x="473" y="901" on="1"/>
        <pt x="460" y="878" on="0"/>
        <pt x="432" y="833" on="0"/>
        <pt x="394" y="797" on="0"/>
        <pt x="346" y="774" on="0"/>
      </contour>
    </TTGlyph>
    <TTGlyph name="breve.cyrl" xMin="192" yMin="600" xMax="473" yMax="737">
      <contour>
        <pt x="314" y="600" on="1"/>
        <pt x="271" y="600" on="0"/>
        <pt x="221" y="636" on="0"/>
        <pt x="207" y="674" on="1"/>
        <pt x="192" y="717" on="1"/>
        <pt x="239" y="737" on="1"/>
        <pt x="261" y="661" on="1"/>
        <pt x="282" y="643" on="0"/>
        <pt x="319" y="643" on="1"/>
        <pt x="336" y="643" on="0"/>
        <pt x="366" y="651" on="0"/>
        <pt x="380" y="661" on="1"/>
        <pt x="430" y="737" on="1"/>
        <pt x="473" y="713" on="1"/>
        <pt x="444" y="674" on="1"/>
        <pt x="415" y="636" on="0"/>
        <pt x="355" y="600" on="0"/>
      </contour>
    </TTGlyph>
    <TTGlyph name="breve.cyrl_case" xMin="195" yMin="774" xMax="476" yMax="911">
      <contour>
        <pt x="317" y="774" on="1"/>
        <pt x="274" y="774" on="0"/>
        <pt x="224" y="810" on="0"/>
        <pt x="210" y="848" on="1"/>
        <pt x="195" y="891" on="1"/>
        <pt x="242" y="911" on="1"/>
        <pt x="264" y="835" on="1"/>
        <pt x="285" y="817" on="0"/>
        <pt x="322" y="817" on="1"/>
        <pt x="339" y="817" on="0"/>
        <pt x="369" y="825" on="0"/>
        <pt x="383" y="835" on="1"/>
        <pt x="433" y="911" on="1"/>
        <pt x="476" y="887" on="1"/>
        <pt x="447" y="848" on="1"/>
        <pt x="418" y="810" on="0"/>
        <pt x="358" y="774" on="0"/>
      </contour>
    </TTGlyph>
    <TTGlyph name="breveacute" xMin="-112" yMin="589" xMax="173" yMax="880">
      <contour>
        <pt x="13" y="589" on="1"/>
        <pt x="-19" y="589" on="0"/>
        <pt x="-62" y="611" on="0"/>
        <pt x="-91" y="646" on="0"/>
        <pt x="-107" y="690" on="0"/>
        <pt x="-112" y="712" on="1"/>
        <pt x="-77" y="727" on="1"/>
        <pt x="-67" y="700" on="1"/>
        <pt x="-53" y="665" on="0"/>
        <pt x="-16" y="631" on="0"/>
        <pt x="14" y="631" on="1"/>
        <pt x="44" y="631" on="0"/>
        <pt x="92" y="659" on="0"/>
        <pt x="118" y="698" on="1"/>
        <pt x="137" y="727" on="1"/>
        <pt x="173" y="712" on="1"/>
        <pt x="161" y="689" on="0"/>
        <pt x="132" y="645" on="0"/>
        <pt x="94" y="611" on="0"/>
        <pt x="45" y="589" on="0"/>
      </contour>
      <contour>
        <pt x="27" y="697" on="1"/>
        <pt x="-8" y="717" on="1"/>
        <pt x="112" y="880" on="1"/>
        <pt x="159" y="853" on="1"/>
      </contour>
    </TTGlyph>
    <TTGlyph name="breveacute.case" xMin="-107" yMin="764" xMax="177" yMax="1055">
      <contour>
        <pt x="17" y="764" on="1"/>
        <pt x="-15" y="764" on="0"/>
        <pt x="-58" y="786" on="0"/>
        <pt x="-86" y="821" on="0"/>
        <pt x="-102" y="865" on="0"/>
        <pt x="-107" y="888" on="1"/>
        <pt x="-73" y="903" on="1"/>
        <pt x="-62" y="876" on="1"/>
        <pt x="-48" y="840" on="0"/>
        <pt x="-12" y="807" on="0"/>
        <pt x="19" y="807" on="1"/>
        <pt x="49" y="807" on="0"/>
        <pt x="96" y="834" on="0"/>
        <pt x="122" y="874" on="1"/>
        <pt x="141" y="903" on="1"/>
        <pt x="177" y="888" on="1"/>
        <pt x="165" y="865" on="0"/>
        <pt x="136" y="821" on="0"/>
        <pt x="98" y="786" on="0"/>
        <pt x="50" y="764" on="0"/>
      </contour>
      <contour>
        <pt x="31" y="873" on="1"/>
        <pt x="-3" y="892" on="1"/>
        <pt x="116" y="1055" on="1"/>
        <pt x="164" y="1029" on="1"/>
      </contour>
    </TTGlyph>
    <TTGlyph name="brevegrave" xMin="-112" yMin="589" xMax="173" yMax="879">
      <contour>
        <pt x="13" y="589" on="1"/>
        <pt x="-19" y="589" on="0"/>
        <pt x="-62" y="611" on="0"/>
        <pt x="-91" y="646" on="0"/>
        <pt x="-107" y="690" on="0"/>
        <pt x="-112" y="712" on="1"/>
        <pt x="-77" y="727" on="1"/>
        <pt x="-67" y="700" on="1"/>
        <pt x="-53" y="665" on="0"/>
        <pt x="-16" y="631" on="0"/>
        <pt x="14" y="631" on="1"/>
        <pt x="44" y="631" on="0"/>
        <pt x="92" y="659" on="0"/>
        <pt x="118" y="698" on="1"/>
        <pt x="137" y="727" on="1"/>
        <pt x="173" y="712" on="1"/>
        <pt x="161" y="689" on="0"/>
        <pt x="132" y="645" on="0"/>
        <pt x="94" y="611" on="0"/>
        <pt x="45" y="589" on="0"/>
      </contour>
      <contour>
        <pt x="-66" y="856" on="1"/>
        <pt x="-16" y="879" on="1"/>
        <pt x="52" y="715" on="1"/>
        <pt x="18" y="699" on="1"/>
      </contour>
    </TTGlyph>
    <TTGlyph name="brevegrave.case" xMin="-107" yMin="764" xMax="177" yMax="1054">
      <contour>
        <pt x="17" y="764" on="1"/>
        <pt x="-15" y="764" on="0"/>
        <pt x="-58" y="786" on="0"/>
        <pt x="-86" y="821" on="0"/>
        <pt x="-102" y="865" on="0"/>
        <pt x="-107" y="888" on="1"/>
        <pt x="-73" y="903" on="1"/>
        <pt x="-62" y="876" on="1"/>
        <pt x="-48" y="840" on="0"/>
        <pt x="-12" y="807" on="0"/>
        <pt x="19" y="807" on="1"/>
        <pt x="49" y="807" on="0"/>
        <pt x="96" y="834" on="0"/>
        <pt x="122" y="874" on="1"/>
        <pt x="141" y="903" on="1"/>
        <pt x="177" y="888" on="1"/>
        <pt x="165" y="865" on="0"/>
        <pt x="136" y="821" on="0"/>
        <pt x="98" y="786" on="0"/>
        <pt x="50" y="764" on="0"/>
      </contour>
      <contour>
        <pt x="-63" y="1031" on="1"/>
        <pt x="-13" y="1054" on="1"/>
        <pt x="56" y="890" on="1"/>
        <pt x="21" y="874" on="1"/>
      </contour>
    </TTGlyph>
    <TTGlyph name="brevehook" xMin="-112" yMin="589" xMax="173" yMax="867">
      <contour>
        <pt x="13" y="589" on="1"/>
        <pt x="-19" y="589" on="0"/>
        <pt x="-62" y="611" on="0"/>
        <pt x="-91" y="646" on="0"/>
        <pt x="-107" y="690" on="0"/>
        <pt x="-112" y="712" on="1"/>
        <pt x="-77" y="727" on="1"/>
        <pt x="-67" y="700" on="1"/>
        <pt x="-53" y="665" on="0"/>
        <pt x="-16" y="631" on="0"/>
        <pt x="14" y="631" on="1"/>
        <pt x="44" y="631" on="0"/>
        <pt x="92" y="659" on="0"/>
        <pt x="118" y="698" on="1"/>
        <pt x="137" y="727" on="1"/>
        <pt x="173" y="712" on="1"/>
        <pt x="161" y="689" on="0"/>
        <pt x="132" y="645" on="0"/>
        <pt x="94" y="611" on="0"/>
        <pt x="45" y="589" on="0"/>
      </contour>
      <contour>
        <pt x="-40" y="867" on="1"/>
        <pt x="77" y="867" on="1"/>
        <pt x="105" y="867" on="0"/>
        <pt x="125" y="845" on="0"/>
        <pt x="125" y="831" on="1"/>
        <pt x="125" y="814" on="0"/>
        <pt x="99" y="775" on="0"/>
        <pt x="73" y="745" on="1"/>
        <pt x="29" y="693" on="1"/>
        <pt x="-2" y="711" on="1"/>
        <pt x="80" y="825" on="1"/>
        <pt x="-46" y="825" on="1"/>
      </contour>
    </TTGlyph>
    <TTGlyph name="brevehook.case" xMin="-107" yMin="764" xMax="177" yMax="1041">
      <contour>
        <pt x="-33" y="1041" on="1"/>
        <pt x="84" y="1041" on="1"/>
        <pt x="112" y="1041" on="0"/>
        <pt x="131" y="1019" on="0"/>
        <pt x="131" y="1005" on="1"/>
        <pt x="131" y="988" on="0"/>
        <pt x="105" y="949" on="0"/>
        <pt x="79" y="919" on="1"/>
        <pt x="35" y="867" on="1"/>
        <pt x="4" y="885" on="1"/>
        <pt x="86" y="999" on="1"/>
        <pt x="-39" y="999" on="1"/>
      </contour>
      <contour>
        <pt x="17" y="764" on="1"/>
        <pt x="-15" y="764" on="0"/>
        <pt x="-58" y="786" on="0"/>
        <pt x="-86" y="821" on="0"/>
        <pt x="-102" y="865" on="0"/>
        <pt x="-107" y="888" on="1"/>
        <pt x="-73" y="903" on="1"/>
        <pt x="-62" y="876" on="1"/>
        <pt x="-48" y="840" on="0"/>
        <pt x="-12" y="807" on="0"/>
        <pt x="19" y="807" on="1"/>
        <pt x="49" y="807" on="0"/>
        <pt x="96" y="834" on="0"/>
        <pt x="122" y="874" on="1"/>
        <pt x="141" y="903" on="1"/>
        <pt x="177" y="888" on="1"/>
        <pt x="165" y="865" on="0"/>
        <pt x="136" y="821" on="0"/>
        <pt x="98" y="786" on="0"/>
        <pt x="50" y="764" on="0"/>
      </contour>
    </TTGlyph>
    <TTGlyph name="brevetilde" xMin="-113" yMin="589" xMax="203" yMax="867">
      <contour>
        <pt x="13" y="589" on="1"/>
        <pt x="-19" y="589" on="0"/>
        <pt x="-62" y="611" on="0"/>
        <pt x="-91" y="646" on="0"/>
        <pt x="-107" y="690" on="0"/>
        <pt x="-112" y="712" on="1"/>
        <pt x="-77" y="727" on="1"/>
        <pt x="-67" y="700" on="1"/>
        <pt x="-53" y="665" on="0"/>
        <pt x="-16" y="631" on="0"/>
        <pt x="14" y="631" on="1"/>
        <pt x="44" y="631" on="0"/>
        <pt x="92" y="659" on="0"/>
        <pt x="118" y="698" on="1"/>
        <pt x="137" y="727" on="1"/>
        <pt x="173" y="712" on="1"/>
        <pt x="161" y="689" on="0"/>
        <pt x="132" y="645" on="0"/>
        <pt x="94" y="611" on="0"/>
        <pt x="45" y="589" on="0"/>
      </contour>
      <contour>
        <pt x="110" y="769" on="1"/>
        <pt x="87" y="769" on="0"/>
        <pt x="54" y="785" on="0"/>
        <pt x="36" y="797" on="1"/>
        <pt x="16" y="811" on="0"/>
        <pt x="-14" y="821" on="0"/>
        <pt x="-28" y="821" on="1"/>
        <pt x="-45" y="821" on="0"/>
        <pt x="-75" y="806" on="0"/>
        <pt x="-92" y="792" on="1"/>
        <pt x="-113" y="819" on="1"/>
        <pt x="-94" y="840" on="0"/>
        <pt x="-49" y="867" on="0"/>
        <pt x="-20" y="867" on="1"/>
        <pt x="3" y="867" on="0"/>
        <pt x="36" y="851" on="0"/>
        <pt x="54" y="839" on="1"/>
        <pt x="74" y="825" on="0"/>
        <pt x="104" y="815" on="0"/>
        <pt x="118" y="815" on="1"/>
        <pt x="135" y="815" on="0"/>
        <pt x="165" y="830" on="0"/>
        <pt x="182" y="844" on="1"/>
        <pt x="203" y="817" on="1"/>
        <pt x="184" y="796" on="0"/>
        <pt x="139" y="769" on="0"/>
      </contour>
    </TTGlyph>
    <TTGlyph name="brevetilde.case" xMin="-109" yMin="763" xMax="207" yMax="1041">
      <contour>
        <pt x="114" y="943" on="1"/>
        <pt x="91" y="943" on="0"/>
        <pt x="58" y="959" on="0"/>
        <pt x="40" y="971" on="1"/>
        <pt x="20" y="985" on="0"/>
        <pt x="-10" y="995" on="0"/>
        <pt x="-24" y="995" on="1"/>
        <pt x="-41" y="995" on="0"/>
        <pt x="-71" y="980" on="0"/>
        <pt x="-88" y="966" on="1"/>
        <pt x="-109" y="993" on="1"/>
        <pt x="-90" y="1014" on="0"/>
        <pt x="-45" y="1041" on="0"/>
        <pt x="-16" y="1041" on="1"/>
        <pt x="7" y="1041" on="0"/>
        <pt x="40" y="1025" on="0"/>
        <pt x="58" y="1013" on="1"/>
        <pt x="78" y="999" on="0"/>
        <pt x="108" y="989" on="0"/>
        <pt x="122" y="989" on="1"/>
        <pt x="139" y="989" on="0"/>
        <pt x="169" y="1004" on="0"/>
        <pt x="186" y="1018" on="1"/>
        <pt x="207" y="991" on="1"/>
        <pt x="188" y="970" on="0"/>
        <pt x="143" y="943" on="0"/>
      </contour>
      <contour>
        <pt x="17" y="763" on="1"/>
        <pt x="-15" y="763" on="0"/>
        <pt x="-58" y="785" on="0"/>
        <pt x="-87" y="820" on="0"/>
        <pt x="-103" y="864" on="0"/>
        <pt x="-108" y="886" on="1"/>
        <pt x="-73" y="901" on="1"/>
        <pt x="-63" y="874" on="1"/>
        <pt x="-49" y="839" on="0"/>
        <pt x="-12" y="805" on="0"/>
        <pt x="18" y="805" on="1"/>
        <pt x="48" y="805" on="0"/>
        <pt x="96" y="833" on="0"/>
        <pt x="122" y="872" on="1"/>
        <pt x="141" y="901" on="1"/>
        <pt x="177" y="886" on="1"/>
        <pt x="165" y="863" on="0"/>
        <pt x="136" y="819" on="0"/>
        <pt x="98" y="785" on="0"/>
        <pt x="49" y="763" on="0"/>
      </contour>
    </TTGlyph>
    <TTGlyph name="brokenbar" xMin="36" yMin="-138" xMax="264" yMax="760">
      <contour>
        <pt x="144" y="404" on="1"/>
        <pt x="216" y="760" on="1"/>
        <pt x="264" y="760" on="1"/>
        <pt x="192" y="404" on="1"/>
      </contour>
      <contour>
        <pt x="36" y="-138" on="1"/>
        <pt x="108" y="218" on="1"/>
        <pt x="156" y="218" on="1"/>
        <pt x="84" y="-138" on="1"/>
      </contour>
    </TTGlyph>
    <TTGlyph name="bullet" xMin="77" yMin="198" xMax="293" yMax="410">
      <contour>
        <pt x="167" y="198" on="1"/>
        <pt x="121" y="198" on="0"/>
        <pt x="77" y="236" on="0"/>
        <pt x="77" y="268" on="1"/>
        <pt x="77" y="273" on="0"/>
        <pt x="80" y="299" on="0"/>
        <pt x="84" y="319" on="1"/>
        <pt x="92" y="360" on="0"/>
        <pt x="147" y="410" on="0"/>
        <pt x="203" y="410" on="1"/>
        <pt x="249" y="410" on="0"/>
        <pt x="293" y="372" on="0"/>
        <pt x="293" y="340" on="1"/>
        <pt x="293" y="335" on="0"/>
        <pt x="290" y="309" on="0"/>
        <pt x="286" y="289" on="1"/>
        <pt x="278" y="248" on="0"/>
        <pt x="223" y="198" on="0"/>
      </contour>
    </TTGlyph>
    <TTGlyph name="c" xMin="54" yMin="-12" xMax="464" yMax="524">
      <contour>
        <pt x="231" y="-12" on="1"/>
        <pt x="188" y="-12" on="0"/>
        <pt x="122" y="18" on="0"/>
        <pt x="77" y="72" on="0"/>
        <pt x="54" y="148" on="0"/>
        <pt x="54" y="194" on="1"/>
        <pt x="54" y="262" on="0"/>
        <pt x="88" y="382" on="0"/>
        <pt x="151" y="472" on="0"/>
        <pt x="243" y="524" on="0"/>
        <pt x="302" y="524" on="1"/>
        <pt x="367" y="524" on="0"/>
        <pt x="451" y="458" on="0"/>
        <pt x="464" y="405" on="1"/>
        <pt x="418" y="386" on="1"/>
        <pt x="393" y="475" on="0"/>
        <pt x="300" y="475" on="1"/>
        <pt x="234" y="475" on="0"/>
        <pt x="144" y="384" on="0"/>
        <pt x="129" y="306" on="1"/>
        <pt x="115" y="236" on="1"/>
        <pt x="113" y="222" on="0"/>
        <pt x="110" y="197" on="0"/>
        <pt x="110" y="184" on="1"/>
        <pt x="110" y="121" on="0"/>
        <pt x="172" y="37" on="0"/>
        <pt x="236" y="37" on="1"/>
        <pt x="282" y="37" on="0"/>
        <pt x="355" y="88" on="0"/>
        <pt x="387" y="144" on="1"/>
        <pt x="431" y="123" on="1"/>
        <pt x="397" y="60" on="0"/>
        <pt x="297" y="-12" on="0"/>
      </contour>
    </TTGlyph>
    <TTGlyph name="cacute" xMin="54" yMin="-12" xMax="464" yMax="769">
      <component glyphName="c" x="0" y="0" flags="0x204"/>
      <component glyphName="acute" x="12" y="0" flags="0x4"/>
    </TTGlyph>
    <TTGlyph name="caron" xMin="183" yMin="601" xMax="485" yMax="763">
      <contour>
        <pt x="275" y="601" on="1"/>
        <pt x="183" y="740" on="1"/>
        <pt x="216" y="763" on="1"/>
        <pt x="311" y="643" on="1"/>
        <pt x="455" y="763" on="1"/>
        <pt x="485" y="739" on="1"/>
        <pt x="342" y="601" on="1"/>
      </contour>
    </TTGlyph>
    <TTGlyph name="caron.case" xMin="187" yMin="774" xMax="488" yMax="937">
      <contour>
        <pt x="278" y="774" on="1"/>
        <pt x="187" y="914" on="1"/>
        <pt x="219" y="937" on="1"/>
        <pt x="315" y="816" on="1"/>
        <pt x="458" y="937" on="1"/>
        <pt x="488" y="913" on="1"/>
        <pt x="345" y="774" on="1"/>
      </contour>
    </TTGlyph>
    <TTGlyph name="ccaron" xMin="54" yMin="-12" xMax="497" yMax="763">
      <component glyphName="c" x="0" y="0" flags="0x204"/>
      <component glyphName="caron" x="12" y="0" flags="0x4"/>
    </TTGlyph>
    <TTGlyph name="ccedilla" xMin="54" yMin="-205" xMax="464" yMax="524">
      <contour>
        <pt x="302" y="524" on="1"/>
        <pt x="367" y="524" on="0"/>
        <pt x="451" y="458" on="0"/>
        <pt x="464" y="405" on="1"/>
        <pt x="418" y="386" on="1"/>
        <pt x="393" y="475" on="0"/>
        <pt x="300" y="475" on="1"/>
        <pt x="234" y="475" on="0"/>
        <pt x="144" y="384" on="0"/>
        <pt x="129" y="306" on="1"/>
        <pt x="115" y="236" on="1"/>
        <pt x="113" y="222" on="0"/>
        <pt x="110" y="197" on="0"/>
        <pt x="110" y="184" on="1"/>
        <pt x="110" y="121" on="0"/>
        <pt x="172" y="37" on="0"/>
        <pt x="236" y="37" on="1"/>
        <pt x="282" y="37" on="0"/>
        <pt x="355" y="88" on="0"/>
        <pt x="387" y="144" on="1"/>
        <pt x="431" y="123" on="1"/>
        <pt x="399" y="63" on="0"/>
        <pt x="307" y="-7" on="0"/>
        <pt x="245" y="-11" on="1"/>
        <pt x="225" y="-66" on="1"/>
        <pt x="227" y="-68" on="1"/>
        <pt x="233" y="-67" on="0"/>
        <pt x="248" y="-65" on="0"/>
        <pt x="257" y="-65" on="1"/>
        <pt x="283" y="-65" on="0"/>
        <pt x="316" y="-91" on="0"/>
        <pt x="316" y="-120" on="1"/>
        <pt x="316" y="-157" on="0"/>
        <pt x="259" y="-205" on="0"/>
        <pt x="213" y="-205" on="1"/>
        <pt x="179" y="-205" on="0"/>
        <pt x="133" y="-184" on="0"/>
        <pt x="122" y="-170" on="1"/>
        <pt x="152" y="-140" on="1"/>
        <pt x="160" y="-151" on="0"/>
        <pt x="190" y="-166" on="0"/>
        <pt x="212" y="-166" on="1"/>
        <pt x="238" y="-166" on="0"/>
        <pt x="268" y="-141" on="0"/>
        <pt x="268" y="-121" on="1"/>
        <pt x="268" y="-104" on="0"/>
        <pt x="245" y="-85" on="0"/>
        <pt x="215" y="-82" on="1"/>
        <pt x="184" y="-79" on="1"/>
        <pt x="209" y="-11" on="1"/>
        <pt x="134" y="-3" on="0"/>
        <pt x="54" y="108" on="0"/>
        <pt x="54" y="194" on="1"/>
        <pt x="54" y="262" on="0"/>
        <pt x="88" y="382" on="0"/>
        <pt x="151" y="472" on="0"/>
        <pt x="243" y="524" on="0"/>
      </contour>
    </TTGlyph>
    <TTGlyph name="ccircumflex" xMin="54" yMin="-12" xMax="471" yMax="756">
      <component glyphName="c" x="0" y="0" flags="0x204"/>
      <component glyphName="circumflex" x="12" y="0" flags="0x4"/>
    </TTGlyph>
    <TTGlyph name="cdotaccent" xMin="54" yMin="-12" xMax="464" yMax="708">
      <component glyphName="c" x="0" y="0" flags="0x204"/>
      <component glyphName="dotaccent" x="12" y="0" flags="0x4"/>
    </TTGlyph>
    <TTGlyph name="cedilla" xMin="186" yMin="-205" xMax="379" yMax="13">
      <contour>
        <pt x="277" y="-205" on="1"/>
        <pt x="243" y="-205" on="0"/>
        <pt x="196" y="-184" on="0"/>
        <pt x="186" y="-170" on="1"/>
        <pt x="216" y="-140" on="1"/>
        <pt x="224" y="-151" on="0"/>
        <pt x="254" y="-166" on="0"/>
        <pt x="275" y="-166" on="1"/>
        <pt x="301" y="-166" on="0"/>
        <pt x="332" y="-141" on="0"/>
        <pt x="332" y="-121" on="1"/>
        <pt x="332" y="-104" on="0"/>
        <pt x="309" y="-85" on="0"/>
        <pt x="278" y="-82" on="1"/>
        <pt x="248" y="-79" on="1"/>
        <pt x="280" y="13" on="1"/>
        <pt x="318" y="13" on="1"/>
        <pt x="289" y="-66" on="1"/>
        <pt x="291" y="-68" on="1"/>
        <pt x="297" y="-67" on="0"/>
        <pt x="312" y="-65" on="0"/>
        <pt x="321" y="-65" on="1"/>
        <pt x="347" y="-65" on="0"/>
        <pt x="379" y="-91" on="0"/>
        <pt x="379" y="-120" on="1"/>
        <pt x="379" y="-157" on="0"/>
        <pt x="323" y="-205" on="0"/>
      </contour>
    </TTGlyph>
    <TTGlyph name="cent" xMin="54" yMin="-114" xMax="466" yMax="626">
      <contour>
        <pt x="186" y="-7" on="1"/>
        <pt x="122" y="7" on="0"/>
        <pt x="54" y="114" on="0"/>
        <pt x="54" y="195" on="1"/>
        <pt x="54" y="261" on="0"/>
        <pt x="86" y="378" on="0"/>
        <pt x="146" y="466" on="0"/>
        <pt x="235" y="520" on="0"/>
        <pt x="292" y="523" on="1"/>
        <pt x="312" y="626" on="1"/>
        <pt x="362" y="626" on="1"/>
        <pt x="340" y="520" on="1"/>
        <pt x="390" y="510" on="0"/>
        <pt x="452" y="451" on="0"/>
        <pt x="466" y="406" on="1"/>
        <pt x="417" y="385" on="1"/>
        <pt x="398" y="457" on="0"/>
        <pt x="329" y="472" on="1"/>
        <pt x="243" y="36" on="1"/>
        <pt x="288" y="38" on="0"/>
        <pt x="355" y="90" on="0"/>
        <pt x="387" y="144" on="1"/>
        <pt x="431" y="123" on="1"/>
        <pt x="393" y="56" on="0"/>
        <pt x="299" y="-10" on="0"/>
        <pt x="233" y="-12" on="1"/>
        <pt x="213" y="-114" on="1"/>
        <pt x="164" y="-114" on="1"/>
      </contour>
      <contour>
        <pt x="108" y="183" on="1"/>
        <pt x="108" y="131" on="0"/>
        <pt x="150" y="53" on="0"/>
        <pt x="196" y="42" on="1"/>
        <pt x="282" y="473" on="1"/>
        <pt x="220" y="467" on="0"/>
        <pt x="141" y="379" on="0"/>
        <pt x="127" y="306" on="1"/>
        <pt x="113" y="236" on="1"/>
        <pt x="110" y="222" on="0"/>
        <pt x="108" y="197" on="0"/>
      </contour>
    </TTGlyph>
    <TTGlyph name="chi" xMin="-72" yMin="-200" xMax="489" yMax="512">
      <contour>
        <pt x="111" y="512" on="1"/>
        <pt x="154" y="512" on="0"/>
        <pt x="161" y="477" on="1"/>
        <pt x="220" y="214" on="1"/>
        <pt x="224" y="214" on="1"/>
        <pt x="426" y="512" on="1"/>
        <pt x="489" y="512" on="1"/>
        <pt x="246" y="165" on="1"/>
        <pt x="320" y="-151" on="1"/>
        <pt x="379" y="-151" on="1"/>
        <pt x="369" y="-200" on="1"/>
        <pt x="319" y="-200" on="1"/>
        <pt x="276" y="-200" on="0"/>
        <pt x="269" y="-164" on="1"/>
        <pt x="206" y="120" on="1"/>
        <pt x="202" y="120" on="1"/>
        <pt x="-9" y="-200" on="1"/>
        <pt x="-72" y="-200" on="1"/>
        <pt x="180" y="169" on="1"/>
        <pt x="110" y="463" on="1"/>
        <pt x="51" y="463" on="1"/>
        <pt x="61" y="512" on="1"/>
      </contour>
    </TTGlyph>
    <TTGlyph name="circumflex" xMin="158" yMin="594" xMax="459" yMax="756">
      <contour>
        <pt x="367" y="756" on="1"/>
        <pt x="459" y="617" on="1"/>
        <pt x="427" y="594" on="1"/>
        <pt x="329" y="714" on="1"/>
        <pt x="187" y="594" on="1"/>
        <pt x="158" y="618" on="1"/>
        <pt x="301" y="756" on="1"/>
      </contour>
    </TTGlyph>
    <TTGlyph name="circumflex.case" xMin="161" yMin="768" xMax="463" yMax="930">
      <contour>
        <pt x="371" y="930" on="1"/>
        <pt x="463" y="791" on="1"/>
        <pt x="431" y="769" on="1"/>
        <pt x="333" y="888" on="1"/>
        <pt x="191" y="768" on="1"/>
        <pt x="161" y="792" on="1"/>
        <pt x="305" y="930" on="1"/>
      </contour>
    </TTGlyph>
    <TTGlyph name="circumflexacute" xMin="-132" yMin="585" xMax="295" yMax="885">
      <contour>
        <pt x="163" y="702" on="1"/>
        <pt x="129" y="722" on="1"/>
        <pt x="247" y="885" on="1"/>
        <pt x="295" y="859" on="1"/>
      </contour>
      <contour>
        <pt x="72" y="741" on="1"/>
        <pt x="164" y="608" on="1"/>
        <pt x="133" y="585" on="1"/>
        <pt x="35" y="703" on="1"/>
        <pt x="-102" y="585" on="1"/>
        <pt x="-132" y="609" on="1"/>
        <pt x="5" y="741" on="1"/>
      </contour>
    </TTGlyph>
    <TTGlyph name="circumflexacute.case" xMin="-130" yMin="758" xMax="302" yMax="1054">
      <contour>
        <pt x="170" y="871" on="1"/>
        <pt x="135" y="890" on="1"/>
        <pt x="254" y="1054" on="1"/>
        <pt x="302" y="1027" on="1"/>
      </contour>
      <contour>
        <pt x="74" y="915" on="1"/>
        <pt x="167" y="782" on="1"/>
        <pt x="136" y="758" on="1"/>
        <pt x="38" y="877" on="1"/>
        <pt x="-100" y="758" on="1"/>
        <pt x="-130" y="782" on="1"/>
        <pt x="7" y="915" on="1"/>
      </contour>
    </TTGlyph>
    <TTGlyph name="circumflexbreve" xMin="-135" yMin="582" xMax="194" yMax="880">
      <contour>
        <pt x="65" y="715" on="1"/>
        <pt x="163" y="607" on="1"/>
        <pt x="135" y="582" on="1"/>
        <pt x="28" y="677" on="1"/>
        <pt x="-112" y="582" on="1"/>
        <pt x="-135" y="608" on="1"/>
        <pt x="1" y="715" on="1"/>
      </contour>
      <contour>
        <pt x="36" y="744" on="1"/>
        <pt x="4" y="744" on="0"/>
        <pt x="-39" y="766" on="0"/>
        <pt x="-66" y="801" on="0"/>
        <pt x="-82" y="845" on="0"/>
        <pt x="-87" y="867" on="1"/>
        <pt x="-55" y="880" on="1"/>
        <pt x="-43" y="852" on="1"/>
        <pt x="-29" y="819" on="0"/>
        <pt x="6" y="787" on="0"/>
        <pt x="37" y="787" on="1"/>
        <pt x="67" y="787" on="0"/>
        <pt x="113" y="815" on="0"/>
        <pt x="140" y="852" on="1"/>
        <pt x="160" y="880" on="1"/>
        <pt x="194" y="867" on="1"/>
        <pt x="182" y="844" on="0"/>
        <pt x="154" y="800" on="0"/>
        <pt x="116" y="765" on="0"/>
        <pt x="68" y="744" on="0"/>
      </contour>
    </TTGlyph>
    <TTGlyph name="circumflexbreve.case" xMin="-130" yMin="755" xMax="202" yMax="1052">
      <contour>
        <pt x="69" y="889" on="1"/>
        <pt x="167" y="781" on="1"/>
        <pt x="139" y="755" on="1"/>
        <pt x="33" y="851" on="1"/>
        <pt x="-107" y="755" on="1"/>
        <pt x="-130" y="781" on="1"/>
        <pt x="5" y="889" on="1"/>
      </contour>
      <contour>
        <pt x="44" y="918" on="1"/>
        <pt x="12" y="918" on="0"/>
        <pt x="-31" y="939" on="0"/>
        <pt x="-59" y="974" on="0"/>
        <pt x="-75" y="1017" on="0"/>
        <pt x="-80" y="1039" on="1"/>
        <pt x="-48" y="1052" on="1"/>
        <pt x="-36" y="1023" on="1"/>
        <pt x="-22" y="990" on="0"/>
        <pt x="14" y="960" on="0"/>
        <pt x="44" y="960" on="1"/>
        <pt x="74" y="960" on="0"/>
        <pt x="122" y="985" on="0"/>
        <pt x="148" y="1023" on="1"/>
        <pt x="168" y="1052" on="1"/>
        <pt x="202" y="1040" on="1"/>
        <pt x="190" y="1017" on="0"/>
        <pt x="162" y="973" on="0"/>
        <pt x="124" y="939" on="0"/>
        <pt x="76" y="918" on="0"/>
      </contour>
    </TTGlyph>
    <TTGlyph name="circumflexgrave" xMin="-194" yMin="585" xMax="164" yMax="879">
      <contour>
        <pt x="-194" y="856" on="1"/>
        <pt x="-145" y="879" on="1"/>
        <pt x="-76" y="715" on="1"/>
        <pt x="-109" y="699" on="1"/>
      </contour>
      <contour>
        <pt x="71" y="741" on="1"/>
        <pt x="164" y="608" on="1"/>
        <pt x="133" y="585" on="1"/>
        <pt x="34" y="703" on="1"/>
        <pt x="-103" y="585" on="1"/>
        <pt x="-133" y="609" on="1"/>
        <pt x="4" y="741" on="1"/>
      </contour>
    </TTGlyph>
    <TTGlyph name="circumflexgrave.case" xMin="-196" yMin="758" xMax="166" yMax="1053">
      <contour>
        <pt x="-196" y="1030" on="1"/>
        <pt x="-147" y="1053" on="1"/>
        <pt x="-78" y="889" on="1"/>
        <pt x="-112" y="873" on="1"/>
      </contour>
      <contour>
        <pt x="73" y="915" on="1"/>
        <pt x="166" y="782" on="1"/>
        <pt x="135" y="758" on="1"/>
        <pt x="37" y="877" on="1"/>
        <pt x="-101" y="758" on="1"/>
        <pt x="-130" y="782" on="1"/>
        <pt x="6" y="915" on="1"/>
      </contour>
    </TTGlyph>
    <TTGlyph name="circumflexhook" xMin="-133" yMin="585" xMax="255" yMax="867">
      <contour>
        <pt x="92" y="867" on="1"/>
        <pt x="209" y="867" on="1"/>
        <pt x="236" y="867" on="0"/>
        <pt x="255" y="845" on="0"/>
        <pt x="255" y="831" on="1"/>
        <pt x="255" y="813" on="0"/>
        <pt x="228" y="775" on="0"/>
        <pt x="203" y="744" on="1"/>
        <pt x="161" y="693" on="1"/>
        <pt x="130" y="711" on="1"/>
        <pt x="213" y="826" on="1"/>
        <pt x="85" y="826" on="1"/>
      </contour>
      <contour>
        <pt x="71" y="741" on="1"/>
        <pt x="164" y="608" on="1"/>
        <pt x="133" y="585" on="1"/>
        <pt x="34" y="703" on="1"/>
        <pt x="-103" y="585" on="1"/>
        <pt x="-133" y="609" on="1"/>
        <pt x="4" y="741" on="1"/>
      </contour>
    </TTGlyph>
    <TTGlyph name="circumflexhook.case" xMin="-130" yMin="758" xMax="257" yMax="1041">
      <contour>
        <pt x="94" y="1041" on="1"/>
        <pt x="211" y="1041" on="1"/>
        <pt x="239" y="1041" on="0"/>
        <pt x="257" y="1019" on="0"/>
        <pt x="257" y="1005" on="1"/>
        <pt x="257" y="987" on="0"/>
        <pt x="232" y="948" on="0"/>
        <pt x="205" y="917" on="1"/>
        <pt x="162" y="867" on="1"/>
        <pt x="131" y="885" on="1"/>
        <pt x="212" y="1000" on="1"/>
        <pt x="87" y="1000" on="1"/>
      </contour>
      <contour>
        <pt x="73" y="915" on="1"/>
        <pt x="166" y="782" on="1"/>
        <pt x="135" y="758" on="1"/>
        <pt x="37" y="877" on="1"/>
        <pt x="-101" y="758" on="1"/>
        <pt x="-130" y="782" on="1"/>
        <pt x="6" y="915" on="1"/>
      </contour>
    </TTGlyph>
    <TTGlyph name="circumflextilde" xMin="-133" yMin="585" xMax="204" yMax="869">
      <contour>
        <pt x="-19" y="869" on="1"/>
        <pt x="4" y="869" on="0"/>
        <pt x="37" y="853" on="0"/>
        <pt x="55" y="841" on="1"/>
        <pt x="75" y="827" on="0"/>
        <pt x="105" y="817" on="0"/>
        <pt x="119" y="817" on="1"/>
        <pt x="136" y="817" on="0"/>
        <pt x="166" y="832" on="0"/>
        <pt x="183" y="846" on="1"/>
        <pt x="204" y="819" on="1"/>
        <pt x="185" y="798" on="0"/>
        <pt x="140" y="771" on="0"/>
        <pt x="111" y="771" on="1"/>
        <pt x="88" y="771" on="0"/>
        <pt x="55" y="787" on="0"/>
        <pt x="37" y="799" on="1"/>
        <pt x="17" y="813" on="0"/>
        <pt x="-13" y="823" on="0"/>
        <pt x="-27" y="823" on="1"/>
        <pt x="-44" y="823" on="0"/>
        <pt x="-74" y="808" on="0"/>
        <pt x="-91" y="794" on="1"/>
        <pt x="-112" y="821" on="1"/>
        <pt x="-93" y="842" on="0"/>
        <pt x="-48" y="869" on="0"/>
      </contour>
      <contour>
        <pt x="71" y="741" on="1"/>
        <pt x="164" y="608" on="1"/>
        <pt x="133" y="585" on="1"/>
        <pt x="34" y="703" on="1"/>
        <pt x="-103" y="585" on="1"/>
        <pt x="-133" y="609" on="1"/>
        <pt x="4" y="741" on="1"/>
      </contour>
    </TTGlyph>
    <TTGlyph name="circumflextilde.case" xMin="-129" yMin="759" xMax="208" yMax="1043">
      <contour>
        <pt x="-15" y="1043" on="1"/>
        <pt x="8" y="1043" on="0"/>
        <pt x="41" y="1027" on="0"/>
        <pt x="59" y="1015" on="1"/>
        <pt x="79" y="1001" on="0"/>
        <pt x="109" y="991" on="0"/>
        <pt x="123" y="991" on="1"/>
        <pt x="140" y="991" on="0"/>
        <pt x="170" y="1006" on="0"/>
        <pt x="187" y="1020" on="1"/>
        <pt x="208" y="993" on="1"/>
        <pt x="189" y="972" on="0"/>
        <pt x="144" y="945" on="0"/>
        <pt x="115" y="945" on="1"/>
        <pt x="92" y="945" on="0"/>
        <pt x="59" y="961" on="0"/>
        <pt x="41" y="973" on="1"/>
        <pt x="21" y="987" on="0"/>
        <pt x="-9" y="997" on="0"/>
        <pt x="-23" y="997" on="1"/>
        <pt x="-40" y="997" on="0"/>
        <pt x="-70" y="982" on="0"/>
        <pt x="-87" y="968" on="1"/>
        <pt x="-108" y="995" on="1"/>
        <pt x="-89" y="1016" on="0"/>
        <pt x="-44" y="1043" on="0"/>
      </contour>
      <contour>
        <pt x="75" y="915" on="1"/>
        <pt x="168" y="782" on="1"/>
        <pt x="137" y="759" on="1"/>
        <pt x="38" y="877" on="1"/>
        <pt x="-99" y="759" on="1"/>
        <pt x="-129" y="783" on="1"/>
        <pt x="8" y="915" on="1"/>
      </contour>
    </TTGlyph>
    <TTGlyph name="colon" xMin="49" yMin="-9" xMax="231" yMax="521">
      <component glyphName="period" x="10" y="0" flags="0x4"/>
      <component glyphName="period" x="97" y="429" flags="0x4"/>
    </TTGlyph>
    <TTGlyph name="comma" xMin="-31" yMin="-138" xMax="133" yMax="92">
      <contour>
        <pt x="92" y="92" on="1"/>
        <pt x="133" y="92" on="0"/>
        <pt x="133" y="60" on="1"/>
        <pt x="133" y="55" on="0"/>
        <pt x="132" y="40" on="0"/>
        <pt x="130" y="34" on="1"/>
        <pt x="125" y="14" on="0"/>
        <pt x="106" y="-31" on="0"/>
        <pt x="78" y="-78" on="0"/>
        <pt x="40" y="-121" on="0"/>
        <pt x="17" y="-138" on="1"/>
        <pt x="-31" y="-138" on="1"/>
        <pt x="9" y="-104" on="0"/>
        <pt x="55" y="-37" on="0"/>
        <pt x="68" y="-6" on="1"/>
        <pt x="38" y="-2" on="0"/>
        <pt x="38" y="24" on="1"/>
        <pt x="38" y="30" on="0"/>
        <pt x="40" y="45" on="0"/>
        <pt x="42" y="50" on="1"/>
        <pt x="46" y="66" on="0"/>
        <pt x="66" y="92" on="0"/>
      </contour>
    </TTGlyph>
    <TTGlyph name="copyright" xMin="53" yMin="-12" xMax="729" yMax="709">
      <contour>
        <pt x="342" y="-12" on="1"/>
        <pt x="277" y="-12" on="0"/>
        <pt x="170" y="31" on="0"/>
        <pt x="94" y="110" on="0"/>
        <pt x="53" y="220" on="0"/>
        <pt x="53" y="288" on="1"/>
        <pt x="53" y="380" on="0"/>
        <pt x="112" y="535" on="0"/>
        <pt x="216" y="647" on="0"/>
        <pt x="358" y="709" on="0"/>
        <pt x="440" y="709" on="1"/>
        <pt x="505" y="709" on="0"/>
        <pt x="612" y="666" on="0"/>
        <pt x="688" y="587" on="0"/>
        <pt x="729" y="476" on="0"/>
        <pt x="729" y="409" on="1"/>
        <pt x="729" y="317" on="0"/>
        <pt x="670" y="162" on="0"/>
        <pt x="566" y="50" on="0"/>
        <pt x="424" y="-12" on="0"/>
      </contour>
      <contour>
        <pt x="344" y="30" on="1"/>
        <pt x="405" y="30" on="0"/>
        <pt x="513" y="72" on="0"/>
        <pt x="598" y="144" on="0"/>
        <pt x="655" y="241" on="0"/>
        <pt x="666" y="296" on="1"/>
        <pt x="682" y="372" on="0"/>
        <pt x="682" y="409" on="1"/>
        <pt x="682" y="467" on="0"/>
        <pt x="647" y="562" on="0"/>
        <pt x="584" y="630" on="0"/>
        <pt x="493" y="667" on="0"/>
        <pt x="438" y="667" on="1"/>
        <pt x="376" y="667" on="0"/>
        <pt x="269" y="625" on="0"/>
        <pt x="184" y="553" on="0"/>
        <pt x="127" y="456" on="0"/>
        <pt x="116" y="401" on="1"/>
        <pt x="100" y="325" on="0"/>
        <pt x="100" y="288" on="1"/>
        <pt x="100" y="230" on="0"/>
        <pt x="135" y="135" on="0"/>
        <pt x="198" y="67" on="0"/>
        <pt x="288" y="30" on="0"/>
      </contour>
      <contour>
        <pt x="364" y="153" on="1"/>
        <pt x="304" y="153" on="0"/>
        <pt x="233" y="229" on="0"/>
        <pt x="233" y="301" on="1"/>
        <pt x="233" y="352" on="0"/>
        <pt x="261" y="441" on="0"/>
        <pt x="311" y="506" on="0"/>
        <pt x="381" y="543" on="0"/>
        <pt x="423" y="543" on="1"/>
        <pt x="474" y="543" on="0"/>
        <pt x="536" y="489" on="0"/>
        <pt x="547" y="454" on="1"/>
        <pt x="505" y="437" on="1"/>
        <pt x="496" y="466" on="0"/>
        <pt x="455" y="500" on="0"/>
        <pt x="420" y="500" on="1"/>
        <pt x="372" y="500" on="0"/>
        <pt x="307" y="433" on="0"/>
        <pt x="296" y="375" on="1"/>
        <pt x="287" y="331" on="1"/>
        <pt x="284" y="310" on="0"/>
        <pt x="284" y="296" on="1"/>
        <pt x="284" y="251" on="0"/>
        <pt x="328" y="197" on="0"/>
        <pt x="369" y="197" on="1"/>
        <pt x="431" y="197" on="0"/>
        <pt x="475" y="265" on="1"/>
        <pt x="510" y="239" on="1"/>
        <pt x="487" y="202" on="0"/>
        <pt x="412" y="153" on="0"/>
      </contour>
    </TTGlyph>
    <TTGlyph name="currency" xMin="-2" yMin="66" xMax="637" yMax="632">
      <contour>
        <pt x="277" y="123" on="1"/>
        <pt x="192" y="123" on="0"/>
        <pt x="148" y="173" on="1"/>
        <pt x="30" y="76" on="1"/>
        <pt x="-2" y="114" on="1"/>
        <pt x="122" y="216" on="1"/>
        <pt x="109" y="246" on="0"/>
        <pt x="109" y="288" on="1"/>
        <pt x="109" y="303" on="0"/>
        <pt x="112" y="336" on="0"/>
        <pt x="116" y="353" on="1"/>
        <pt x="125" y="395" on="0"/>
        <pt x="154" y="465" on="0"/>
        <pt x="175" y="491" on="1"/>
        <pt x="87" y="600" on="1"/>
        <pt x="126" y="632" on="1"/>
        <pt x="212" y="526" on="1"/>
        <pt x="273" y="575" on="0"/>
        <pt x="358" y="575" on="1"/>
        <pt x="443" y="575" on="0"/>
        <pt x="487" y="525" on="1"/>
        <pt x="605" y="622" on="1"/>
        <pt x="637" y="584" on="1"/>
        <pt x="513" y="482" on="1"/>
        <pt x="526" y="452" on="0"/>
        <pt x="526" y="410" on="1"/>
        <pt x="526" y="395" on="0"/>
        <pt x="523" y="362" on="0"/>
        <pt x="519" y="345" on="1"/>
        <pt x="510" y="303" on="0"/>
        <pt x="481" y="233" on="0"/>
        <pt x="460" y="207" on="1"/>
        <pt x="548" y="98" on="1"/>
        <pt x="509" y="66" on="1"/>
        <pt x="423" y="172" on="1"/>
        <pt x="362" y="123" on="0"/>
      </contour>
      <contour>
        <pt x="281" y="171" on="1"/>
        <pt x="349" y="171" on="0"/>
        <pt x="439" y="248" on="0"/>
        <pt x="455" y="321" on="1"/>
        <pt x="467" y="377" on="1"/>
        <pt x="469" y="388" on="0"/>
        <pt x="471" y="411" on="0"/>
        <pt x="471" y="419" on="1"/>
        <pt x="471" y="473" on="0"/>
        <pt x="411" y="527" on="0"/>
        <pt x="354" y="527" on="1"/>
        <pt x="286" y="527" on="0"/>
        <pt x="196" y="450" on="0"/>
        <pt x="180" y="377" on="1"/>
        <pt x="168" y="321" on="1"/>
        <pt x="166" y="310" on="0"/>
        <pt x="164" y="287" on="0"/>
        <pt x="164" y="279" on="1"/>
        <pt x="164" y="225" on="0"/>
        <pt x="224" y="171" on="0"/>
      </contour>
    </TTGlyph>
    <TTGlyph name="d" xMin="55" yMin="-12" xMax="570" yMax="740">
      <contour>
        <pt x="428" y="0" on="1"/>
        <pt x="402" y="0" on="0"/>
        <pt x="378" y="25" on="0"/>
        <pt x="378" y="45" on="1"/>
        <pt x="378" y="55" on="0"/>
        <pt x="381" y="70" on="1"/>
        <pt x="389" y="112" on="1"/>
        <pt x="386" y="112" on="1"/>
        <pt x="354" y="50" on="0"/>
        <pt x="274" y="-12" on="0"/>
        <pt x="214" y="-12" on="1"/>
        <pt x="177" y="-12" on="0"/>
        <pt x="118" y="16" on="0"/>
        <pt x="77" y="66" on="0"/>
        <pt x="55" y="137" on="0"/>
        <pt x="55" y="181" on="1"/>
        <pt x="55" y="243" on="0"/>
        <pt x="86" y="366" on="0"/>
        <pt x="149" y="463" on="0"/>
        <pt x="243" y="524" on="0"/>
        <pt x="305" y="524" on="1"/>
        <pt x="359" y="524" on="0"/>
        <pt x="436" y="473" on="0"/>
        <pt x="449" y="425" on="1"/>
        <pt x="452" y="425" on="1"/>
        <pt x="515" y="740" on="1"/>
        <pt x="570" y="740" on="1"/>
        <pt x="432" y="49" on="1"/>
        <pt x="510" y="49" on="1"/>
        <pt x="500" y="0" on="1"/>
      </contour>
      <contour>
        <pt x="227" y="38" on="1"/>
        <pt x="259" y="38" on="0"/>
        <pt x="311" y="62" on="0"/>
        <pt x="335" y="85" on="1"/>
        <pt x="362" y="109" on="0"/>
        <pt x="403" y="177" on="0"/>
        <pt x="411" y="222" on="1"/>
        <pt x="435" y="341" on="1"/>
        <pt x="440" y="365" on="0"/>
        <pt x="431" y="413" on="0"/>
        <pt x="401" y="451" on="0"/>
        <pt x="348" y="474" on="0"/>
        <pt x="310" y="474" on="1"/>
        <pt x="238" y="474" on="0"/>
        <pt x="145" y="379" on="0"/>
        <pt x="128" y="294" on="1"/>
        <pt x="116" y="234" on="1"/>
        <pt x="114" y="220" on="0"/>
        <pt x="111" y="192" on="0"/>
        <pt x="111" y="175" on="1"/>
        <pt x="111" y="146" on="0"/>
        <pt x="124" y="96" on="0"/>
        <pt x="153" y="59" on="0"/>
        <pt x="197" y="38" on="0"/>
      </contour>
    </TTGlyph>
    <TTGlyph name="dagger" xMin="95" yMin="-200" xMax="542" yMax="740">
      <contour>
        <pt x="157" y="-200" on="1"/>
        <pt x="290" y="466" on="1"/>
        <pt x="95" y="466" on="1"/>
        <pt x="105" y="512" on="1"/>
        <pt x="299" y="512" on="1"/>
        <pt x="345" y="740" on="1"/>
        <pt x="393" y="740" on="1"/>
        <pt x="347" y="512" on="1"/>
        <pt x="542" y="512" on="1"/>
        <pt x="532" y="466" on="1"/>
        <pt x="338" y="466" on="1"/>
        <pt x="205" y="-200" on="1"/>
      </contour>
    </TTGlyph>
    <TTGlyph name="daggerdbl" xMin="8" yMin="-200" xMax="542" yMax="740">
      <contour>
        <pt x="157" y="-200" on="1"/>
        <pt x="203" y="28" on="1"/>
        <pt x="8" y="28" on="1"/>
        <pt x="18" y="74" on="1"/>
        <pt x="212" y="74" on="1"/>
        <pt x="290" y="466" on="1"/>
        <pt x="95" y="466" on="1"/>
        <pt x="105" y="512" on="1"/>
        <pt x="299" y="512" on="1"/>
        <pt x="345" y="740" on="1"/>
        <pt x="393" y="740" on="1"/>
        <pt x="347" y="512" on="1"/>
        <pt x="542" y="512" on="1"/>
        <pt x="532" y="466" on="1"/>
        <pt x="338" y="466" on="1"/>
        <pt x="260" y="74" on="1"/>
        <pt x="455" y="74" on="1"/>
        <pt x="445" y="28" on="1"/>
        <pt x="251" y="28" on="1"/>
        <pt x="205" y="-200" on="1"/>
      </contour>
    </TTGlyph>
    <TTGlyph name="dcaron" xMin="55" yMin="-12" xMax="708" yMax="740">
      <component glyphName="d" x="0" y="0" flags="0x204"/>
      <component glyphName="uni02BC" x="339" y="0" flags="0x4"/>
    </TTGlyph>
    <TTGlyph name="dcroat" xMin="55" yMin="-12" xMax="617" yMax="740">
      <contour>
        <pt x="428" y="0" on="1"/>
        <pt x="402" y="0" on="0"/>
        <pt x="378" y="25" on="0"/>
        <pt x="378" y="45" on="1"/>
        <pt x="378" y="50" on="0"/>
        <pt x="379" y="62" on="0"/>
        <pt x="380" y="68" on="1"/>
        <pt x="389" y="112" on="1"/>
        <pt x="386" y="112" on="1"/>
        <pt x="354" y="50" on="0"/>
        <pt x="274" y="-12" on="0"/>
        <pt x="214" y="-12" on="1"/>
        <pt x="177" y="-12" on="0"/>
        <pt x="118" y="16" on="0"/>
        <pt x="77" y="66" on="0"/>
        <pt x="55" y="137" on="0"/>
        <pt x="55" y="181" on="1"/>
        <pt x="55" y="243" on="0"/>
        <pt x="86" y="366" on="0"/>
        <pt x="149" y="463" on="0"/>
        <pt x="243" y="524" on="0"/>
        <pt x="305" y="524" on="1"/>
        <pt x="359" y="524" on="0"/>
        <pt x="436" y="473" on="0"/>
        <pt x="449" y="425" on="1"/>
        <pt x="452" y="425" on="1"/>
        <pt x="490" y="617" on="1"/>
        <pt x="338" y="617" on="1"/>
        <pt x="347" y="660" on="1"/>
        <pt x="499" y="660" on="1"/>
        <pt x="515" y="740" on="1"/>
        <pt x="570" y="740" on="1"/>
        <pt x="554" y="660" on="1"/>
        <pt x="617" y="660" on="1"/>
        <pt x="608" y="617" on="1"/>
        <pt x="545" y="617" on="1"/>
        <pt x="432" y="49" on="1"/>
        <pt x="510" y="49" on="1"/>
        <pt x="500" y="0" on="1"/>
      </contour>
      <contour>
        <pt x="227" y="38" on="1"/>
        <pt x="259" y="38" on="0"/>
        <pt x="311" y="62" on="0"/>
        <pt x="335" y="85" on="1"/>
        <pt x="362" y="109" on="0"/>
        <pt x="403" y="177" on="0"/>
        <pt x="411" y="222" on="1"/>
        <pt x="435" y="341" on="1"/>
        <pt x="440" y="365" on="0"/>
        <pt x="431" y="413" on="0"/>
        <pt x="401" y="451" on="0"/>
        <pt x="348" y="474" on="0"/>
        <pt x="310" y="474" on="1"/>
        <pt x="238" y="474" on="0"/>
        <pt x="145" y="379" on="0"/>
        <pt x="128" y="294" on="1"/>
        <pt x="116" y="234" on="1"/>
        <pt x="114" y="220" on="0"/>
        <pt x="111" y="192" on="0"/>
        <pt x="111" y="175" on="1"/>
        <pt x="111" y="146" on="0"/>
        <pt x="124" y="96" on="0"/>
        <pt x="153" y="59" on="0"/>
        <pt x="197" y="38" on="0"/>
      </contour>
    </TTGlyph>
    <TTGlyph name="degree" xMin="123" yMin="369" xMax="448" yMax="710">
      <contour>
        <pt x="266" y="369" on="1"/>
        <pt x="235" y="369" on="0"/>
        <pt x="183" y="391" on="0"/>
        <pt x="145" y="431" on="0"/>
        <pt x="123" y="487" on="0"/>
        <pt x="123" y="520" on="1"/>
        <pt x="123" y="561" on="0"/>
        <pt x="150" y="630" on="0"/>
        <pt x="199" y="681" on="0"/>
        <pt x="266" y="710" on="0"/>
        <pt x="305" y="710" on="1"/>
        <pt x="336" y="710" on="0"/>
        <pt x="388" y="688" on="0"/>
        <pt x="426" y="648" on="0"/>
        <pt x="448" y="593" on="0"/>
        <pt x="448" y="560" on="1"/>
        <pt x="448" y="519" on="0"/>
        <pt x="421" y="449" on="0"/>
        <pt x="372" y="398" on="0"/>
        <pt x="305" y="369" on="0"/>
      </contour>
      <contour>
        <pt x="272" y="416" on="1"/>
        <pt x="300" y="416" on="0"/>
        <pt x="347" y="438" on="0"/>
        <pt x="380" y="476" on="0"/>
        <pt x="399" y="528" on="0"/>
        <pt x="399" y="558" on="1"/>
        <pt x="399" y="603" on="0"/>
        <pt x="347" y="664" on="0"/>
        <pt x="299" y="664" on="1"/>
        <pt x="271" y="664" on="0"/>
        <pt x="224" y="642" on="0"/>
        <pt x="191" y="603" on="0"/>
        <pt x="173" y="551" on="0"/>
        <pt x="173" y="521" on="1"/>
        <pt x="173" y="476" on="0"/>
        <pt x="225" y="416" on="0"/>
      </contour>
    </TTGlyph>
    <TTGlyph name="delta" xMin="53" yMin="-12" xMax="551" yMax="740">
      <contour>
        <pt x="318" y="691" on="1"/>
        <pt x="246" y="695" on="1"/>
        <pt x="245" y="693" on="1"/>
        <pt x="353" y="584" on="1"/>
        <pt x="393" y="543" on="0"/>
        <pt x="446" y="476" on="0"/>
        <pt x="478" y="414" on="0"/>
        <pt x="491" y="352" on="0"/>
        <pt x="491" y="317" on="1"/>
        <pt x="491" y="256" on="0"/>
        <pt x="456" y="138" on="0"/>
        <pt x="390" y="45" on="0"/>
        <pt x="293" y="-12" on="0"/>
        <pt x="231" y="-12" on="1"/>
        <pt x="150" y="-12" on="0"/>
        <pt x="53" y="95" on="0"/>
        <pt x="53" y="188" on="1"/>
        <pt x="53" y="256" on="0"/>
        <pt x="95" y="374" on="0"/>
        <pt x="171" y="462" on="0"/>
        <pt x="278" y="512" on="0"/>
        <pt x="344" y="512" on="1"/>
        <pt x="345" y="519" on="1"/>
        <pt x="317" y="550" on="1"/>
        <pt x="195" y="678" on="1"/>
        <pt x="207" y="740" on="1"/>
        <pt x="551" y="740" on="1"/>
        <pt x="541" y="691" on="1"/>
      </contour>
      <contour>
        <pt x="435" y="324" on="1"/>
        <pt x="435" y="345" on="0"/>
        <pt x="430" y="384" on="0"/>
        <pt x="415" y="423" on="0"/>
        <pt x="389" y="466" on="0"/>
        <pt x="369" y="491" on="1"/>
        <pt x="316" y="488" on="0"/>
        <pt x="232" y="451" on="0"/>
        <pt x="171" y="392" on="0"/>
        <pt x="131" y="314" on="0"/>
        <pt x="121" y="271" on="1"/>
        <pt x="114" y="239" on="0"/>
        <pt x="109" y="191" on="0"/>
        <pt x="109" y="174" on="1"/>
        <pt x="109" y="115" on="0"/>
        <pt x="173" y="37" on="0"/>
        <pt x="238" y="37" on="1"/>
        <pt x="303" y="37" on="0"/>
        <pt x="398" y="127" on="0"/>
        <pt x="417" y="210" on="1"/>
        <pt x="425" y="245" on="0"/>
        <pt x="435" y="303" on="0"/>
      </contour>
    </TTGlyph>
    <TTGlyph name="dieresis" xMin="189" yMin="626" xMax="451" yMax="708">
      <contour>
        <pt x="223" y="626" on="1"/>
        <pt x="204" y="626" on="0"/>
        <pt x="189" y="643" on="0"/>
        <pt x="189" y="654" on="1"/>
        <pt x="189" y="657" on="0"/>
        <pt x="190" y="665" on="0"/>
        <pt x="192" y="676" on="1"/>
        <pt x="198" y="708" on="0"/>
        <pt x="235" y="708" on="1"/>
        <pt x="254" y="708" on="0"/>
        <pt x="269" y="691" on="0"/>
        <pt x="269" y="680" on="1"/>
        <pt x="269" y="677" on="0"/>
        <pt x="268" y="669" on="0"/>
        <pt x="266" y="658" on="1"/>
        <pt x="260" y="626" on="0"/>
      </contour>
      <contour>
        <pt x="405" y="626" on="1"/>
        <pt x="386" y="626" on="0"/>
        <pt x="371" y="643" on="0"/>
        <pt x="371" y="654" on="1"/>
        <pt x="371" y="657" on="0"/>
        <pt x="372" y="665" on="0"/>
        <pt x="374" y="676" on="1"/>
        <pt x="380" y="708" on="0"/>
        <pt x="417" y="708" on="1"/>
        <pt x="436" y="708" on="0"/>
        <pt x="451" y="691" on="0"/>
        <pt x="451" y="680" on="1"/>
        <pt x="451" y="677" on="0"/>
        <pt x="450" y="669" on="0"/>
        <pt x="448" y="658" on="1"/>
        <pt x="442" y="626" on="0"/>
      </contour>
    </TTGlyph>
    <TTGlyph name="dieresis.case" xMin="190" yMin="800" xMax="452" yMax="882">
      <contour>
        <pt x="224" y="800" on="1"/>
        <pt x="205" y="800" on="0"/>
        <pt x="190" y="817" on="0"/>
        <pt x="190" y="828" on="1"/>
        <pt x="190" y="831" on="0"/>
        <pt x="191" y="839" on="0"/>
        <pt x="193" y="850" on="1"/>
        <pt x="199" y="882" on="0"/>
        <pt x="236" y="882" on="1"/>
        <pt x="255" y="882" on="0"/>
        <pt x="270" y="865" on="0"/>
        <pt x="270" y="854" on="1"/>
        <pt x="270" y="851" on="0"/>
        <pt x="269" y="843" on="0"/>
        <pt x="267" y="832" on="1"/>
        <pt x="261" y="800" on="0"/>
      </contour>
      <contour>
        <pt x="406" y="800" on="1"/>
        <pt x="387" y="800" on="0"/>
        <pt x="372" y="817" on="0"/>
        <pt x="372" y="828" on="1"/>
        <pt x="372" y="831" on="0"/>
        <pt x="373" y="839" on="0"/>
        <pt x="375" y="850" on="1"/>
        <pt x="381" y="882" on="0"/>
        <pt x="418" y="882" on="1"/>
        <pt x="437" y="882" on="0"/>
        <pt x="452" y="865" on="0"/>
        <pt x="452" y="854" on="1"/>
        <pt x="452" y="851" on="0"/>
        <pt x="451" y="843" on="0"/>
        <pt x="449" y="832" on="1"/>
        <pt x="443" y="800" on="0"/>
      </contour>
    </TTGlyph>
    <TTGlyph name="dieresisacute" xMin="-107" yMin="611" xMax="165" yMax="880">
      <contour>
        <pt x="33" y="697" on="1"/>
        <pt x="-1" y="717" on="1"/>
        <pt x="118" y="880" on="1"/>
        <pt x="165" y="853" on="1"/>
      </contour>
      <contour>
        <pt x="-73" y="611" on="1"/>
        <pt x="-92" y="611" on="0"/>
        <pt x="-107" y="628" on="0"/>
        <pt x="-107" y="639" on="1"/>
        <pt x="-107" y="642" on="0"/>
        <pt x="-106" y="650" on="0"/>
        <pt x="-104" y="661" on="1"/>
        <pt x="-98" y="693" on="0"/>
        <pt x="-61" y="693" on="1"/>
        <pt x="-42" y="693" on="0"/>
        <pt x="-27" y="676" on="0"/>
        <pt x="-27" y="665" on="1"/>
        <pt x="-27" y="662" on="0"/>
        <pt x="-28" y="654" on="0"/>
        <pt x="-30" y="643" on="1"/>
        <pt x="-36" y="611" on="0"/>
      </contour>
      <contour>
        <pt x="109" y="611" on="1"/>
        <pt x="90" y="611" on="0"/>
        <pt x="75" y="628" on="0"/>
        <pt x="75" y="639" on="1"/>
        <pt x="75" y="642" on="0"/>
        <pt x="76" y="650" on="0"/>
        <pt x="78" y="661" on="1"/>
        <pt x="84" y="693" on="0"/>
        <pt x="121" y="693" on="1"/>
        <pt x="140" y="693" on="0"/>
        <pt x="155" y="676" on="0"/>
        <pt x="155" y="665" on="1"/>
        <pt x="155" y="662" on="0"/>
        <pt x="154" y="654" on="0"/>
        <pt x="152" y="643" on="1"/>
        <pt x="146" y="611" on="0"/>
      </contour>
    </TTGlyph>
    <TTGlyph name="dieresisacute.case" xMin="-104" yMin="785" xMax="168" yMax="1054">
      <contour>
        <pt x="35" y="871" on="1"/>
        <pt x="1" y="890" on="1"/>
        <pt x="121" y="1054" on="1"/>
        <pt x="168" y="1027" on="1"/>
      </contour>
      <contour>
        <pt x="-70" y="785" on="1"/>
        <pt x="-89" y="785" on="0"/>
        <pt x="-104" y="802" on="0"/>
        <pt x="-104" y="813" on="1"/>
        <pt x="-104" y="816" on="0"/>
        <pt x="-103" y="824" on="0"/>
        <pt x="-101" y="835" on="1"/>
        <pt x="-95" y="867" on="0"/>
        <pt x="-58" y="867" on="1"/>
        <pt x="-39" y="867" on="0"/>
        <pt x="-24" y="850" on="0"/>
        <pt x="-24" y="839" on="1"/>
        <pt x="-24" y="836" on="0"/>
        <pt x="-25" y="828" on="0"/>
        <pt x="-27" y="817" on="1"/>
        <pt x="-33" y="785" on="0"/>
      </contour>
      <contour>
        <pt x="112" y="785" on="1"/>
        <pt x="93" y="785" on="0"/>
        <pt x="78" y="802" on="0"/>
        <pt x="78" y="813" on="1"/>
        <pt x="78" y="816" on="0"/>
        <pt x="79" y="824" on="0"/>
        <pt x="81" y="835" on="1"/>
        <pt x="87" y="867" on="0"/>
        <pt x="124" y="867" on="1"/>
        <pt x="143" y="867" on="0"/>
        <pt x="158" y="850" on="0"/>
        <pt x="158" y="839" on="1"/>
        <pt x="158" y="836" on="0"/>
        <pt x="157" y="828" on="0"/>
        <pt x="155" y="817" on="1"/>
        <pt x="149" y="785" on="0"/>
      </contour>
    </TTGlyph>
    <TTGlyph name="dieresiscaron" xMin="-107" yMin="611" xMax="204" yMax="874">
      <contour>
        <pt x="0" y="717" on="1"/>
        <pt x="-97" y="851" on="1"/>
        <pt x="-63" y="874" on="1"/>
        <pt x="37" y="755" on="1"/>
        <pt x="174" y="874" on="1"/>
        <pt x="204" y="850" on="1"/>
        <pt x="69" y="717" on="1"/>
      </contour>
      <contour>
        <pt x="-73" y="611" on="1"/>
        <pt x="-92" y="611" on="0"/>
        <pt x="-107" y="628" on="0"/>
        <pt x="-107" y="639" on="1"/>
        <pt x="-107" y="642" on="0"/>
        <pt x="-106" y="650" on="0"/>
        <pt x="-104" y="661" on="1"/>
        <pt x="-98" y="693" on="0"/>
        <pt x="-61" y="693" on="1"/>
        <pt x="-42" y="693" on="0"/>
        <pt x="-27" y="676" on="0"/>
        <pt x="-27" y="665" on="1"/>
        <pt x="-27" y="662" on="0"/>
        <pt x="-28" y="654" on="0"/>
        <pt x="-30" y="643" on="1"/>
        <pt x="-36" y="611" on="0"/>
      </contour>
      <contour>
        <pt x="109" y="611" on="1"/>
        <pt x="90" y="611" on="0"/>
        <pt x="75" y="628" on="0"/>
        <pt x="75" y="639" on="1"/>
        <pt x="75" y="642" on="0"/>
        <pt x="76" y="650" on="0"/>
        <pt x="78" y="661" on="1"/>
        <pt x="84" y="693" on="0"/>
        <pt x="121" y="693" on="1"/>
        <pt x="140" y="693" on="0"/>
        <pt x="155" y="676" on="0"/>
        <pt x="155" y="665" on="1"/>
        <pt x="155" y="662" on="0"/>
        <pt x="154" y="654" on="0"/>
        <pt x="152" y="643" on="1"/>
        <pt x="146" y="611" on="0"/>
      </contour>
    </TTGlyph>
    <TTGlyph name="dieresiscaron.case" xMin="-104" yMin="785" xMax="207" yMax="1048">
      <contour>
        <pt x="3" y="891" on="1"/>
        <pt x="-94" y="1025" on="1"/>
        <pt x="-60" y="1048" on="1"/>
        <pt x="40" y="929" on="1"/>
        <pt x="177" y="1048" on="1"/>
        <pt x="207" y="1024" on="1"/>
        <pt x="72" y="891" on="1"/>
      </contour>
      <contour>
        <pt x="-70" y="785" on="1"/>
        <pt x="-89" y="785" on="0"/>
        <pt x="-104" y="802" on="0"/>
        <pt x="-104" y="813" on="1"/>
        <pt x="-104" y="816" on="0"/>
        <pt x="-103" y="824" on="0"/>
        <pt x="-101" y="835" on="1"/>
        <pt x="-95" y="867" on="0"/>
        <pt x="-58" y="867" on="1"/>
        <pt x="-39" y="867" on="0"/>
        <pt x="-24" y="850" on="0"/>
        <pt x="-24" y="839" on="1"/>
        <pt x="-24" y="836" on="0"/>
        <pt x="-25" y="828" on="0"/>
        <pt x="-27" y="817" on="1"/>
        <pt x="-33" y="785" on="0"/>
      </contour>
      <contour>
        <pt x="112" y="785" on="1"/>
        <pt x="93" y="785" on="0"/>
        <pt x="78" y="802" on="0"/>
        <pt x="78" y="813" on="1"/>
        <pt x="78" y="816" on="0"/>
        <pt x="79" y="824" on="0"/>
        <pt x="81" y="835" on="1"/>
        <pt x="87" y="867" on="0"/>
        <pt x="124" y="867" on="1"/>
        <pt x="143" y="867" on="0"/>
        <pt x="158" y="850" on="0"/>
        <pt x="158" y="839" on="1"/>
        <pt x="158" y="836" on="0"/>
        <pt x="157" y="828" on="0"/>
        <pt x="155" y="817" on="1"/>
        <pt x="149" y="785" on="0"/>
      </contour>
    </TTGlyph>
    <TTGlyph name="dieresisgrave" xMin="-107" yMin="611" xMax="155" yMax="888">
      <contour>
        <pt x="-58" y="865" on="1"/>
        <pt x="-9" y="888" on="1"/>
        <pt x="59" y="724" on="1"/>
        <pt x="26" y="708" on="1"/>
      </contour>
      <contour>
        <pt x="-73" y="611" on="1"/>
        <pt x="-92" y="611" on="0"/>
        <pt x="-107" y="628" on="0"/>
        <pt x="-107" y="639" on="1"/>
        <pt x="-107" y="642" on="0"/>
        <pt x="-106" y="650" on="0"/>
        <pt x="-104" y="661" on="1"/>
        <pt x="-98" y="693" on="0"/>
        <pt x="-61" y="693" on="1"/>
        <pt x="-42" y="693" on="0"/>
        <pt x="-27" y="676" on="0"/>
        <pt x="-27" y="665" on="1"/>
        <pt x="-27" y="662" on="0"/>
        <pt x="-28" y="654" on="0"/>
        <pt x="-30" y="643" on="1"/>
        <pt x="-36" y="611" on="0"/>
      </contour>
      <contour>
        <pt x="109" y="611" on="1"/>
        <pt x="90" y="611" on="0"/>
        <pt x="75" y="628" on="0"/>
        <pt x="75" y="639" on="1"/>
        <pt x="75" y="642" on="0"/>
        <pt x="76" y="650" on="0"/>
        <pt x="78" y="661" on="1"/>
        <pt x="84" y="693" on="0"/>
        <pt x="121" y="693" on="1"/>
        <pt x="140" y="693" on="0"/>
        <pt x="155" y="676" on="0"/>
        <pt x="155" y="665" on="1"/>
        <pt x="155" y="662" on="0"/>
        <pt x="154" y="654" on="0"/>
        <pt x="152" y="643" on="1"/>
        <pt x="146" y="611" on="0"/>
      </contour>
    </TTGlyph>
    <TTGlyph name="dieresisgrave.case" xMin="-104" yMin="785" xMax="158" yMax="1053">
      <contour>
        <pt x="-57" y="1029" on="1"/>
        <pt x="-9" y="1053" on="1"/>
        <pt x="60" y="887" on="1"/>
        <pt x="27" y="872" on="1"/>
      </contour>
      <contour>
        <pt x="-70" y="785" on="1"/>
        <pt x="-89" y="785" on="0"/>
        <pt x="-104" y="802" on="0"/>
        <pt x="-104" y="813" on="1"/>
        <pt x="-104" y="816" on="0"/>
        <pt x="-103" y="824" on="0"/>
        <pt x="-101" y="835" on="1"/>
        <pt x="-95" y="867" on="0"/>
        <pt x="-58" y="867" on="1"/>
        <pt x="-39" y="867" on="0"/>
        <pt x="-24" y="850" on="0"/>
        <pt x="-24" y="839" on="1"/>
        <pt x="-24" y="836" on="0"/>
        <pt x="-25" y="828" on="0"/>
        <pt x="-27" y="817" on="1"/>
        <pt x="-33" y="785" on="0"/>
      </contour>
      <contour>
        <pt x="112" y="785" on="1"/>
        <pt x="93" y="785" on="0"/>
        <pt x="78" y="802" on="0"/>
        <pt x="78" y="813" on="1"/>
        <pt x="78" y="816" on="0"/>
        <pt x="79" y="824" on="0"/>
        <pt x="81" y="835" on="1"/>
        <pt x="87" y="867" on="0"/>
        <pt x="124" y="867" on="1"/>
        <pt x="143" y="867" on="0"/>
        <pt x="158" y="850" on="0"/>
        <pt x="158" y="839" on="1"/>
        <pt x="158" y="836" on="0"/>
        <pt x="157" y="828" on="0"/>
        <pt x="155" y="817" on="1"/>
        <pt x="149" y="785" on="0"/>
      </contour>
    </TTGlyph>
    <TTGlyph name="dieresismacron" xMin="-107" yMin="611" xMax="183" yMax="809">
      <contour>
        <pt x="-74" y="809" on="1"/>
        <pt x="183" y="809" on="1"/>
        <pt x="174" y="762" on="1"/>
        <pt x="-84" y="762" on="1"/>
      </contour>
      <contour>
        <pt x="-73" y="611" on="1"/>
        <pt x="-92" y="611" on="0"/>
        <pt x="-107" y="628" on="0"/>
        <pt x="-107" y="639" on="1"/>
        <pt x="-107" y="642" on="0"/>
        <pt x="-106" y="650" on="0"/>
        <pt x="-104" y="661" on="1"/>
        <pt x="-98" y="693" on="0"/>
        <pt x="-61" y="693" on="1"/>
        <pt x="-42" y="693" on="0"/>
        <pt x="-27" y="676" on="0"/>
        <pt x="-27" y="665" on="1"/>
        <pt x="-27" y="662" on="0"/>
        <pt x="-28" y="654" on="0"/>
        <pt x="-30" y="643" on="1"/>
        <pt x="-36" y="611" on="0"/>
      </contour>
      <contour>
        <pt x="109" y="611" on="1"/>
        <pt x="90" y="611" on="0"/>
        <pt x="75" y="628" on="0"/>
        <pt x="75" y="639" on="1"/>
        <pt x="75" y="642" on="0"/>
        <pt x="76" y="650" on="0"/>
        <pt x="78" y="661" on="1"/>
        <pt x="84" y="693" on="0"/>
        <pt x="121" y="693" on="1"/>
        <pt x="140" y="693" on="0"/>
        <pt x="155" y="676" on="0"/>
        <pt x="155" y="665" on="1"/>
        <pt x="155" y="662" on="0"/>
        <pt x="154" y="654" on="0"/>
        <pt x="152" y="643" on="1"/>
        <pt x="146" y="611" on="0"/>
      </contour>
    </TTGlyph>
    <TTGlyph name="dieresismacron.case" xMin="-104" yMin="785" xMax="186" yMax="983">
      <contour>
        <pt x="-71" y="983" on="1"/>
        <pt x="186" y="983" on="1"/>
        <pt x="177" y="935" on="1"/>
        <pt x="-81" y="935" on="1"/>
      </contour>
      <contour>
        <pt x="-70" y="785" on="1"/>
        <pt x="-89" y="785" on="0"/>
        <pt x="-104" y="802" on="0"/>
        <pt x="-104" y="813" on="1"/>
        <pt x="-104" y="816" on="0"/>
        <pt x="-103" y="824" on="0"/>
        <pt x="-101" y="835" on="1"/>
        <pt x="-95" y="867" on="0"/>
        <pt x="-58" y="867" on="1"/>
        <pt x="-39" y="867" on="0"/>
        <pt x="-24" y="850" on="0"/>
        <pt x="-24" y="839" on="1"/>
        <pt x="-24" y="836" on="0"/>
        <pt x="-25" y="828" on="0"/>
        <pt x="-27" y="817" on="1"/>
        <pt x="-33" y="785" on="0"/>
      </contour>
      <contour>
        <pt x="112" y="785" on="1"/>
        <pt x="93" y="785" on="0"/>
        <pt x="78" y="802" on="0"/>
        <pt x="78" y="813" on="1"/>
        <pt x="78" y="816" on="0"/>
        <pt x="79" y="824" on="0"/>
        <pt x="81" y="835" on="1"/>
        <pt x="87" y="867" on="0"/>
        <pt x="124" y="867" on="1"/>
        <pt x="143" y="867" on="0"/>
        <pt x="158" y="850" on="0"/>
        <pt x="158" y="839" on="1"/>
        <pt x="158" y="836" on="0"/>
        <pt x="157" y="828" on="0"/>
        <pt x="155" y="817" on="1"/>
        <pt x="149" y="785" on="0"/>
      </contour>
    </TTGlyph>
    <TTGlyph name="dieresistonos" xMin="215" yMin="586" xMax="492" yMax="769">
      <contour>
        <pt x="331" y="586" on="1"/>
        <pt x="299" y="596" on="1"/>
        <pt x="375" y="769" on="1"/>
        <pt x="421" y="754" on="1"/>
      </contour>
      <contour>
        <pt x="246" y="627" on="1"/>
        <pt x="215" y="627" on="0"/>
        <pt x="215" y="655" on="1"/>
        <pt x="215" y="660" on="0"/>
        <pt x="218" y="674" on="1"/>
        <pt x="226" y="709" on="0"/>
        <pt x="258" y="709" on="1"/>
        <pt x="289" y="709" on="0"/>
        <pt x="289" y="681" on="1"/>
        <pt x="289" y="676" on="0"/>
        <pt x="286" y="663" on="1"/>
        <pt x="282" y="646" on="0"/>
        <pt x="263" y="627" on="0"/>
      </contour>
      <contour>
        <pt x="449" y="627" on="1"/>
        <pt x="435" y="627" on="0"/>
        <pt x="419" y="642" on="0"/>
        <pt x="419" y="655" on="1"/>
        <pt x="419" y="660" on="0"/>
        <pt x="422" y="674" on="1"/>
        <pt x="428" y="709" on="0"/>
        <pt x="462" y="709" on="1"/>
        <pt x="476" y="709" on="0"/>
        <pt x="492" y="694" on="0"/>
        <pt x="492" y="681" on="1"/>
        <pt x="492" y="676" on="0"/>
        <pt x="489" y="663" on="1"/>
        <pt x="485" y="646" on="0"/>
        <pt x="466" y="627" on="0"/>
      </contour>
    </TTGlyph>
    <TTGlyph name="divide" xMin="75" yMin="65" xMax="545" yMax="547">
      <contour>
        <pt x="75" y="281" on="1"/>
        <pt x="85" y="329" on="1"/>
        <pt x="545" y="329" on="1"/>
        <pt x="535" y="281" on="1"/>
      </contour>
      <contour>
        <pt x="265" y="65" on="1"/>
        <pt x="242" y="65" on="0"/>
        <pt x="224" y="82" on="0"/>
        <pt x="224" y="96" on="1"/>
        <pt x="224" y="101" on="0"/>
        <pt x="226" y="116" on="0"/>
        <pt x="228" y="122" on="1"/>
        <pt x="232" y="141" on="0"/>
        <pt x="256" y="161" on="0"/>
        <pt x="280" y="161" on="1"/>
        <pt x="303" y="161" on="0"/>
        <pt x="321" y="144" on="0"/>
        <pt x="321" y="130" on="1"/>
        <pt x="321" y="125" on="0"/>
        <pt x="319" y="110" on="0"/>
        <pt x="317" y="104" on="1"/>
        <pt x="313" y="85" on="0"/>
        <pt x="289" y="65" on="0"/>
      </contour>
      <contour>
        <pt x="341" y="451" on="1"/>
        <pt x="318" y="451" on="0"/>
        <pt x="300" y="468" on="0"/>
        <pt x="300" y="482" on="1"/>
        <pt x="300" y="487" on="0"/>
        <pt x="302" y="502" on="0"/>
        <pt x="304" y="508" on="1"/>
        <pt x="308" y="527" on="0"/>
        <pt x="332" y="547" on="0"/>
        <pt x="356" y="547" on="1"/>
        <pt x="379" y="547" on="0"/>
        <pt x="397" y="530" on="0"/>
        <pt x="397" y="516" on="1"/>
        <pt x="397" y="511" on="0"/>
        <pt x="395" y="496" on="0"/>
        <pt x="393" y="490" on="1"/>
        <pt x="389" y="471" on="0"/>
        <pt x="365" y="451" on="0"/>
      </contour>
    </TTGlyph>
    <TTGlyph name="dollar" xMin="12" yMin="-82" xMax="549" yMax="780">
      <contour>
        <pt x="203" y="0" on="1"/>
        <pt x="136" y="7" on="0"/>
        <pt x="41" y="67" on="0"/>
        <pt x="12" y="117" on="1"/>
        <pt x="55" y="152" on="1"/>
        <pt x="81" y="107" on="0"/>
        <pt x="157" y="56" on="0"/>
        <pt x="214" y="51" on="1"/>
        <pt x="271" y="338" on="1"/>
        <pt x="255" y="342" on="1"/>
        <pt x="178" y="361" on="0"/>
        <pt x="106" y="439" on="0"/>
        <pt x="106" y="504" on="1"/>
        <pt x="106" y="543" on="0"/>
        <pt x="135" y="613" on="0"/>
        <pt x="194" y="666" on="0"/>
        <pt x="284" y="698" on="0"/>
        <pt x="344" y="699" on="1"/>
        <pt x="360" y="780" on="1"/>
        <pt x="404" y="780" on="1"/>
        <pt x="387" y="696" on="1"/>
        <pt x="448" y="688" on="0"/>
        <pt x="526" y="637" on="0"/>
        <pt x="549" y="592" on="1"/>
        <pt x="504" y="559" on="1"/>
        <pt x="485" y="594" on="0"/>
        <pt x="424" y="638" on="0"/>
        <pt x="375" y="645" on="1"/>
        <pt x="322" y="379" on="1"/>
        <pt x="335" y="376" on="1"/>
        <pt x="418" y="357" on="0"/>
        <pt x="494" y="278" on="0"/>
        <pt x="494" y="212" on="1"/>
        <pt x="494" y="169" on="0"/>
        <pt x="463" y="92" on="0"/>
        <pt x="401" y="34" on="0"/>
        <pt x="308" y="0" on="0"/>
        <pt x="247" y="0" on="1"/>
        <pt x="230" y="-82" on="1"/>
        <pt x="187" y="-82" on="1"/>
      </contour>
      <contour>
        <pt x="312" y="330" on="1"/>
        <pt x="256" y="50" on="1"/>
        <pt x="301" y="50" on="0"/>
        <pt x="368" y="76" on="0"/>
        <pt x="413" y="119" on="0"/>
        <pt x="436" y="176" on="0"/>
        <pt x="436" y="207" on="1"/>
        <pt x="436" y="255" on="0"/>
        <pt x="382" y="313" on="0"/>
        <pt x="324" y="327" on="1"/>
      </contour>
      <contour>
        <pt x="164" y="509" on="1"/>
        <pt x="164" y="462" on="0"/>
        <pt x="214" y="403" on="0"/>
        <pt x="268" y="392" on="1"/>
        <pt x="282" y="389" on="1"/>
        <pt x="333" y="648" on="1"/>
        <pt x="249" y="646" on="0"/>
        <pt x="164" y="568" on="0"/>
      </contour>
    </TTGlyph>
    <TTGlyph name="dotaccent" xMin="281" yMin="626" xMax="361" yMax="708">
      <contour>
        <pt x="315" y="626" on="1"/>
        <pt x="296" y="626" on="0"/>
        <pt x="281" y="643" on="0"/>
        <pt x="281" y="654" on="1"/>
        <pt x="281" y="657" on="0"/>
        <pt x="282" y="665" on="0"/>
        <pt x="284" y="676" on="1"/>
        <pt x="290" y="708" on="0"/>
        <pt x="327" y="708" on="1"/>
        <pt x="346" y="708" on="0"/>
        <pt x="361" y="691" on="0"/>
        <pt x="361" y="680" on="1"/>
        <pt x="361" y="677" on="0"/>
        <pt x="360" y="669" on="0"/>
        <pt x="358" y="658" on="1"/>
        <pt x="352" y="626" on="0"/>
      </contour>
    </TTGlyph>
    <TTGlyph name="dotaccent.case" xMin="282" yMin="799" xMax="362" yMax="881">
      <contour>
        <pt x="316" y="799" on="1"/>
        <pt x="297" y="799" on="0"/>
        <pt x="282" y="816" on="0"/>
        <pt x="282" y="827" on="1"/>
        <pt x="282" y="830" on="0"/>
        <pt x="283" y="838" on="0"/>
        <pt x="285" y="849" on="1"/>
        <pt x="291" y="881" on="0"/>
        <pt x="328" y="881" on="1"/>
        <pt x="347" y="881" on="0"/>
        <pt x="362" y="864" on="0"/>
        <pt x="362" y="853" on="1"/>
        <pt x="362" y="850" on="0"/>
        <pt x="361" y="842" on="0"/>
        <pt x="359" y="831" on="1"/>
        <pt x="353" y="799" on="0"/>
      </contour>
    </TTGlyph>
    <TTGlyph name="dotlessi" xMin="54" yMin="0" xMax="201" yMax="512">
      <contour>
        <pt x="105" y="0" on="1"/>
        <pt x="79" y="0" on="0"/>
        <pt x="54" y="25" on="0"/>
        <pt x="54" y="46" on="1"/>
        <pt x="54" y="51" on="0"/>
        <pt x="54" y="59" on="0"/>
        <pt x="56" y="66" on="1"/>
        <pt x="146" y="512" on="1"/>
        <pt x="201" y="512" on="1"/>
        <pt x="108" y="49" on="1"/>
        <pt x="186" y="49" on="1"/>
        <pt x="176" y="0" on="1"/>
      </contour>
    </TTGlyph>
    <TTGlyph name="e" xMin="53" yMin="-12" xMax="477" yMax="524">
      <contour>
        <pt x="240" y="-12" on="1"/>
        <pt x="150" y="-12" on="0"/>
        <pt x="53" y="93" on="0"/>
        <pt x="53" y="197" on="1"/>
        <pt x="53" y="263" on="0"/>
        <pt x="91" y="382" on="0"/>
        <pt x="159" y="471" on="0"/>
        <pt x="255" y="524" on="0"/>
        <pt x="314" y="524" on="1"/>
        <pt x="348" y="524" on="0"/>
        <pt x="407" y="507" on="0"/>
        <pt x="451" y="474" on="0"/>
        <pt x="477" y="424" on="0"/>
        <pt x="477" y="392" on="1"/>
        <pt x="477" y="357" on="0"/>
        <pt x="441" y="297" on="0"/>
        <pt x="356" y="253" on="0"/>
        <pt x="216" y="227" on="0"/>
        <pt x="112" y="226" on="1"/>
        <pt x="110" y="216" on="0"/>
        <pt x="109" y="191" on="0"/>
        <pt x="109" y="183" on="1"/>
        <pt x="109" y="111" on="0"/>
        <pt x="176" y="37" on="0"/>
        <pt x="243" y="37" on="1"/>
        <pt x="297" y="37" on="0"/>
        <pt x="383" y="91" on="0"/>
        <pt x="413" y="136" on="1"/>
        <pt x="451" y="106" on="1"/>
        <pt x="406" y="42" on="0"/>
        <pt x="299" y="-12" on="0"/>
      </contour>
      <contour>
        <pt x="308" y="476" on="1"/>
        <pt x="238" y="476" on="0"/>
        <pt x="141" y="375" on="0"/>
        <pt x="124" y="294" on="1"/>
        <pt x="119" y="270" on="1"/>
        <pt x="213" y="273" on="0"/>
        <pt x="331" y="292" on="0"/>
        <pt x="397" y="324" on="0"/>
        <pt x="420" y="367" on="0"/>
        <pt x="420" y="393" on="1"/>
        <pt x="420" y="436" on="0"/>
        <pt x="359" y="476" on="0"/>
      </contour>
    </TTGlyph>
    <TTGlyph name="eacute" xMin="53" yMin="-12" xMax="477" yMax="769">
      <component glyphName="e" x="0" y="0" flags="0x204"/>
      <component glyphName="acute" x="24" y="0" flags="0x4"/>
    </TTGlyph>
    <TTGlyph name="ebreve" xMin="53" yMin="-12" xMax="493" yMax="742">
      <component glyphName="e" x="0" y="0" flags="0x204"/>
      <component glyphName="breve" x="24" y="0" flags="0x4"/>
    </TTGlyph>
    <TTGlyph name="ecaron" xMin="53" yMin="-12" xMax="509" yMax="763">
      <component glyphName="e" x="0" y="0" flags="0x204"/>
      <component glyphName="caron" x="24" y="0" flags="0x4"/>
    </TTGlyph>
    <TTGlyph name="ecircumflex" xMin="53" yMin="-12" xMax="483" yMax="756">
      <component glyphName="e" x="0" y="0" flags="0x204"/>
      <component glyphName="circumflex" x="24" y="0" flags="0x4"/>
    </TTGlyph>
    <TTGlyph name="edieresis" xMin="53" yMin="-12" xMax="477" yMax="708">
      <component glyphName="e" x="0" y="0" flags="0x204"/>
      <component glyphName="dieresis" x="24" y="0" flags="0x4"/>
    </TTGlyph>
    <TTGlyph name="edotaccent" xMin="53" yMin="-12" xMax="477" yMax="708">
      <component glyphName="e" x="0" y="0" flags="0x204"/>
      <component glyphName="dotaccent" x="24" y="0" flags="0x4"/>
    </TTGlyph>
    <TTGlyph name="egrave" xMin="53" yMin="-12" xMax="477" yMax="766">
      <component glyphName="e" x="0" y="0" flags="0x204"/>
      <component glyphName="grave" x="24" y="0" flags="0x4"/>
    </TTGlyph>
</ttFont>
